<?xml version="1.0" encoding="UTF-8" standalone="no"?>
<!-- Created with Inkscape (http://www.inkscape.org/) -->

<svg
   width="512"
   height="512"
   viewBox="0 0 512 512"
   version="1.1"
   id="svg1"
   xml:space="preserve"
   inkscape:version="1.3.2 (091e20e, 2023-11-25)"
   sodipodi:docname="coinmergelogo.svg"
   xmlns:inkscape="http://www.inkscape.org/namespaces/inkscape"
   xmlns:sodipodi="http://sodipodi.sourceforge.net/DTD/sodipodi-0.dtd"
   xmlns="http://www.w3.org/2000/svg"
   xmlns:svg="http://www.w3.org/2000/svg"><sodipodi:namedview
     id="namedview1"
     pagecolor="#505050"
     bordercolor="#eeeeee"
     borderopacity="1"
     inkscape:showpageshadow="0"
     inkscape:pageopacity="0"
     inkscape:pagecheckerboard="0"
     inkscape:deskcolor="#505050"
     inkscape:document-units="px"
     inkscape:zoom="0.4609375"
     inkscape:cx="248.40678"
     inkscape:cy="146.44068"
     inkscape:window-width="1440"
     inkscape:window-height="900"
     inkscape:window-x="0"
     inkscape:window-y="0"
     inkscape:window-maximized="0"
     inkscape:current-layer="layer1" /><defs
     id="defs1" /><g
     inkscape:label="Layer 1"
     inkscape:groupmode="layer"
     id="layer1"><g
       id="g1"
       transform="matrix(0.48100261,0,0,0.48100261,10.811407,13.423811)"><path
         d="M 1024,1024 H 0 Z"
         fill="#ffffff"
         id="path1"
         sodipodi:nodetypes="ccc" /><path
         d="m 537.24,30.68 c -16.03,0.55 -32.45,0.47 -48.48,0.04 14.6,-1.21 33.85,-1.14 48.48,-0.04 z"
         fill="#7f8082"
         id="path2" /><path
         d="m 661.88,54.12 c 118.71,38.72 220.06,124.65 277.47,235.54 32.33,61.78 50.37,130.52 53.94,200.1 -0.47,15.03 -0.47,30.45 0,45.48 -2.28,42.39 -9.82,84.74 -22.91,125.13 -38.23,119.1 -124.07,220.24 -234.7,278.32 -61.68,32.46 -129.92,50.67 -199.44,54.63 -15.68,-0.54 -31.8,-0.48 -47.48,-0.03 C 446.08,991.17 403.57,983.15 362.87,970.14 243.95,931.83 142.67,845.74 84.98,735.01 52.42,673.35 34.43,604.79 30.7,535.24 c 0.49,-15.33 0.49,-31.15 0,-46.48 C 35.94,382.99 76.26,280.59 144.99,199.99 256.46791,68.19462 449.36772,-11.503882 661.88,54.12 Z"
         fill="#010306"
         id="path3"
         sodipodi:nodetypes="cccccccccccccc" /><path
         d="m 569.25,162.76 c -8.68,0.18 -17.1,-1.54 -25.87,-0.59 -17.63,-3.29 -37.61,0.79 -55.63,0.63 26.15,-3.99 55.33,-3.92 81.5,-0.04 z"
         fill="#247363"
         id="path4" /><path
         d="m 543.38,162.17 c -17.99,0.4 -35.48,-0.21 -53.14,4.18 -0.63,42.21 -5.75,81.83 -23.12,120.67 -21.5,53.24 -58.94,98.18 -105.93,131.17 -52.5,36.45 -114.13,53.74 -177.79,52.5 -3.02,9.56 -3.18,19.76 -5.21,28.54 -0.36,-12.46 2.25,-24.96 2.57,-37.45 11.96,-87.57 59.03,-168.95 128,-224.01 51.16,-41.2 113.8,-67.21 178.99,-74.97 18.02,0.16 38,-3.92 55.63,-0.63 z"
         fill="#4bfcd1"
         id="path5" /><path
         d="m 543.38,162.17 c 8.77,-0.95 17.19,0.77 25.87,0.59 29.47,3.84 59.52,10.5 86.94,22.11 -16.91,-2.92 -34.74,-13.08 -51.91,-12.35 -2.3,50.41 -7.68,97.11 -26.47,144.32 -2.03,8.61 -5.97,15.72 -9.2,23.66 14.8,9.15 37.86,12.55 51.3,25.67 -22.94,-13.85 -46.17,-21.66 -72.68,-25.4 -10.44,-1.3 -25.98,-1.19 -36.48,-0.06 -10.14,1.59 -19.86,3.55 -29.76,6.28 -62.48,18.15 -110.3,71.97 -122.11,135.83 -4.03,15.95 -4.06,42.42 0.02,58.36 1,3.88 1.64,7.82 2.28,11.77 -6.62,-3.32 -2.73,-12.06 -6.42,-18.49 -53.82,24.06 -109.56,34.75 -168.59,34.68 -6.24,6.84 7.03,7.94 -1.63,15.01 -1.8,-7.18 -2.88,-14.58 -3.78,-21.93 -1.76,-21.09 -3.78,-41.76 -2.57,-62.99 2.03,-8.78 2.19,-18.98 5.21,-28.54 63.66,1.24 125.29,-16.05 177.79,-52.5 46.99,-32.99 84.43,-77.93 105.93,-131.17 17.37,-38.84 22.49,-78.46 23.12,-120.67 17.66,-4.39 35.15,-3.78 53.14,-4.18 z"
         fill="#50fad5"
         id="path6" /><path
         d="m 604.28,172.52 c 17.17,-0.73 35,9.43 51.91,12.35 33.41,12.36 65.8,31.02 92.94,54.06 -8.95,-2.82 -15.95,-13.04 -24.65,-14.75 -2.09,8.85 0.32,-2.7 -4.32,1.2 0.24,-5.43 -2.3,-5.51 -5.94,-8.31 -3.99,26.24 -7.31,57.98 -14.17,84.09 -9.34,34.01 -20.22,68.84 -36.86,99.63 3.05,2.55 5.99,9.09 8.68,1.91 1.63,-7.11 7.98,-11.84 7.95,-18.76 4.12,-2.25 6.36,-12.05 5.24,-16.89 0.49,0.9 0.98,1.8 1.47,2.7 1.6,-3.96 3.59,-12.98 7.41,-14.73 -5.85,19.16 -13.32,35.71 -22.08,53.62 -2.01,4.22 0.85,6.29 2.74,9.73 5.49,8.9 10.22,18.05 14.39,27.63 1.77,3.22 1.66,9.2 6.15,9.52 -3.12,0.39 -4.15,1.18 -5.28,-2.38 -12.75,-36.29 -38,-65.96 -69.95,-86.97 -13.44,-13.12 -36.5,-16.52 -51.3,-25.67 3.23,-7.94 7.17,-15.05 9.2,-23.66 18.79,-47.21 24.17,-93.91 26.47,-144.32 z"
         fill="#56f6da"
         id="path7" /><path
         d="m 714.22,217.07 c 3.64,2.8 6.18,2.88 5.94,8.31 4.64,-3.9 2.23,7.65 4.32,-1.2 8.7,1.71 15.7,11.93 24.65,14.75 7.57,5.03 14.45,11.57 21.03,17.81 3.69,5.14 8.94,10.44 14.12,14.09 25.33,27.12 47.82,59 62.64,93.04 -34.49,51.91 -90.99,82.28 -151.78,91.65 -4.49,-0.32 -4.38,-6.3 -6.15,-9.52 -4.17,-9.58 -8.9,-18.73 -14.39,-27.63 -1.89,-3.44 -4.75,-5.51 -2.74,-9.73 8.76,-17.91 16.23,-34.46 22.08,-53.62 -3.82,1.75 -5.81,10.77 -7.41,14.73 -0.49,-0.9 -0.98,-1.8 -1.47,-2.7 1.12,4.84 -1.12,14.64 -5.24,16.89 0.03,6.92 -6.32,11.65 -7.95,18.76 -2.69,7.18 -5.63,0.64 -8.68,-1.91 16.64,-30.79 27.52,-65.62 36.86,-99.63 6.86,-26.11 10.18,-57.85 14.17,-84.09 z"
         fill="#5ff2e2"
         id="path8" /><path
         d="m 770.16,256.74 c 5.23,3.49 10.57,8.89 14.12,14.09 -5.18,-3.65 -10.43,-8.95 -14.12,-14.09 z"
         fill="#317e77"
         id="path9" /><path
         d="m 547.23,340.77 c -12.12,0.34 -24.37,0.44 -36.48,-0.06 10.5,-1.13 26.04,-1.24 36.48,0.06 z"
         fill="#2b8574"
         id="path10" /><path
         d="m 548.26,412.74 c -15.27,-1.04 -27.19,-0.97 -42.44,1.1 13.18,-3.84 29.03,-3.82 42.44,-1.1 z"
         fill="#309280"
         id="path11" /><path
         d="m 548.26,412.74 c 40.27,7.83 71.96,39.86 79.94,80.02 1.09,12.86 1.11,24.61 -0.01,37.48 -8.52,45.13 -48.16,79.86 -94.18,81.78 -34.32,1.73 -69.62,-15.77 -88.25,-44.79 -19.45,-28.49 -22.24,-66.79 -7.45,-97.91 12.38,-27.41 38.33,-48.45 67.51,-55.48 15.25,-2.07 27.17,-2.14 42.44,-1.1 z"
         fill="#57f5db"
         id="path12" /><path
         d="m 180.76,461.78 c -0.32,12.49 -2.93,24.99 -2.57,37.45 -1.21,21.23 0.81,41.9 2.57,62.99 -3.83,-16.11 -3.84,-33.7 -3.76,-50.22 -0.08,-16.52 -0.07,-34.11 3.76,-50.22 z"
         fill="#2f9681"
         id="path13" /><path
         d="m 358.88,482.82 c -2.27,20.89 -2.3,37.46 0.02,58.36 -4.08,-15.94 -4.05,-42.41 -0.02,-58.36 z"
         fill="#2f917e"
         id="path14" /><path
         d="m 628.2,492.76 c 2.77,10.28 2.78,27.2 -0.01,37.48 1.12,-12.87 1.1,-24.62 0.01,-37.48 z"
         fill="#2e7b73"
         id="path17" /><path
         d="m 354.76,534.46 c 3.69,6.43 -0.2,15.17 6.42,18.49 4.84,15.17 9.65,30.13 18.04,43.83 5.92,8.2 1.82,20.38 -1.63,28.83 -5.08,15.04 -16.7,28.44 -31.47,34.54 -16.72,5.49 -30.67,0.7 -47.35,0.01 -26.95,-2.37 -53.29,6.82 -74.57,23.09 -1.77,2.1 -3.45,-1.82 -4.44,-3.01 -16.24,-30.19 -28.43,-62.46 -35.22,-96.09 8.66,-7.07 -4.61,-8.17 1.63,-15.01 59.03,0.07 114.77,-10.62 168.59,-34.68 z"
         fill="#55f7d9"
         id="path18" /><path
         d="m 685.42,582.38 c 28.2,-0.21 58.92,8.19 83.84,21.44 -13.79,-3.72 -26.88,-11.25 -41.08,-14.03 -5.81,-0.76 -11.57,-1.03 -17.21,-2.79 -4.02,-1.14 -4.85,3.69 -6.89,6.05 -78.14,94.94 -184.83,169.37 -301.63,207.41 -3.02,11.12 -10.12,21.7 -15.44,31.61 23.29,11.03 47.58,16.71 71.92,24.06 -24.49,-4.21 -52.1,-12.55 -73.92,-24.07 7.86,-12.35 13.24,-25.48 16.09,-39.88 2.95,-11.79 2.89,-31.59 0.03,-43.41 -1.93,-9.18 -1.32,-19.84 -0.61,-29.18 4.14,-28.93 30.78,-49.56 59.31,-49.34 16.12,5.79 31.93,10.46 48.94,12.98 10.81,1.26 28.65,1.26 39.46,0 35.58,-5.06 67.98,-19.01 94.93,-42.97 5.31,-3.85 11.8,-9.51 14.87,-15.34 11.35,-12.73 20.21,-27.12 27.39,-42.54 z"
         fill="#61efe3"
         id="path19" /><path
         d="m 710.97,587 c 5.64,1.76 11.4,2.03 17.21,2.79 14.2,2.78 27.29,10.31 41.08,14.03 10.88,4.71 21.79,11.53 31.02,18.96 -4.34,-0.54 -7.23,-3.23 -11.07,-4.87 -16.76,24.35 -36.57,45.24 -56.07,67.25 -20.02,19.11 -40.11,41.12 -62.69,58.36 -18,17.22 -41.04,30.78 -60.52,46.39 -34.82,22.73 -66.76,41.01 -104.24,58.8 -6.61,3.76 -13.94,4.39 -19.98,9.42 9.97,4.4 23.4,1.88 34.1,3.22 8.45,1.35 16.87,0.18 25.43,0.92 -19.04,2.38 -40.37,-0.81 -59.47,-1.11 -8.75,-1.94 -18.4,-1.94 -26.84,-5.03 -24.34,-7.35 -48.63,-13.03 -71.92,-24.06 5.32,-9.91 12.42,-20.49 15.44,-31.61 116.8,-38.04 223.49,-112.47 301.63,-207.41 2.04,-2.36 2.87,-7.19 6.89,-6.05 z"
         fill="#69eeeb"
         id="path20" /><path
         d="m 789.21,617.91 c 3.84,1.64 6.73,4.33 11.07,4.87 16.48,11.74 31.44,26.27 43.65,42.39 -2.26,9.43 -9.32,19.15 -13.99,27.79 -48.78,81.91 -130.88,140.98 -223.77,162.15 -7.14,0.45 -14.49,1.93 -21.4,3.76 -4.48,0.96 -9.06,1.31 -13.54,2.29 -8.67,-0.06 -17.26,1.19 -25.99,1.11 -8.56,-0.74 -16.98,0.43 -25.43,-0.92 -10.7,-1.34 -24.13,1.18 -34.1,-3.22 6.04,-5.03 13.37,-5.66 19.98,-9.42 37.48,-17.79 69.42,-36.07 104.24,-58.8 19.48,-15.61 42.52,-29.17 60.52,-46.39 22.58,-17.24 42.67,-39.25 62.69,-58.36 19.5,-22.01 39.31,-42.9 56.07,-67.25 z"
         fill="#70e9f1"
         id="path21" /><path
         d="m 658.03,624.92 c -3.07,5.83 -9.56,11.49 -14.87,15.34 4.07,-5.77 9.65,-10.61 14.87,-15.34 z"
         fill="#347e7b"
         id="path22" /><path
         d="m 298.77,660.16 c 16.68,0.69 30.63,5.48 47.35,-0.01 -13.48,7.14 -32.98,2.7 -47.35,0.01 z"
         fill="#29746a"
         id="path23" /><path
         d="m 508.77,683.23 c 13.11,-0.37 26.35,-0.37 39.46,0 -10.81,1.26 -28.65,1.26 -39.46,0 z"
         fill="#2f7872"
         id="path24" /><path
         d="m 311.07,688.93 c -13.42,-2.04 -24.85,-1.73 -38.26,-0.13 11.15,-3.8 27.1,-3.6 38.26,0.13 z"
         fill="#266860"
         id="path25" /><path
         d="m 311.07,688.93 c 29.12,7.8 50.29,27.35 60.07,55.89 3.82,19.3 3.82,31.06 0,50.36 -8.51,24.85 -26.34,43.69 -50.93,53.04 -18.29,4.49 -31.74,5.01 -50.38,1.95 -30.44,-8.15 -53.25,-33.53 -59.86,-64.1 -1.18,-12.74 -1.07,-23.44 0.93,-36.14 8.34,-30.65 31.18,-53.1 61.91,-61.13 13.41,-1.6 24.84,-1.91 38.26,0.13 z"
         fill="#60f1e3"
         id="path26" /><path
         d="m 371.14,744.82 c 5.53,12.37 5.31,37.95 0,50.36 3.82,-19.3 3.82,-31.06 0,-50.36 z"
         fill="#368680"
         id="path27" /><path
         d="m 401.13,748.77 c 2.86,11.82 2.92,31.62 -0.03,43.41 1.28,-14.59 1.22,-28.82 0.03,-43.41 z"
         fill="#2e736f"
         id="path28" /><path
         d="m 210.9,749.93 c -2,12.7 -2.11,23.4 -0.93,36.14 -3.02,-10.65 -2.89,-25.76 0.93,-36.14 z"
         fill="#26635e"
         id="path29" /><path
         d="m 320.21,848.22 c -12.13,6.01 -37.86,6.94 -50.38,1.95 18.64,3.06 32.09,2.54 50.38,-1.95 z"
         fill="#398684"
         id="path30" /><path
         d="m 606.17,855.11 c -6.78,2.33 -14.23,3.68 -21.4,3.76 6.91,-1.83 14.26,-3.31 21.4,-3.76 z"
         fill="#39767d"
         id="path31" /><path
         d="m 485.77,861.16 c 19.1,0.3 40.43,3.49 59.47,1.11 8.73,0.08 17.32,-1.17 25.99,-1.11 -27.39,4.02 -58.07,4.02 -85.46,0 z"
         fill="#346f73"
         id="path32" /></g></g></svg>
