<?xml version="1.0" encoding="UTF-8" standalone="no"?>
<!-- Created with Inkscape (http://www.inkscape.org/) -->

<svg
   width="512"
   height="512"
   viewBox="0 0 512 512"
   version="1.1"
   id="svg1"
   xml:space="preserve"
   inkscape:version="1.3.2 (091e20e, 2023-11-25)"
   sodipodi:docname="IRWTlogo.svg"
   xmlns:inkscape="http://www.inkscape.org/namespaces/inkscape"
   xmlns:sodipodi="http://sodipodi.sourceforge.net/DTD/sodipodi-0.dtd"
   xmlns="http://www.w3.org/2000/svg"
   xmlns:svg="http://www.w3.org/2000/svg"><sodipodi:namedview
     id="namedview1"
     pagecolor="#505050"
     bordercolor="#eeeeee"
     borderopacity="1"
     inkscape:showpageshadow="0"
     inkscape:pageopacity="0"
     inkscape:pagecheckerboard="0"
     inkscape:deskcolor="#505050"
     inkscape:document-units="px"
     inkscape:zoom="0.4609375"
     inkscape:cx="137.76271"
     inkscape:cy="138.84746"
     inkscape:window-width="1312"
     inkscape:window-height="449"
     inkscape:window-x="0"
     inkscape:window-y="25"
     inkscape:window-maximized="0"
     inkscape:current-layer="layer1" /><defs
     id="defs1" /><g
     inkscape:label="Layer 1"
     inkscape:groupmode="layer"
     id="layer1"><g
       id="g1"
       transform="matrix(0.50005114,0,0,0.50005114,1.0581766,0.1203801)"><path
         d="m 485.01,31.15 c 16.26,-1.24 32.7,-0.75 49,-0.47 16.9,0.94 33.77,2.7 50.55,4.96 13.66,2.52 27.39,5.07 40.92,8.21 27.03,6.55 53.61,15.46 79.11,26.57 10.41,4.31 20.38,9.65 30.51,14.57 10.52,5.63 20.8,11.72 31.03,17.86 25.21,15.98 49.79,33.98 71.56,54.45 11.23,10.4 22.3,21.11 32.34,32.68 55.39,61.29 94.58,136.93 112.16,217.69 7.55,33.88 11.47,68.62 11.46,103.33 0.36,65.8 -13.41,131.81 -39.37,192.25 -10.6,23.91 -22.85,47.05 -36.95,69.08 -16.88,25.63 -35.6,49.99 -56.87,72.14 -24.56,25.66 -52.04,48.65 -81.51,68.48 -12.42,8.48 -25.71,15.79 -38.76,23.25 -13.01,6.88 -26.26,13.31 -39.74,19.22 -13.89,5.81 -28.13,11 -42.43,15.7 -8.83,3.09 -17.85,5.39 -26.93,7.61 -13.94,3.63 -28.14,6.32 -42.3,8.9 -15.5,2.17 -30.52,4.45 -46.17,5.02 -12.15,1.09 -24.42,0.93 -36.62,0.95 -35.95,-0.11 -71.67,-5 -106.64,-13.23 -18.68,-4.38 -37.01,-10.04 -54.99,-16.74 -16.47,-5.53 -31.92,-13.01 -47.51,-20.6 -14.65,-7.01 -28.88,-15.66 -42.8,-24.1 -11.02,-7.17 -21.92,-14.65 -32.39,-22.59 -57.46,-43.48 -105,-99.82 -138,-163.88 -8.64,-17.09 -16.89,-34.83 -23.29,-52.89 -4.63,-12.58 -9,-25.3 -12.49,-38.24 C 38.85,607.75 32.79,573.77 31.12,539 c -1.13,-15.27 -0.77,-30.7 -0.51,-46 0.71,-10.95 1.15,-21.86 2.47,-32.76 2.7,-25.81 7.91,-51.59 14.54,-76.66 8.02,-28.13 18.16,-55.79 31.1,-82.04 13.35,-27.76 29.68,-54.05 48.06,-78.76 6.56,-8.41 13.19,-16.77 20.07,-24.92 11.45,-13.19 23.51,-25.8 36.23,-37.76 12.1,-10.86 24.4,-21.89 37.48,-31.54 10.87,-8.22 22.03,-16.07 33.45,-23.52 15.38,-9.61 31.19,-18.53 47.54,-26.39 14.57,-7.44 29.68,-13.45 45.01,-19.11 28.71,-11.06 58.29,-17.88 88.52,-23.22 16.42,-2.46 33.33,-4.85 49.93,-5.17 z"
         fill="#000000"
         id="path2" /><path
         d="m 589.89,201.03 c 1.83,0.82 3.91,1.66 5.37,3.07 0.67,8.28 -0.06,16.68 0.39,25 2.65,0.43 5.28,0.95 7.91,1.52 0.12,23.8 -0.03,47.6 0.09,71.4 -0.02,1.98 -0.01,4.03 -0.31,5.98 -1.33,2.22 -4.11,1.38 -6.31,1.63 -5.33,-0.11 -10.75,0.29 -16.06,-0.28 -2.04,-1.5 -1.33,-4.09 -1.54,-6.31 0.15,-24.09 -0.06,-48.19 0.11,-72.28 2.64,-0.56 5.26,-1.13 7.91,-1.62 0.3,-7.07 0.01,-14.14 0.17,-21.21 0.05,-2.59 1.16,-4.63 2.27,-6.9 z"
         fill="#5c9bc0"
         id="path3" /><path
         d="m 589.57,204.48 c 1.32,0 2.64,-0.01 3.95,0 0.09,7.99 0.14,15.99 -0.09,23.98 -1.27,0 -2.53,0 -3.8,0 -0.16,-7.99 -0.13,-15.98 -0.06,-23.98 z"
         fill="#ffffff"
         id="path4" /><path
         d="m 524.36,208.61 c 0.11,55.25 0.13,110.51 -0.01,165.76 -8.01,0.1 -16.01,0.09 -24.02,0.03 -1.12,-6.17 -0.7,-12.17 -0.72,-18.4 0.03,-45.33 0,-90.66 -0.01,-136 0,-3.75 -0.07,-7.54 0.15,-11.29 8.19,-0.36 16.41,-0.15 24.61,-0.1 z"
         fill="#5c9bc0"
         id="path5" /><path
         d="m 542.48,211.78 c 5.61,-0.42 12.45,-0.43 18.05,0 3.41,0.49 3.77,3.18 3.92,6.11 0.04,34.3 -0.02,68.91 0.04,103.2 -0.07,2.12 -0.12,4.08 -1.29,5.95 -2.68,1.47 -5.75,2.23 -8.58,3.38 -0.89,-0.6 -1.77,-1.21 -2.69,-1.77 -1.11,0.63 -2.21,1.3 -3.31,1.96 -2.94,-1.36 -5.98,-2.43 -9.05,-3.44 -0.21,-36.41 -0.02,-72.82 -0.13,-109.23 0.13,-2.77 -0.28,-5.32 3.04,-6.16 z"
         fill="#5c9bc0"
         id="path6" /><path
         d="m 475.46,217.5 c 0.92,12.41 -0.54,24.44 0.99,36.86 2.5,0.82 5.31,1.36 7.58,2.71 1.32,1.13 1.29,3.27 1.36,4.86 -0.08,33.56 0.01,67.47 -0.03,101.05 0.26,2.79 -1.65,4.32 -4.29,4.47 -6.78,0.23 -13.69,0.33 -20.45,-0.4 -0.28,-4.38 -1.08,-8.64 -1.05,-13.05 0.01,-29.34 0.03,-58.69 -0.02,-88.02 -0.01,-3.11 0.45,-6.16 0.95,-9.22 2.51,-0.4 5.01,-0.87 7.51,-1.32 1.21,-11.75 0.04,-23.71 0.65,-35.49 0.39,-3.35 4.45,-2.49 6.8,-2.45 z"
         fill="#5c9bc0"
         id="path7" /><path
         d="m 472.04,217.99 c 3.64,6.27 2.1,12.12 2.37,19.01 -0.22,6.86 1.15,12.76 -2.37,19.07 -2.16,-6.36 -1.47,-12.51 -1.52,-19.07 0.06,-6.55 -0.65,-12.67 1.52,-19.01 z"
         fill="#ffffff"
         id="path8" /><path
         d="m 444.47,316.54 c 0.16,21.87 0.13,43.76 0.03,65.63 -7.95,0.51 -16.05,0.45 -24,-0.01 -0.14,-17.72 0,-35.44 -0.06,-53.15 0,-4.11 -0.08,-8.25 0.17,-12.36 7.94,-0.35 15.92,-0.15 23.86,-0.11 z"
         fill="#5c9bc0"
         id="path9" /><path
         d="m 551.93,328.65 c 0.92,0.56 1.8,1.17 2.69,1.77 -0.18,14.28 0.3,28.65 -0.23,42.9 -1.6,0.22 -3.24,0.28 -4.85,0.38 -0.66,-2.55 -1.11,-5 -1,-7.65 0.1,-11.81 -0.06,-23.63 0.08,-35.44 1.1,-0.66 2.2,-1.33 3.31,-1.96 z"
         fill="#ffffff"
         id="path10" /><path
         d="m 191.86,420.91 c 5.97,-0.7 12.12,-0.06 18.14,-0.29 7.5,-0.28 15.38,0.45 22.25,3.71 6.26,3.14 9.49,11.05 10.06,17.68 -0.14,4.03 -1.6,8.38 -3.69,11.84 -3.28,5.12 -8.17,7.23 -13.3,10.05 6.63,11.18 13.5,22.21 20.23,33.33 -3.79,0.75 -8.21,1.79 -12.03,0.86 -2.33,-0.74 -3.7,-3.49 -4.94,-5.43 -4.16,-7.43 -8.72,-14.61 -12.93,-22.01 -1.25,-2.06 -2.55,-4.37 -4.35,-6.01 -2.51,-0.58 -5.29,-0.3 -7.85,-0.32 -0.32,9.58 -0.05,19.17 -0.13,28.75 0.05,2.16 -1.03,5.84 -3.51,6.28 -2.85,0.19 -6.32,-0.41 -8.82,-1.82 -0.58,-3.07 -0.13,-6.39 -0.2,-9.51 0.01,-17.34 0.05,-34.68 0.02,-52.02 0,-4.9 -0.4,-10.36 1.05,-15.09 z"
         fill="#5c9bc0"
         id="path11" /><path
         d="m 346.33,420.5 c 4.26,-0.18 8.63,-0.21 12.87,0.21 4.9,1.17 9.78,4.33 13.26,7.93 0.91,3.55 -2.24,4.44 -4.51,6.33 -1.54,1.53 -3.22,-0.45 -4.58,-1.26 -3.86,-3.23 -9.13,-5.73 -14.25,-4.99 -3.36,0.77 -7.28,2.14 -9.65,4.76 -2.37,2.98 -3.5,6.59 -2.85,10.4 0.87,2.39 2.39,4.55 4.49,6.01 6.97,4.64 16.21,5.58 23.26,9.78 4.55,3.18 9.64,8.36 9.24,14.36 -0.06,4.6 0.71,8.77 -1.73,12.89 -5.88,11.33 -21.65,15.42 -32.99,10.61 6.13,0.15 12.87,0.71 18.84,-0.88 7.41,-1.99 13.52,-8.23 14.6,-15.94 0.51,-4.35 0.05,-9.22 -2.02,-13.14 -3.23,-5.54 -8.79,-8.26 -14.66,-10.2 -6.01,-2.1 -14.57,-4.09 -18.43,-9.55 -2.93,-5.04 -2.01,-13.12 2.9,-16.72 3.74,-3.31 9.1,-3.79 13.86,-3.28 4.97,0.55 9,3.63 13.07,6.26 1.45,-1.4 2.89,-2.79 4.33,-4.19 -3.48,-3.28 -7.03,-6.2 -11.74,-7.5 -8.72,-2.74 -19.76,-0.63 -26.27,5.97 -6.97,6.99 -7,19.33 0,26.25 7.34,6.71 19.83,7.39 27.24,12.78 3.72,2.71 4.95,7.18 4.69,11.61 -0.3,5.41 -4.72,10.11 -9.79,11.61 -4.14,1.24 -8.91,1.24 -13.04,-0.02 -4.09,-1.3 -6.5,-4.76 -9.84,-6.91 -2.09,-0.41 -4.56,2.05 -5.69,3.58 0.05,1.39 0.36,2.34 1.4,3.3 2.59,2.45 5.71,4.38 8.71,6.3 -5.38,-1.82 -9.16,-4.79 -12.78,-9.07 1.86,-1.81 3.77,-4.23 6.14,-5.29 3.73,-1 5.03,2.49 7.84,4.29 6.11,4.96 15.48,5.38 21.38,-0.14 3.63,-3.19 6.35,-8.32 3.9,-13.06 -2.54,-6.19 -9.27,-8.14 -15.04,-10.13 -7.5,-2.49 -15.49,-4.97 -19.52,-12.41 -2.05,-3.22 -1.53,-6.43 -1.66,-10.06 0.13,-2.94 -0.29,-5.81 1.27,-8.4 3.51,-6.76 10.28,-11.09 17.75,-12.09 z"
         fill="#ffffff"
         id="path12" /><path
         d="m 575.69,420.87 c 2.04,-0.34 4.19,-0.28 6.25,-0.28 12.68,0.15 25.39,-0.02 38.06,0.06 2.18,-0.09 3.72,0.93 4.29,3.03 0.39,2.5 0.21,5.35 -1.02,7.61 -1.94,1.14 -4,1.01 -6.18,1.07 -10.21,-0.02 -20.43,-0.18 -30.64,0.06 -0.13,6.7 -0.14,13.4 0.04,20.09 9.19,0.11 18.39,0.04 27.58,0 2.06,0.1 4.57,-0.17 6.29,1.16 1.3,1.66 1.19,4.02 1.09,6.02 -0.14,2.04 -1.22,4 -3.53,3.81 -10.47,0.17 -20.95,-0.13 -31.42,0.11 -0.2,7.93 -0.21,15.89 -0.02,23.82 12.66,0.26 25.33,-0.05 37.99,0.17 0.54,3.16 1.27,6 0.65,9.22 -2.67,1.24 -6.18,0.96 -9.08,1 -13.83,-0.22 -27.69,0.22 -41.51,-0.27 -0.15,-23.2 0.03,-46.41 -0.1,-69.61 0.03,-2.52 -0.05,-4.83 1.26,-7.07 z"
         fill="#5c9bc0"
         id="path13" /><path
         d="m 656.8,420.56 c 18.64,0.24 37.29,-0.05 55.94,0.12 1.62,3.17 1.8,6.11 1.73,9.6 -8.54,2.78 -17.17,0.1 -25.98,2.27 -0.04,20.17 -0.07,40.35 0.02,60.52 -0.14,1.85 0.17,3.7 -1.39,5.03 -2.61,0.51 -5.72,0.62 -8.29,-0.11 -1.93,-0.68 -2.14,-2.13 -2.15,-3.97 0.03,-20.54 0.13,-41.09 -0.04,-61.62 -5.57,-0.16 -11.14,-0.12 -16.71,-0.03 -2.53,-0.03 -4.87,0.11 -7.15,-1.18 -1.91,-2.72 -1.02,-6.74 -0.03,-9.65 0.86,-1.27 2.73,-0.86 4.05,-0.98 z"
         fill="#5c9bc0"
         id="path14" /><path
         d="m 885.99,420.46 c 3.34,-0.06 6.05,1.29 8.99,2.68 3.44,1.88 6.64,4.03 7.01,8.28 -1.93,1.56 -3.9,3.04 -5.91,4.49 -5.16,-4.11 -11.59,-9.01 -18.59,-6.81 -5.53,1.3 -11.59,5.54 -11.07,11.9 -0.66,4.75 2.66,8.01 6.44,10.19 6.58,3.39 14.39,4.65 20.89,8.23 4.69,2.99 8.49,7.43 9.61,13 0.35,2.98 0.34,6.18 0.04,9.17 -1.05,5.33 -3.99,10.18 -8.66,13.08 -6.86,4.24 -15.48,6.27 -23.33,3.76 -6.13,-1.65 -14.28,-5.13 -16.42,-11.69 2.3,-1.81 4.99,-5.51 8.3,-4.11 3.96,3.4 7.13,6.95 12.66,7.81 3.01,0.11 6.66,0.45 9.38,-1.01 3.27,-1.58 6.33,-4.3 7.81,-7.66 0.95,-4.77 0.97,-9.47 -3.1,-12.82 -7.43,-5.91 -18.89,-5.83 -26.6,-12.42 -3.78,-2.98 -5.72,-7.04 -6.82,-11.64 2.25,4.09 4.99,8.83 8.87,11.56 7.36,5.09 17.76,5.93 24.89,11.17 5.74,4.25 6.41,13.11 1.59,18.32 -4.97,6.09 -13.25,6.85 -20.29,4.42 -3.96,-1.47 -7.13,-5.1 -10.28,-7.84 -1.67,1.76 -3.33,3.55 -4.98,5.33 2.9,2.88 5.61,5.6 9.42,7.26 7.02,3.1 15.35,3.72 22.67,1.28 5.06,-1.72 9.59,-5.02 11.85,-9.98 1.84,-4.12 2.17,-8.98 1.56,-13.41 -0.66,-5.18 -4.27,-9.53 -8.4,-12.46 -7.29,-4.14 -18.02,-5.03 -24.62,-10.46 -4.25,-3.32 -5.19,-9.34 -2.88,-14.08 2.78,-5.13 8.12,-8.3 13.97,-8.31 6.68,-0.31 11.63,3.37 17.17,6.46 1.4,-1.42 2.8,-2.85 4.19,-4.29 -3.23,-3.14 -6.52,-5.95 -10.91,-7.31 -8.24,-2.87 -17.33,-1.28 -24.59,3.35 -4.39,2.86 -7.09,8.6 -9.3,13.19 0.45,-3.31 1.39,-6.49 3.28,-9.28 2.9,-4.66 8.85,-7.45 13.95,-8.93 3.93,-0.85 8.2,-0.38 12.21,-0.42 z"
         fill="#ffffff"
         id="path15" /><path
         d="m 359.64,422.39 c 4.71,1.3 8.26,4.22 11.74,7.5 -1.44,1.4 -2.88,2.79 -4.33,4.19 -4.07,-2.63 -8.1,-5.71 -13.07,-6.26 -4.76,-0.51 -10.12,-0.03 -13.86,3.28 -4.91,3.6 -5.83,11.68 -2.9,16.72 3.86,5.46 12.42,7.45 18.43,9.55 5.87,1.94 11.43,4.66 14.66,10.2 2.07,3.92 2.53,8.79 2.02,13.14 -1.08,7.71 -7.19,13.95 -14.6,15.94 -5.97,1.59 -12.71,1.03 -18.84,0.88 -0.63,-0.2 -1.24,-0.43 -1.84,-0.67 -3,-1.92 -6.12,-3.85 -8.71,-6.3 -1.04,-0.96 -1.35,-1.91 -1.4,-3.3 1.13,-1.53 3.6,-3.99 5.69,-3.58 3.34,2.15 5.75,5.61 9.84,6.91 4.13,1.26 8.9,1.26 13.04,0.02 5.07,-1.5 9.49,-6.2 9.79,-11.61 0.26,-4.43 -0.97,-8.9 -4.69,-11.61 -7.41,-5.39 -19.9,-6.07 -27.24,-12.78 -7,-6.92 -6.97,-19.26 0,-26.25 6.51,-6.6 17.55,-8.71 26.27,-5.97 z"
         fill="#ffffff"
         id="path16" /><path
         d="m 404.93,420.56 c 4.32,-0.18 8.74,-0.31 13.05,0.09 4.44,1.01 8.8,3.94 12.66,6.27 -0.11,1.83 0.43,4.24 -0.44,5.89 -1.49,1.4 -2.86,3.11 -5.12,2.71 -2.79,-1.81 -5.03,-4.22 -8.12,-5.74 -3.88,-0.7 -8.11,-0.48 -12.03,-0.13 -3.49,1.09 -6.53,3.74 -8.22,6.96 -0.52,2.73 -0.49,6.18 -0.02,8.92 2.19,5.3 7.49,6.51 12.36,8.39 7.51,2.57 16.42,4.8 21.18,11.75 3.49,4.5 2.27,10.04 2.4,15.43 0.17,5 -3.04,8.9 -6.55,12.05 -3.8,3.24 -8.95,5.73 -14.02,5.52 -3.98,0 -8.12,0.24 -12.05,-0.42 -6.53,-1.92 -12.49,-5.19 -15.95,-11.29 1.75,-1.39 3.49,-2.84 5.37,-4.06 1.35,-0.87 2.81,-0.79 3.98,0.35 3.01,2.3 5.41,4.82 8.97,6.37 2.23,1.16 5.22,0.9 7.69,0.9 7.81,0.1 14.92,-7.75 13.29,-15.56 -0.96,-3.16 -2.64,-6.01 -5.66,-7.57 -8.13,-4.45 -19.12,-5.51 -26.16,-11.93 -5.64,-5.65 -5.88,-12.91 -4.64,-20.35 2.69,-7.97 9.97,-13.11 18.03,-14.55 z"
         fill="#ffffff"
         id="path17" /><path
         d="m 794.51,421.56 c 0.23,15.16 -0.01,30.34 0.11,45.5 0.28,5.67 1.51,12.52 5.33,16.95 5.85,6.66 17.1,7.6 23.91,1.87 4.25,-3.65 6.66,-9.35 6.7,-14.91 0.19,-15.29 -0.23,-30.68 0.18,-45.94 0.34,-5.32 6.96,-5.11 10.51,-3.26 1.35,2.66 1.13,5.31 1.19,8.19 -0.17,12.36 -0.1,24.7 -0.07,37.05 0.21,11.31 -3.59,23.56 -14.02,29.39 -9.97,5.65 -23.07,5.22 -32.64,-1.11 -7.95,-5.39 -12.3,-15.84 -12.13,-25.26 0,-12.01 0.06,-24.02 0,-36.02 -0.01,-4.26 -0.2,-8.36 0.8,-12.55 3.48,-0.92 6.66,-0.52 10.13,0.1 z"
         fill="#5c9bc0"
         id="path18" /><path
         d="m 890.44,422.55 c 4.39,1.36 7.68,4.17 10.91,7.31 -1.39,1.44 -2.79,2.87 -4.19,4.29 -5.54,-3.09 -10.49,-6.77 -17.17,-6.46 -5.85,0.01 -11.19,3.18 -13.97,8.31 -2.31,4.74 -1.37,10.76 2.88,14.08 6.6,5.43 17.33,6.32 24.62,10.46 4.13,2.93 7.74,7.28 8.4,12.46 0.61,4.43 0.28,9.29 -1.56,13.41 -2.26,4.96 -6.79,8.26 -11.85,9.98 -7.32,2.44 -15.65,1.82 -22.67,-1.28 -3.81,-1.66 -6.52,-4.38 -9.42,-7.26 1.65,-1.78 3.31,-3.57 4.98,-5.33 3.15,2.74 6.32,6.37 10.28,7.84 7.04,2.43 15.32,1.67 20.29,-4.42 4.82,-5.21 4.15,-14.07 -1.59,-18.32 -7.13,-5.24 -17.53,-6.08 -24.89,-11.17 -3.88,-2.73 -6.62,-7.47 -8.87,-11.56 -0.21,-1.92 -0.21,-3.87 -0.07,-5.8 2.21,-4.59 4.91,-10.33 9.3,-13.19 7.26,-4.63 16.35,-6.22 24.59,-3.35 z"
         fill="#ffffff"
         id="path19" /><path
         d="m 66.5,422.36 c 0.51,2.51 0.97,5 0.9,7.58 -0.05,10.35 -0.04,20.7 -0.03,31.06 0.37,9.87 -1.89,19.05 -0.22,29.04 0.52,2.62 -0.24,4.92 -0.77,7.46 -2.95,-0.03 -5.91,-0.03 -8.87,-0.02 -0.1,-24.92 -0.18,-49.88 0.03,-74.79 3.47,-1.2 5.4,-1.4 8.96,-0.33 z"
         fill="#ffffff"
         id="path20" /><path
         d="m 95.95,421.67 c 1.85,0.93 3.04,2.63 4.21,4.27 7.45,11.2 14.9,22.41 22.61,33.44 4.6,6.52 8.24,13.12 13.43,18.93 0.5,-18.63 0.16,-37.31 0.21,-55.96 3.18,-0.84 6.33,-1.39 9.63,-0.84 2.15,1.68 1.47,5.01 1.66,7.46 -0.2,22.82 0.06,45.64 -0.13,68.46 -3.23,0.59 -7.1,1.46 -10.34,0.66 -2.66,-0.68 -4.24,-3.56 -5.73,-5.67 -4.36,-6.91 -9.19,-13.5 -13.65,-20.34 -4.12,-6.43 -8.8,-12.26 -12.03,-19.23 3.05,2.92 5.49,6.04 7.73,9.62 4.64,7.27 9.81,14.17 14.45,21.44 2.2,3.34 4.43,7.04 7.33,9.82 2.41,2.81 6.87,1.79 10.21,2.04 0.16,-24.11 0.15,-48.24 0.02,-72.35 -2.09,-0.02 -4.18,-0.04 -6.27,-0.05 -0.21,15.88 -0.07,31.77 -0.03,47.65 -0.01,3.21 -0.29,6.4 -0.57,9.59 -1.42,-0.05 -2.84,-0.09 -4.26,-0.13 -10.79,-17.63 -23.12,-34.16 -34.37,-51.49 -1.32,-1.87 -2.72,-4.14 -4.66,-5.41 -2.7,-0.96 -5.95,-0.76 -8.78,-0.86 -0.56,15.41 -0.1,30.86 -0.24,46.28 0.09,9.17 -0.21,18.37 0.23,27.53 2.32,-0.15 4.64,-0.32 6.96,-0.53 1.38,-10.52 0.54,-21.38 0.76,-32 0.03,-6.72 0.24,-13.39 -0.51,-20.08 -0.36,-2.64 0.85,-4.56 1.95,-6.83 2.03,2.47 3.9,5.03 5.24,7.95 l 0.31,1.84 c -1.87,-2.04 -3.68,-4.15 -5.54,-6.2 -0.37,19.21 0.16,38.44 -0.31,57.65 -3.34,0.02 -6.68,0.06 -10.03,0.16 -0.69,-2.79 -1.08,-5.54 -1.03,-8.43 0.12,-22.49 -0.05,-44.99 0.09,-67.48 3.54,-1.55 7.7,-1.63 11.45,-0.91 z"
         fill="#5c9bc0"
         id="path21" /><path
         d="m 264.2,422.57 c 0.48,3.08 0.22,6.31 0.27,9.42 0.04,13.03 -0.03,26.06 0.02,39.08 0.22,4.49 2.13,9.92 5,13.42 6.27,7.58 19.26,8.24 26.12,1.13 4.88,-4.39 6.09,-11.34 6.71,-17.56 0.12,-15.21 -0.04,-30.44 0.08,-45.66 3.05,-0.01 6.11,0.01 9.16,0.05 0.1,15.87 0.01,31.73 0.03,47.6 0.23,5.7 -1.47,11.52 -4.05,16.56 -6.21,10.52 -19.37,14.79 -30.95,12.26 -6.13,-1.5 -12.58,-4.79 -16.35,-10 -3.35,-4.89 -4.97,-11.04 -5.64,-16.85 -0.14,-13.66 0.01,-27.35 -0.09,-41.02 0.04,-2.95 -0.18,-5.75 0.62,-8.59 3.01,-0.06 6.07,-0.14 9.07,0.16 z"
         fill="#ffffff"
         id="path22" /><path
         d="m 711.28,422.82 c 0.07,2.22 0.13,4.43 0.19,6.65 -8.25,0.42 -16.48,-0.16 -24.69,0.58 -0.61,22.09 0.14,44.23 -0.36,66.33 -2.58,0.06 -5.16,0.1 -7.74,0.15 -0.02,-19.19 -0.05,-38.39 0.03,-57.58 0.03,-3.16 -0.43,-6.21 -1.2,-9.27 -7.71,0.02 -15.43,0.07 -23.15,-0.15 0.11,-2.22 0.18,-4.4 0.41,-6.61 18.82,-0.25 37.68,-0.12 56.51,-0.1 z"
         fill="#ffffff"
         id="path23" /><path
         d="m 722.12,422.57 c 6.6,-0.42 13.26,-0.03 19.88,-0.17 5.99,0.15 11.26,-0.61 16.9,1.88 4.97,1.91 9,5.69 10.52,10.88 0.41,3.26 0.3,6.61 0.29,9.9 -0.12,2.19 0.08,4.5 -1.06,6.45 -3.2,6.06 -8.89,9.31 -15.38,10.88 3.84,7.95 9.11,15.2 13.54,22.9 2.37,4.01 5.08,7.47 6.24,12.09 -3.4,0.11 -6.81,0.09 -10.21,0.11 -7.59,-10.84 -13.47,-22.87 -20.67,-33.98 -3.07,-0.03 -6.21,-0.24 -9.27,0.08 -1.04,0.87 -1.5,1.99 -1.37,3.37 -0.06,10.15 0.06,20.31 -0.05,30.47 -3,0.02 -6,0.06 -9,0.08 -0.42,-1.82 -0.92,-3.58 -0.91,-5.46 -0.01,-21.71 0.04,-43.43 -0.03,-65.13 0.05,-1.4 -0.06,-3.08 0.58,-4.35 z"
         fill="#ffffff"
         id="path24" /><path
         d="m 909.93,421.53 c 4.32,-0.44 8.73,-0.14 13.07,-0.21 11.68,0.12 23.35,0.07 35.03,0 3.3,-0.05 6.46,0.21 9.67,1.03 -0.41,2.55 0.88,7.49 -1.76,8.95 -7.37,0.81 -14.95,-0.05 -22.38,0.34 -0.39,14.77 -0.09,29.58 -0.17,44.36 -0.08,7.19 0.27,14.48 -0.37,21.64 -2.84,0.42 -6,1.03 -8.86,0.66 -2.45,-1.47 -2.61,-3.62 -2.62,-6.22 0.03,-19.93 0.07,-39.87 -0.01,-59.8 -7.62,-1.34 -15.69,-0.45 -23.45,-0.73 -0.41,-2.35 -0.87,-4.88 -0.6,-7.27 0.01,-1.39 1.02,-2.68 2.45,-2.75 z"
         fill="#5c9bc0"
         id="path25" /><path
         d="m 86.62,422.72 c 2.83,0.1 6.08,-0.1 8.78,0.86 1.94,1.27 3.34,3.54 4.66,5.41 11.25,17.33 23.58,33.86 34.37,51.49 1.42,0.04 2.84,0.08 4.26,0.13 0.28,-3.19 0.56,-6.38 0.57,-9.59 -0.04,-15.88 -0.18,-31.77 0.03,-47.65 2.09,0.01 4.18,0.03 6.27,0.05 0.13,24.11 0.14,48.24 -0.02,72.35 -3.34,-0.25 -7.8,0.77 -10.21,-2.04 -2.9,-2.78 -5.13,-6.48 -7.33,-9.82 -4.64,-7.27 -9.81,-14.17 -14.45,-21.44 -2.24,-3.58 -4.68,-6.7 -7.73,-9.62 -1.7,-2.56 -3.4,-5.07 -4.81,-7.81 -1.34,-2.92 -3.21,-5.48 -5.24,-7.95 -1.1,2.27 -2.31,4.19 -1.95,6.83 0.75,6.69 0.54,13.36 0.51,20.08 -0.22,10.62 0.62,21.48 -0.76,32 -2.32,0.21 -4.64,0.38 -6.96,0.53 -0.44,-9.16 -0.14,-18.36 -0.23,-27.53 0.14,-15.42 -0.32,-30.87 0.24,-46.28 z"
         fill="#ffffff"
         id="path26" /><path
         d="m 194.07,423.53 c 7.1,-0.58 14.31,-0.06 21.44,-0.24 6.9,-0.1 13.94,1.16 19.09,6.11 6.16,5.48 6.48,15.93 2.65,22.77 -2.62,5.51 -10.07,7.37 -15.01,10.64 6.1,11.28 13.59,21.75 19.77,32.99 -2.7,0.39 -5.92,1.5 -8.28,-0.45 -1.98,-1.67 -3.38,-4.19 -4.72,-6.38 -4.02,-6.97 -8.28,-13.81 -12.21,-20.83 -1.43,-2.31 -3.12,-5.43 -5.9,-6.22 -2.9,-0.66 -6.34,-0.4 -9.01,0.95 -1.45,1.42 -1.19,4.18 -1.29,6.04 0.13,8.89 0.2,17.76 0.05,26.65 -2.14,0.08 -4.29,0.16 -6.43,0.24 -1.44,-7.4 -0.66,-15.44 -0.76,-23.09 -0.16,-13.91 0.04,-27.83 -0.12,-41.74 0.03,-2.43 0.02,-5.11 0.73,-7.44 z"
         fill="#ffffff"
         id="path27" /><path
         d="m 310.52,423.19 c 0.75,10.63 0.12,21.15 0.32,31.81 -0.03,7.32 0.6,15.53 -1.26,22.63 -1.96,7.56 -6.54,14.8 -13.99,17.9 -5.43,2.05 -11.87,1.88 -17.57,1.31 -7.98,-0.85 -15.33,-5.78 -18.65,-13.16 -2.91,-6.29 -2.43,-13.91 -2.42,-20.68 0.24,-12.96 -0.24,-25.93 0.21,-38.88 1.89,-0.01 3.79,-0.02 5.68,-0.02 0.42,14.64 0.05,29.3 0.1,43.94 0.11,5.17 0.41,10.24 3.33,14.69 2.69,4.02 6.83,7.56 11.74,8.31 4.36,0.67 9.07,0.59 13.29,-0.79 5.06,-1.78 8.29,-6.12 10.08,-11.02 2.88,-7.92 1.57,-17.86 1.77,-26.23 0.27,-9.82 -0.6,-19.77 0.42,-29.53 2.32,-0.17 4.62,-0.22 6.95,-0.28 z"
         fill="#ffffff"
         id="path28" /><path
         d="m 466.2,422.43 c 3.07,-0.05 6.13,-0.04 9.19,-0.02 4.46,14.47 8.5,29.07 12.7,43.62 1.31,4.07 2.6,8.03 2.75,12.35 1.13,0.05 2.25,0.1 3.38,0.16 1.12,-6.6 3.23,-12.81 5.14,-19.19 1.55,-5.68 3.25,-11.31 4.91,-16.96 1.9,-6.67 3.66,-13.56 6.21,-20.01 3.56,0.02 7.12,0.01 10.68,0.11 3.42,12.29 7.07,24.53 10.53,36.81 1.71,6.09 3.82,12.13 5.09,18.32 1.14,-0.04 2.28,-0.09 3.41,-0.13 0.53,-4.81 2.07,-9.2 3.32,-13.84 2.43,-8.32 4.65,-16.7 7.11,-25.02 1.62,-5.46 2.78,-10.94 4.91,-16.24 3.11,0.01 6.22,0.02 9.33,0.08 -0.2,1.77 -0.32,3.65 -0.79,5.37 -6.22,20.57 -12.34,41.19 -18.24,61.85 -0.77,2.55 -1.61,5.26 -2.9,7.59 -2.85,0.37 -5.98,0.37 -8.83,0 -2.06,-1.54 -2.56,-4.77 -3.31,-7.1 -4.74,-16.97 -9.88,-33.8 -14.7,-50.73 -0.39,0.08 -0.79,0.17 -1.18,0.25 -2.54,7.43 -4.51,15.02 -6.68,22.56 -3.74,11.67 -6.44,23.81 -10.84,35.25 -3.13,-0.05 -6.31,0.1 -9.43,-0.21 -0.68,-1.23 -1.24,-2.52 -1.69,-3.84 -6.5,-21.04 -12.24,-42.3 -18.86,-63.29 -0.87,-2.52 -1.03,-5.11 -1.21,-7.74 z"
         fill="#ffffff"
         id="path29" /><path
         d="m 577.06,423.55 c 2.6,-0.33 5.31,-0.3 7.93,-0.29 12.27,0.08 24.55,-0.04 36.83,0.12 -0.05,2.08 -0.1,4.15 -0.14,6.23 -12.3,0.25 -24.63,-0.21 -36.92,0.19 -0.77,8.17 -0.54,16.49 -0.24,24.68 8.16,0.24 16.32,0.12 24.49,0.07 3.74,-0.05 7.37,0.33 11.05,1.03 -1.01,2.37 -0.5,6.1 -4.03,5.81 -10.75,0.35 -21.53,-0.24 -32.28,0.28 0.1,8.13 -0.23,16.3 0.03,24.41 0.25,2.99 3.83,3.29 6.16,3.41 10.88,0.15 21.77,-0.15 32.65,0.08 0.01,2.3 0.01,4.6 0,6.9 -15.22,0.17 -30.45,0 -45.67,0.08 -0.37,-3.52 -0.56,-7.02 -0.55,-10.55 0.1,-18.69 0.07,-37.37 0,-56.06 0.05,-2.17 0.09,-4.29 0.69,-6.39 z"
         fill="#ffffff"
         id="path30" /><path
         d="m 793.16,423.48 c 0.35,15.85 0,31.72 0.19,47.57 -0.04,6.7 3.02,14.03 8.81,17.69 5.07,3.04 11.88,3.29 17.48,1.74 6.85,-1.75 11.56,-9.14 12.7,-15.75 0.69,-7.19 0.13,-14.51 0.29,-21.73 0.18,-9.92 -0.41,-19.93 0.45,-29.82 2.43,0.13 4.86,0.27 7.3,0.45 0.05,14.45 0.07,28.91 0.06,43.37 -0.08,5.94 -0.69,12.61 -3.44,17.97 -2.56,5.13 -7.4,8.5 -12.49,10.81 -4.57,2.14 -10.04,2.1 -14.99,1.92 -7.11,-0.13 -14.35,-4.11 -18.46,-9.86 -4.05,-6.08 -5.95,-13.55 -5.68,-20.83 0.19,-14.47 -0.17,-28.96 0.18,-43.42 2.53,-0.18 5.06,-0.16 7.6,-0.11 z"
         fill="#ffffff"
         id="path31" /><path
         d="m 909.56,423.44 c 8.15,-0.2 16.29,-0.1 24.44,-0.1 10.6,0.07 21.23,-0.25 31.82,0.21 -0.42,2.03 -0.87,4.06 -1.34,6.08 -5.52,0.03 -11.04,0.03 -16.56,-0.05 -2.19,0.04 -4.4,-0.09 -6.38,0.96 -1.48,3.02 -0.79,7.17 -0.92,10.46 0.03,18.47 0.26,36.96 -0.14,55.43 -1.99,0.05 -3.99,0.1 -5.99,0.15 -1.43,-8.32 -0.68,-16.15 -0.83,-24.58 -0.14,-14.09 0.27,-28.21 -0.24,-42.3 -7.95,-0.11 -15.9,0.03 -23.85,-0.13 -0.01,-2.04 -0.02,-4.09 -0.01,-6.13 z"
         fill="#ffffff"
         id="path32" /><path
         d="m 202.98,430.68 c 7.09,-0.1 15.96,-1.28 22.32,2.2 2.44,1.5 5.54,3.88 5.26,7.09 -0.06,2.79 0.76,7.09 -1.53,9.14 -3.22,3.86 -8.07,5.36 -12.98,5.36 -4.34,0.01 -8.74,0.26 -13.06,-0.16 l -1.24,-1.39 c -0.36,-3.27 -0.12,-6.63 -0.17,-9.92 0.35,-3.82 -1.1,-9.18 1.4,-12.32 z"
         fill="#000000"
         id="path33" /><path
         d="m 737.94,430.47 c 4.7,0.14 8.86,-0.47 13.35,1.12 4.06,1.21 7.87,2.9 9.09,7.35 0.28,4.07 0.85,8.06 -2.39,11.14 -3.37,3.08 -8.47,4.56 -12.96,4.41 -4,-0.05 -8.06,0.22 -12.05,-0.13 l -1.32,-1.32 c -0.33,-3.66 -0.09,-7.37 -0.14,-11.04 0.06,-3.31 -0.23,-6.73 0.25,-10.02 1.57,-2.11 3.86,-1.3 6.17,-1.51 z"
         fill="#000000"
         id="path34" /><path
         d="m 92.94,519.74 c 11.4,-1.38 24.31,2.57 32.18,11.15 1.82,1.64 2.3,4.84 0.37,6.56 -2.16,2.13 -4.78,4.04 -7.58,5.22 -3.69,-1.87 -6.21,-5.65 -9.93,-7.64 -5.07,-2.55 -11.01,-3.18 -16.49,-1.64 -6.98,1.52 -12.95,6.52 -16.73,12.44 -8,13.17 -4.04,32.02 9.2,40.22 6.11,3.84 13.09,4.19 20.04,3.08 6.63,-1.41 10.65,-6.09 15.11,-10.75 3.01,1.9 8.48,3.9 9.64,7.54 -1.32,3.44 -4.32,6.39 -7.12,8.7 -5.09,4.07 -11.57,7.32 -18.14,7.85 -7.18,0.3 -13.99,0.53 -20.81,-2.16 -7.94,-3.06 -14.97,-8.18 -19.5,-15.47 -10,-15.56 -8.71,-38.04 3.83,-51.84 6.53,-7.5 16.19,-11.87 25.93,-13.26 z"
         fill="#5c9bc0"
         id="path35" /><path
         d="m 917.38,520.48 c 15.66,-3.7 33.72,2.95 42.74,16.42 3.63,5.3 6.49,11.6 7.21,18.03 0.45,6.42 0.42,12.7 -1.53,18.89 -2.66,9.46 -8.69,17.74 -17.07,22.92 -7.1,4.58 -15.37,6.3 -23.75,5.88 -16.18,0.64 -31.51,-10.52 -37.19,-25.45 -3.29,-7.15 -2.49,-16.01 -2.19,-23.78 1.08,-6.89 5.22,-15.66 10.01,-20.78 5.88,-5.93 13.56,-10.42 21.77,-12.13 z"
         fill="#5c9bc0"
         id="path36" /><path
         d="m 402.92,521.48 c 1.62,0.13 3.09,0.01 4.31,1.27 2.78,2.92 4.67,6.81 6.81,10.21 4.29,6.82 8.19,13.67 13.02,20.09 5.2,-6.6 9.36,-14.05 13.89,-21.13 2.16,-3.29 4.05,-7.34 7.05,-9.92 2.49,-0.8 5.42,-0.5 8.02,-0.58 2.33,0.17 4.84,-0.35 6.54,1.6 -2,4.94 -5.81,9.38 -8.69,13.87 -4.85,7.47 -9.72,14.93 -14.76,22.27 -2.52,3.83 -5.59,7.98 -5.57,12.75 -0.07,9.56 0.06,19.13 -0.05,28.69 -4.61,0.9 -8.46,0.97 -13.09,0.1 -0.11,-9.59 0.08,-19.2 -0.03,-28.79 -0.05,-5.53 -3.64,-9.39 -6.46,-13.8 -5.93,-9.07 -11.82,-18.16 -17.93,-27.1 -2.02,-2.91 -3.68,-5.97 -5.12,-9.2 4.01,-0.27 8.04,-0.43 12.06,-0.33 z"
         fill="#5c9bc0"
         id="path37" /><path
         d="m 592.03,521.51 c 7.03,-0.26 14.88,1.61 20.43,6.09 4.31,3.48 5.87,8.43 6.97,13.65 1.1,6 -0.32,12.29 -4.18,17.05 -3.53,4.45 -8.69,6.79 -14.09,8.14 -6.3,1.67 -12.45,0.45 -18.92,1.54 0.07,8.02 -0.07,16.03 0.08,24.05 0,3.19 0.21,6.08 -1.2,9.04 -2.33,0.44 -4.79,0.4 -7.15,0.41 -2.26,-0.12 -4.29,0.25 -6.13,-1.31 -0.3,-1.35 -0.35,-2.73 -0.38,-4.1 0.1,-19.69 0.04,-39.38 0.06,-59.07 0.03,-5.09 -0.2,-10.24 0.16,-15.32 8.1,-0.37 16.24,-0.05 24.35,-0.17 z"
         fill="#5c9bc0"
         id="path38" /><path
         d="m 784.37,521.58 c 0.04,4.08 0.03,8.16 0.08,12.24 -7.33,1.28 -14.56,0.16 -21.85,0.78 -3.15,0.15 -2.72,4.07 -3.01,6.32 0,19.92 0.1,39.86 -0.02,59.78 -4.65,0.83 -8.49,0.82 -13.13,-0.03 -0.62,-3.89 -1.05,-7.74 -0.56,-11.68 0.91,-7.68 0.58,-15.31 -0.15,-22.98 -0.26,-10.41 0.06,-20.84 -0.16,-31.25 -8.6,-0.84 -16.49,0.64 -24.72,-1.37 0.67,-3.9 0.6,-7.8 0.9,-11.72 20.85,-0.33 41.76,-0.09 62.62,-0.09 z"
         fill="#5c9bc0"
         id="path39" /><path
         d="m 246.98,521.48 c 10.33,0.4 19.62,-1.15 29.15,2.15 7.13,2.24 13.03,7.83 14.22,15.41 0.58,5.82 0.65,11.4 -2.72,16.44 -3.08,5.09 -7.73,7.22 -12.62,10.15 4.93,12.26 14.79,22.48 19.65,34.69 -4.25,0.91 -9.12,1.77 -13.38,0.5 -2.32,-0.55 -3.84,-3.21 -5.07,-5.07 -4.44,-7.6 -8.85,-15.21 -13.26,-22.82 -1.16,-1.79 -2.52,-4.3 -4.52,-5.24 -1.94,-0.37 -3.97,-0.37 -5.94,-0.49 -1.66,11.01 -0.5,22.41 -0.92,33.54 -4.64,0.94 -8.57,0.74 -13.16,-0.29 -0.08,-22.15 0.01,-44.3 -0.05,-66.45 0.03,-3.65 -0.24,-7.41 0.25,-11.03 1.78,-2.19 5.83,-1.28 8.37,-1.49 z"
         fill="#5c9bc0"
         id="path40" /><path
         d="m 920.34,533.29 c 10.08,-2.58 21.25,1.65 27.28,10.09 7.73,10.13 7.68,25.25 0.3,35.54 -4.22,5.74 -10.86,10.39 -18.17,10.62 -4.62,0.14 -9.47,0.38 -13.79,-1.48 -9.08,-3.61 -15.58,-12.95 -16.42,-22.58 -0.26,-5.29 -0.41,-10.36 1.6,-15.36 3.06,-8.16 10.5,-15.21 19.2,-16.83 z"
         fill="#000000"
         id="path41" /><path
         d="m 582.45,534.68 c 4.12,-0.47 8.36,-0.39 12.5,-0.16 2.83,0.29 6.27,1.11 8.36,3.15 3.38,3.96 3.3,12.08 -1.99,14.47 -6.27,2.65 -13.18,3.02 -19.74,1.27 0.32,-6.06 -0.95,-12.91 0.87,-18.73 z"
         fill="#000000"
         id="path42" /><path
         d="m 252.89,534.63 c 6.34,-0.3 15.25,-1.24 20.61,2.76 5.35,4.02 3.72,12.46 -2.25,15 -5.66,2.15 -12.71,0.83 -18.71,1.16 -1,-5.98 -1.78,-13.12 0.35,-18.92 z"
         fill="#000000"
         id="path43" /><path
         d="m 585.36,697.97 c 3.45,-0.21 7.09,2.03 10.46,2.35 3.06,-0.44 5.97,-1.49 9.11,-1.61 6.88,-0.24 13.7,-0.33 20.48,1.07 0.02,1.19 0.03,2.39 0.05,3.59 -3.79,1.34 -7.64,1.91 -11.64,2.19 -1.39,8.19 -2.88,16.39 -4.51,24.54 -0.46,1.56 -0.75,3.91 -2.39,4.66 -1.75,1.31 -4.5,0.03 -5.58,-1.58 -0.3,-3.24 0.95,-6.78 1.53,-9.97 1.12,-5.83 2.24,-11.68 3.01,-17.57 -2.77,-0.48 -5.55,-1.09 -8.34,-1.35 -2.68,-0.25 -5.23,0.62 -7.96,0.86 -2.47,0.21 -4.96,0.23 -7.43,0.34 0.09,1.83 0.1,3.72 0.43,5.53 2.43,2.31 5.75,3.83 7.97,6.3 2.83,3.44 3.1,8.5 0.72,12.26 -1.93,3.16 -5.11,4.69 -8.63,5.42 -4.6,1.11 -8.85,-0.56 -13.22,-1.79 0.28,-1.67 -0.04,-4.23 1.31,-5.44 3.52,-0.89 7.46,1.57 11.12,0.65 1.57,-1.09 2.73,-2.51 2.96,-4.46 -2.43,-4.52 -9.11,-6.66 -10.96,-11.44 -0.9,-3.6 -0.32,-7.63 2.28,-10.42 2.28,-2.45 6.01,-3.63 9.23,-4.13 z"
         fill="#5c9bc0"
         id="path44" /><path
         d="m 651.02,700.01 c 0.35,1.77 0.36,3.64 0.47,5.44 -3.47,-0.15 -6.96,-0.89 -10.43,-0.78 -4.08,0.31 -7.53,3.44 -9.72,6.69 -2.27,3.2 -2.28,7.77 -1.69,11.49 0.75,2.71 3.29,5.76 6.33,5.71 3.49,0.21 7.01,-0.09 10.5,-0.13 0.01,1.64 0.02,3.28 0.02,4.92 -4.71,0.96 -9.79,2.83 -14.5,1.32 -3.43,-0.9 -6.99,-2.16 -8.56,-5.63 -2.61,-6.62 -2.64,-14.83 0.85,-21.15 5.44,-8.5 17.52,-12.5 26.73,-7.88 z"
         fill="#5c9bc0"
         id="path45" /><path
         d="m 707.61,697.46 c -0.46,2.56 -0.7,5.02 -2.13,7.26 -3.26,5.09 -8.02,9.72 -10.97,15.09 -2.31,4.04 -1.57,9.56 -3.33,13.51 -2.63,2.01 -4.89,0.73 -7.67,0.02 1.72,-5.9 3.32,-12.6 1.1,-18.57 -1.8,-5.03 -3.63,-9.98 -4.46,-15.28 1.97,-0.28 4.04,-0.76 6.03,-0.66 2.65,3.48 3.61,8.26 5.53,12.18 2.54,-3.32 4.57,-7.02 7.16,-10.29 1.83,-2.51 5.95,-2.58 8.74,-3.26 z"
         fill="#5c9bc0"
         id="path46" /><path
         d="m 824.13,697.64 c 3.18,0.16 6.37,1.64 9.41,2.56 -0.09,1.44 -0.18,2.89 -0.26,4.34 -4.01,0.29 -8.19,-0.28 -12.14,0.45 -5.25,1.47 -9.34,6.81 -10.26,12.08 -0.71,4 0.77,9.43 4.8,11.2 3.9,0.81 8.17,0.19 12.14,0.22 -0.05,1.76 -0.11,3.53 -0.16,5.29 -4.83,0.92 -8.93,2.42 -13.84,0.91 -4.98,-1.08 -9.28,-4.53 -10.13,-9.74 -1.08,-7.27 0.26,-14.54 5.08,-20.23 3.89,-4.43 9.72,-6.23 15.36,-7.08 z"
         fill="#5c9bc0"
         id="path47" /><path
         d="m 129.58,701.35 c 0.53,5.97 -0.2,12 0.29,17.99 2.97,-2.98 4.81,-6.15 6.3,-10.07 1.43,-3.19 2.83,-7.64 5.76,-9.74 1.77,-0.25 3.6,-0.26 5.39,-0.33 1.23,6.6 0.97,13.22 1.59,19.86 3.63,-6.23 5.41,-13.8 9.72,-19.52 1.95,-0.31 4.06,-0.11 6.02,-0.03 -2.25,8.45 -6.13,15.64 -9.79,23.61 -1.59,3.24 -2.94,6.81 -5.07,9.73 -1.71,2.67 -7.12,2.29 -7.61,-1.18 -1.23,-5.29 -0.04,-10.78 -1.63,-16.1 -2.07,4.02 -3.84,8.17 -5.63,12.31 -0.91,1.94 -1.88,4.3 -3.54,5.72 -2.64,1.94 -6.91,0.71 -6.87,-2.99 -0.29,-8.56 -0.8,-17.11 -1.84,-25.62 0.06,-2 -0.85,-3.9 1.22,-5.11 1.62,-0.95 5.66,-1.32 5.69,1.47 z"
         fill="#5c9bc0"
         id="path48" /><path
         d="m 234.52,699.84 c -0.12,6.31 0.06,12.45 1.41,18.64 2.4,-4.61 4.19,-9.47 6.36,-14.18 1.07,-2.12 2.32,-4.63 4.61,-5.63 1.54,0.33 3.02,0.83 4.52,1.32 -2.4,7.99 -6.58,14.84 -9.82,22.48 -1.68,3.61 -3.03,7.65 -5.35,10.9 -2.23,0.48 -4.63,0.41 -6.9,0.47 -1.19,-6.34 -0.71,-12.6 -1.24,-18.99 -3.72,5.46 -5.53,11.81 -8.88,17.42 -1.94,3.16 -4.76,1.85 -7.82,1.85 -1.41,-8.03 -0.37,-16.06 -1.4,-24.11 -0.42,-3.44 -0.5,-6.9 -0.6,-10.36 2.06,0.06 5.36,-0.98 6.76,0.92 1.69,5.01 1.18,11.07 1.28,16.33 0.77,-0.14 1.54,-0.27 2.31,-0.41 2.42,-5.78 4.61,-11.83 7.82,-17.23 2.33,0.06 4.64,0.29 6.94,0.58 z"
         fill="#5c9bc0"
         id="path49" /><path
         d="m 282.02,698.49 c 2.43,0.34 3.98,1.27 5.08,3.51 2.8,5.65 4.65,11.79 7.18,17.58 1.1,-3.1 2.02,-6.24 2.53,-9.5 0.65,-3.43 0.91,-7.5 2.95,-10.43 1.83,-0.86 4.18,0.19 6.03,0.62 -2.49,11.18 -3.93,22.59 -6.92,33.63 -2.07,-0.05 -4.29,0.06 -6.32,-0.4 -3.92,-6.03 -5,-13.54 -8.78,-19.76 -2.54,6.2 -2.28,13.14 -4.78,19.24 -1.51,2.68 -3.92,0.84 -6.19,0.51 1.21,-9.89 3.33,-19.58 5.31,-29.35 0.49,-2.59 1.41,-4.48 3.91,-5.65 z"
         fill="#5c9bc0"
         id="path50" /><path
         d="m 439.99,698.41 c 2.19,0.65 4.08,1.68 4.34,4.18 0.4,5.02 0.01,10.07 0.68,15.1 4.51,-5.37 5.51,-12.69 9.86,-17.98 2.09,-0.58 4.78,-1.16 5.91,1.26 -0.61,4.03 -3.35,7.95 -5.58,11.27 1.16,-4.1 2.51,-7.97 2.36,-12.31 -5.74,6.01 -7.77,15.22 -11.78,22.59 -0.97,0.05 -1.94,0.1 -2.91,0.15 -0.64,-7.16 -0.17,-14.31 -1.04,-21.45 -1.23,0.04 -2.45,0.09 -3.68,0.13 -2.74,5.3 -4.98,10.72 -8.41,15.65 1.52,-5.22 3.3,-10.39 6.15,-15.07 1.02,-1.65 2.29,-2.78 4.1,-3.52 z"
         fill="#5c9bc0"
         id="path51" /><path
         d="m 479.02,699.59 c 2.96,0.12 5.42,1.36 8.33,0.9 7.85,-1.75 16.28,-0.6 24.31,-0.95 -0.04,1.64 -0.08,3.28 -0.13,4.92 -3.02,-0.02 -6.05,0.01 -9.08,0.01 -2.85,9.48 -3.59,19.45 -6.17,29.03 -1.68,0.01 -3.37,0.02 -5.05,0.03 0.67,-9.71 4.29,-19.09 4.42,-28.8 -4.95,-0.12 -8.47,-2.19 -13.25,-0.95 -3.67,0.92 -7.29,0.7 -11.04,0.71 -0.85,3 -0.97,6.03 -1.05,9.12 3.41,0.03 6.82,0.04 10.23,0.02 0.01,1.6 0,3.21 -0.01,4.82 -3.79,0.01 -7.59,0.01 -11.38,-0.04 -1.62,3.65 -1.93,6.92 -1.86,10.87 4.06,0.27 8.09,0.23 12.16,0.22 0.01,1.34 0.03,2.68 0.05,4.01 -6.42,0.12 -12.84,0.13 -19.25,-0.03 0.79,-6.22 2.01,-12.38 3.15,-18.54 0.79,-5.16 1.9,-10.28 3.42,-15.26 4.04,-0.2 8.16,-0.2 12.2,-0.09 z"
         fill="#ffffff"
         id="path52" /><path
         d="m 882.09,702.19 c 1.1,6 1.04,12.16 2.43,18.15 3.35,-4.16 5.69,-8.84 8.05,-13.59 1.59,-2.99 3.33,-6.6 6.44,-8.26 1.99,0.14 3.99,1.23 5.82,2 -0.75,6.18 -2.01,12.35 -2.43,18.53 -0.4,5.06 -1.04,10.01 -3.03,14.72 -0.29,-11.12 3.25,-21.7 2.86,-32.88 -1.18,-0.12 -2.37,-0.24 -3.55,-0.36 -5.26,7.07 -8.66,14.87 -12.43,22.76 -0.93,0.18 -1.86,0.37 -2.79,0.55 -1.34,-7.77 -2.35,-15.6 -3.83,-23.35 -1.47,0.39 -3.36,0.55 -4.58,1.51 -1.08,2.18 -1.57,4.72 -2.18,7.07 -1.9,7.96 -4.25,15.68 -5.78,23.72 1.07,-0.13 2.13,-0.25 3.2,-0.37 2.24,-7.94 2.7,-15.03 6.78,-21.73 2.77,7.84 1.58,15.54 5.61,23.03 5.66,-7.2 8.59,-15.79 13.79,-23.24 2.35,6.68 0.5,12.56 -1.93,18.85 -0.04,-4.31 0.5,-8.55 0.85,-12.84 -3.73,4.86 -5.79,10.64 -9.19,15.66 -0.96,1.9 -4.11,1.49 -5.93,1.98 -1.92,-6.26 -2.58,-12.66 -3.26,-19.13 -2.4,6.57 -3.51,13.48 -6.3,19.87 -2.13,-0.51 -4.24,-1.07 -6.36,-1.65 3.4,-9.7 5.39,-19.63 8.17,-29.43 0.65,-1.74 1.02,-3.91 2.96,-4.65 2.78,-1.39 6.07,-0.13 6.61,3.08 z"
         fill="#5c9bc0"
         id="path53" /><path
         d="m 162.45,699.64 c -0.58,5.76 -3.47,9.92 -5.88,15.03 -2.55,4.91 -4.32,10.2 -6.97,15.05 -1.09,2.15 -3.12,2.71 -5.1,3.82 -1.26,-7.67 -0.44,-15.37 -1.46,-23.04 -1.79,1.53 -3.55,2.74 -4.59,4.93 -2.83,5.5 -4.65,13.67 -9.57,17.66 l -1.47,-0.35 c -2.13,-4.67 -1.82,-10.85 -2.19,-15.91 -0.42,-5.25 -0.68,-10.46 -0.23,-15.72 1.15,0.16 2.29,0.33 3.44,0.5 1.16,7.65 0.54,15.26 1.21,22.92 7.15,-6.95 7.33,-18.15 14.41,-24.46 4.14,6.49 0.47,16.46 3.84,22.9 7.02,-5.65 6.38,-19.01 14.56,-23.33 z"
         fill="#ffffff"
         id="path54" /><path
         d="m 172.46,699.49 c 0.1,7.74 -0.05,15.22 1.31,22.88 2.03,-3.85 4.11,-7.67 5.83,-11.67 1.69,-3.65 3.09,-7.9 5.53,-11.07 1.89,-0.25 3.52,0.33 5.33,0.76 0.25,6.45 -0.61,13.26 1.09,19.37 0.6,-0.09 1.2,-0.19 1.8,-0.28 1.78,-4.48 3.8,-8.86 5.68,-13.3 1.06,-2.29 2.14,-4.94 4.14,-6.56 1.46,-0.49 2.66,-0.1 3.57,1.15 -0.23,2.77 -1.74,5.47 -2.91,7.98 -4.08,8.16 -7.34,16.68 -11.63,24.74 -1.88,0.03 -3.76,0.05 -5.65,0.08 0.1,-7.13 -1.35,-14.05 -1.24,-21.2 -4.79,6.37 -6.89,14.42 -11.08,21.24 -1.89,-0.06 -3.79,-0.13 -5.69,-0.2 0.12,-4.21 -0.3,-8.24 -0.88,-12.39 -0.14,-6.72 -0.4,-13.49 -0.15,-20.21 1.39,-1.76 2.99,-1.12 4.95,-1.32 z"
         fill="#ffffff"
         id="path55" /><path
         d="m 267.89,699.5 c 0.98,0.4 1.95,0.81 2.92,1.23 -2.09,10.92 -3.95,21.98 -6.5,32.8 -1.68,-0.01 -3.35,-0.02 -5.03,-0.04 0.88,-10.97 4.12,-21.76 5.56,-32.67 1.01,-0.47 2.02,-0.91 3.05,-1.32 z"
         fill="#ffffff"
         id="path56" /><path
         d="m 312.7,700.66 c 4.61,-0.69 9.7,-0.54 14.33,-0.06 4.44,2.27 5.51,6.58 3.88,11.06 -1.35,2.19 -3.11,4.16 -4.73,6.17 1.25,5.31 1.55,10.3 1.52,15.73 -1.71,-0.03 -3.42,-0.05 -5.13,-0.07 -0.27,-4.29 0.37,-11 -3.72,-13.71 -1.31,-0.23 -2.64,-0.41 -3.97,-0.53 -1.09,4.76 -2.61,9.27 -2.63,14.22 -1.65,0.04 -3.3,0.08 -4.95,0.12 0.08,-3.62 -0.03,-7 0.81,-10.55 1.69,-7.4 2.55,-15.07 4.59,-22.38 z"
         fill="#ffffff"
         id="path57" /><path
         d="m 344.73,700.19 c 0.3,7.58 -2.15,14.47 -3.2,21.84 -0.46,2.97 0.95,5.05 2.19,7.58 2.87,-0.29 6.13,0.82 8.15,-1.71 3.22,-3.43 3.48,-7.46 4.33,-11.85 0.79,-5.27 2.5,-10.17 2.47,-15.56 1.71,-0.08 3.42,-0.16 5.12,-0.23 -0.02,5.15 -0.67,9.98 -1.8,14.99 -1.18,5.09 -1.51,10.52 -4.98,14.68 -3.36,4.23 -9,5.12 -14.07,4.33 -3.58,-1.07 -6.93,-4.11 -6.56,-8.14 -0.74,-8.94 2.36,-16.75 3.4,-25.49 1.65,-0.2 3.29,-0.31 4.95,-0.44 z"
         fill="#ffffff"
         id="path58" /><path
         d="m 388.52,700.03 c 0.01,1.52 0.01,3.04 0.03,4.55 -3.5,-0.06 -7.1,-0.39 -10.58,-0.02 -2.69,1.58 -2.45,3.71 -2.65,6.46 3.37,2.28 7.59,4.33 10.13,7.56 1.43,1.61 1.04,3.43 1.15,5.43 0.36,4.04 -2.66,8.37 -6.58,9.4 -4.33,0.52 -8.81,0.14 -13.17,0.1 -0.56,-1.45 -1.12,-2.9 -1.67,-4.36 4.17,-1.81 9.47,2.28 13.31,-0.49 2.64,-1.8 1.87,-4.07 2.23,-6.84 -3.42,-2.9 -8.2,-5.29 -10.61,-9.1 -1.38,-3.6 -0.82,-7.75 2.3,-10.32 3.83,-4.34 11,-2.98 16.11,-2.37 z"
         fill="#ffffff"
         id="path59" /><path
         d="m 401.93,699.63 c 3.93,-0.43 7.9,-0.38 11.71,0.76 -0.09,1.41 -0.19,2.82 -0.28,4.23 -4.11,-0.14 -7.92,-0.66 -11.93,0.58 -0.04,2.09 -0.08,4.18 -0.12,6.27 3.25,2.41 7.27,4.54 9.82,7.69 0.7,2.16 0.48,4.71 0.41,6.95 0.04,3.09 -3.01,5.88 -5.61,7.12 -4.66,0.87 -9.72,0.32 -14.45,0.21 0.01,-1.74 0.01,-3.47 0.02,-5.21 3.5,0.69 6.74,1.88 10.35,1.14 1.32,-0.57 2.6,-1.33 3.86,-2.04 -0.1,-2.02 0.02,-4.17 -0.45,-6.15 -3.48,-3.33 -8.26,-4.78 -10.55,-9.21 -1.49,-5.73 2.11,-10.31 7.22,-12.34 z"
         fill="#ffffff"
         id="path60" /><path
         d="m 420.96,699.17 c 1.53,0.48 3.06,0.98 4.58,1.49 0.18,7.32 -0.54,14.39 1.26,21.58 0.94,-1.77 1.94,-3.5 2.94,-5.24 3.43,-4.93 5.67,-10.35 8.41,-15.65 1.23,-0.04 2.45,-0.09 3.68,-0.13 0.87,7.14 0.4,14.29 1.04,21.45 0.97,-0.05 1.94,-0.1 2.91,-0.15 4.01,-7.37 6.04,-16.58 11.78,-22.59 0.15,4.34 -1.2,8.21 -2.36,12.31 -3.43,7.04 -6.56,14.22 -9.97,21.26 -1.87,0.03 -3.74,0.05 -5.61,0.08 -0.14,-2.87 -0.53,-5.7 -0.9,-8.54 -0.33,-4.45 -0.1,-8.91 -0.36,-13.37 -4.49,6.93 -7.04,14.71 -11.12,21.89 -1.85,-0.01 -3.69,-0.02 -5.54,-0.03 -0.28,-4.56 -1.4,-8.92 -1.15,-13.52 0.22,-6.88 -0.82,-14.06 0.41,-20.84 z"
         fill="#ffffff"
         id="path61" /><path
         d="m 517.77,700.78 c 2.66,-1.57 5.33,-1.26 8.29,-1.31 3.21,-0.14 6.72,1.13 8.91,3.52 2.02,2.07 1.72,5.23 1.29,7.85 -1.33,2.48 -3.32,4.39 -4.76,6.72 -0.37,1.8 0.09,3.85 0.39,5.64 0.76,3.48 0.65,6.8 0.79,10.35 -1.67,-0.02 -3.34,-0.03 -5.02,-0.03 -0.65,-4.25 -1.27,-8.42 -1.34,-12.73 -2.18,-0.54 -4.34,-1.12 -6.54,-1.6 -1.06,4.82 -2.07,9.65 -3.38,14.41 -1.7,-0.06 -3.39,-0.12 -5.09,-0.18 0.77,-6.73 2.68,-13.23 3.48,-19.96 0.78,-4.21 1.38,-8.69 2.98,-12.68 z"
         fill="#ffffff"
         id="path62" /><path
         d="m 549.72,700.21 c 0.16,7.25 -1.88,13.72 -3.09,20.78 -0.53,2.99 0.27,5.62 1.11,8.45 2.2,0.06 4.49,0.28 6.66,-0.01 2.77,-1.81 4.89,-4.45 5.49,-7.76 1.44,-6.93 2.79,-13.98 3.85,-20.98 1.61,-0.47 3.21,-0.97 4.82,-1.45 0.63,7.9 -1.44,14.96 -3.02,22.61 -1.1,4.74 -3.16,9.03 -7.59,11.47 -4.02,0.55 -8.77,0.63 -12.78,-0.01 -1.76,-1.61 -4,-3.56 -3.79,-6.17 -0.83,-9.28 1.89,-17.55 3.39,-26.57 1.65,-0.18 3.29,-0.26 4.95,-0.36 z"
         fill="#ffffff"
         id="path63" /><path
         d="m 591.36,700.46 c 0.17,1.02 0.35,2.04 0.52,3.06 -2.48,-0.41 -5.23,-1.15 -7.74,-0.83 -2.56,1.05 -5.13,3.23 -4.8,6.29 -0.09,2.28 1.59,3.28 3.08,4.66 2.53,2.13 6.27,4.14 7.76,7.15 1.77,4.45 -0.91,9.29 -5.04,11.23 -4.41,2.13 -8.47,1.08 -13,0.2 0.21,-0.87 0.42,-1.75 0.64,-2.62 2.58,0.69 5.38,1.67 8.07,1.58 3.73,-1.32 7.12,-5.05 5.47,-9.23 -2.37,-3.87 -8.07,-5.88 -10.26,-10.01 -1.73,-3.77 0.5,-8.84 4.28,-10.43 3.22,-1.51 7.53,-1.04 11.02,-1.05 z"
         fill="#ffffff"
         id="path64" /><path
         d="m 648.32,700.55 c 0.17,0.97 0.34,1.94 0.51,2.91 -3.9,-0.67 -7.32,-1.62 -11.17,-0.04 -6.96,2.31 -10.68,9.56 -10.37,16.6 -0.14,4.08 1.36,7.79 5.08,9.75 3.87,2.17 7.39,1.23 11.51,0.71 -0.11,0.75 -0.22,1.5 -0.33,2.25 -3.39,0.34 -7.22,1 -10.6,0.34 -3.94,-0.82 -7.21,-3.43 -8.61,-7.24 -3.07,-8.72 0.86,-19.02 9.09,-23.33 4.84,-2.8 9.56,-2.08 14.89,-1.95 z"
         fill="#ffffff"
         id="path65" /><path
         d="m 674.1,702.85 c 2.28,1.84 1.56,6.05 1.29,8.63 -1.18,2.39 -3.39,4.33 -4.98,6.46 1.07,5.24 2.46,10.16 2.18,15.59 -2.01,-0.02 -4.01,-0.04 -6.02,-0.06 -0.05,-3.08 0.09,-6.22 -0.31,-9.27 -1.14,-2.83 -2.88,-5.45 -6.37,-4.61 -2.45,3.97 -2.61,9.44 -3.6,13.97 -1.99,-0.03 -3.98,-0.08 -5.97,-0.14 1.09,-5.52 2.31,-11 3.59,-16.48 -0.64,5.34 -1.23,10.69 -1.84,16.04 1.09,-0.25 2.18,-0.5 3.26,-0.75 0.95,-4.19 1.63,-8.66 3.33,-12.62 2.36,-1.62 5.77,-1.02 7.01,1.67 1.54,3.55 1.88,7.74 2.52,11.54 0.95,0 1.89,0.01 2.84,0.01 -0.17,-4.37 -0.64,-8.72 -0.89,-13.09 -0.65,-4.26 4.35,-7.47 4.81,-11.76 0.05,-2.84 -1.92,-5.34 -4.65,-6.07 -4.13,-1.11 -8.65,-1.08 -12.9,-1.47 4.94,-1.43 13.07,-2.07 16.7,2.41 z"
         fill="#ffffff"
         id="path66" /><path
         d="m 716.86,699.51 c 4.47,-0.08 9.13,-0.39 12.58,2.99 4.5,5.15 1.3,14.58 -4.95,16.84 -3.18,1.61 -6.23,1 -9.59,1.54 -2.56,3.33 -2.43,8.67 -3.5,12.68 -1.72,-0.03 -3.44,-0.06 -5.16,-0.09 0.46,-6.91 2.45,-13.76 3.52,-20.62 0.72,-3.59 1.11,-7.46 2.41,-10.88 0.66,-2.11 2.74,-2.45 4.69,-2.46 z"
         fill="#ffffff"
         id="path67" /><path
         d="m 737.95,699.65 c 5.02,-0.21 10.05,-0.03 15.07,-0.12 2.62,-0.14 5,0.55 7.49,1.24 -0.84,1.21 -1.72,2.38 -2.65,3.51 -2.72,0.32 -5.5,0.18 -8.23,0.24 -2.64,9.57 -3.18,19.64 -6.18,29.07 -1.4,-0.02 -2.8,-0.05 -4.2,-0.07 -0.28,-9.92 3.1,-18.91 4.33,-28.51 -2.4,-0.84 -5.28,-0.47 -7.79,-0.55 -0.56,-0.97 -1.11,-1.95 -1.66,-2.92 1.15,-0.7 2.44,-1.86 3.82,-1.89 z"
         fill="#ffffff"
         id="path68" /><path
         d="m 769.58,700.6 c 1.4,-0.68 2.73,-1.11 4.3,-1.13 4.23,-0.07 7.96,-0.62 11.47,2.24 4.49,3.38 4.38,8.2 4.27,13.31 0.54,7.24 -3.82,15.43 -10.66,18.29 -3.63,0.57 -7.4,0.45 -11.07,0.32 -3.64,0.21 -6.81,-3.61 -8.16,-6.64 -0.58,-4.11 -0.62,-9.91 -0.03,-14.02 1.67,-4.86 5.07,-10.15 9.88,-12.37 z"
         fill="#ffffff"
         id="path69" /><path
         d="m 831.72,701.6 c -3.99,2.64 -7.75,0.3 -12.04,1.93 -6.93,2.33 -10.68,9.44 -10.32,16.51 -0.13,4.03 1.47,7.57 5.04,9.58 4.05,2.46 8.59,1.04 13.06,0.97 -6.04,4.64 -16.78,3.8 -20.36,-3.51 -4.33,-9.08 0.37,-21.28 9.63,-25.22 4.86,-2.24 10,-1.81 14.99,-0.26 z"
         fill="#ffffff"
         id="path70" /><path
         d="m 845.25,699.94 c 5.16,-0.75 12.09,-1.71 15.67,3.06 3.89,4.15 2.52,8.87 2.7,14.09 0.16,4.53 -2.27,9.07 -5.15,12.43 -4.19,4.09 -10.78,6.02 -16.47,4.49 -3.79,-0.81 -7.36,-4.27 -8.4,-7.95 -0.31,-5.59 -1.04,-11.86 1.77,-16.85 1.98,-4.41 5.41,-7.49 9.88,-9.27 z"
         fill="#ffffff"
         id="path71" /><path
         d="m 212.91,699.64 c 4.79,7.77 0.75,16.07 3.96,24.88 5.87,-7.28 6.75,-16.66 12.83,-23.91 0.92,0.34 1.85,0.68 2.77,1.02 0.11,7.52 -0.26,14.74 1.85,22.07 2.32,-2.49 4.05,-5.08 5.22,-8.29 1.81,-4.91 3.86,-9.64 6.51,-14.16 1.07,0 2.13,0.01 3.2,0.01 -2.86,7.29 -6.34,14.28 -9.48,21.44 -1.62,3.72 -3.55,7.27 -5.57,10.78 -1.06,-0.2 -2.11,-0.41 -3.17,-0.61 -0.81,-7.21 -0.12,-14.38 -1.22,-21.56 -1.03,0.13 -2.06,0.26 -3.1,0.38 -2.42,5.57 -4.58,11.29 -7.27,16.73 -1.15,2.49 -3.2,3.87 -5.36,5.39 -2.06,-7.23 -1.48,-14.39 -2.33,-21.77 -0.45,-4.37 -0.22,-8.19 1.16,-12.4 z"
         fill="#ffffff"
         id="path72" /><path
         d="m 283.77,700.2 c 4.7,7.17 6.48,15.29 10.49,23.03 1.75,-2.59 3.23,-5.13 3.55,-8.3 0.72,-5.42 1.23,-10.5 4.35,-15.19 1.5,8.26 -1.34,14.93 -2.46,22.95 -0.88,4.04 -0.76,8.28 -4.65,10.72 -4.98,-6.3 -6.55,-15.1 -10.15,-22.3 -1.08,0.18 -2.15,0.36 -3.22,0.54 -1.11,7.01 -2.43,13.92 -4.07,20.83 -0.82,0.1 -1.64,0.2 -2.45,0.3 0.57,-9.19 2.36,-18.31 4.38,-27.28 0.78,-2.96 1.46,-3.93 4.23,-5.3 z"
         fill="#ffffff"
         id="path73" /><path
         d="m 467.68,701.62 c 4.86,-1.52 10.82,-0.62 15.79,0.02 -4.07,0.94 -8.43,1.2 -12.35,2.61 -2.37,2.07 -2.49,6.5 -2.07,9.38 3.19,1.42 7.06,1.71 10.5,2.21 -3.7,0.78 -7.9,0.93 -11.34,2.51 -3.07,3.6 -2.06,8.17 -1.43,12.42 3.95,0.08 7.87,0.35 11.78,0.93 -5.81,2.16 -11.39,1.3 -17.35,0.51 1.24,-7.14 2.49,-14.28 3.72,-21.42 0.59,-3.04 1.18,-6.47 2.75,-9.17 z"
         fill="#ffffff"
         id="path74" /><path
         d="m 488.6,701.32 c 7.59,-0.56 14.96,-0.59 22.55,0.01 -3.55,1.42 -9.92,1.62 -10.56,6.25 -2.1,8.16 -2.55,16.61 -5.11,24.7 -1.08,0.25 -2.16,0.5 -3.24,0.76 0.69,-6.03 1.78,-11.95 3.1,-17.87 0.57,-3.18 1.53,-6.97 0.72,-10.16 -2.14,-1.68 -4.97,-2.62 -7.46,-3.69 z"
         fill="#ffffff"
         id="path75" /><path
         d="m 622.58,701.12 c -3.07,1.33 -6.45,1.82 -9.48,3.18 -1.19,1.2 -1.63,3.25 -2.05,4.84 -1.45,6.73 -2.13,13.68 -3.82,20.36 -0.5,2 -2.17,2.78 -3.66,3.99 0.42,-9.51 3.58,-18.85 4.78,-28.24 -1.91,-2.53 -6.48,-2.72 -9.28,-3.72 7.68,-1.43 15.78,-1.31 23.51,-0.41 z"
         fill="#ffffff"
         id="path76" /><path
         d="m 657.4,700.44 c 4.25,0.39 8.77,0.36 12.9,1.47 2.73,0.73 4.7,3.23 4.65,6.07 -0.46,4.29 -5.46,7.5 -4.81,11.76 0.25,4.37 0.72,8.72 0.89,13.09 -0.95,0 -1.89,-0.01 -2.84,-0.01 -0.64,-3.8 -0.98,-7.99 -2.52,-11.54 -1.24,-2.69 -4.65,-3.29 -7.01,-1.67 -1.7,3.96 -2.38,8.43 -3.33,12.62 -1.08,0.25 -2.17,0.5 -3.26,0.75 0.61,-5.35 1.2,-10.7 1.84,-16.04 0.72,-5.62 1.57,-11.14 3.49,-16.5 z"
         fill="#ffffff"
         id="path77" /><path
         d="m 683.3,700.06 c 4.49,3.76 4.6,9.31 7.71,14.7 5.46,-5.01 6.64,-11.14 13.1,-14.14 -1.98,5.64 -5.79,9.65 -9.13,14.44 -3.59,4.9 -4.54,11.7 -6.17,17.52 -0.92,0.04 -1.84,0.08 -2.75,0.11 0.82,-5.73 2.89,-11.72 0.81,-17.41 -1.76,-5.09 -3.89,-9.66 -3.57,-15.22 z"
         fill="#ffffff"
         id="path78" /><path
         d="m 879.63,700.46 c 1.48,7.75 2.49,15.58 3.83,23.35 0.93,-0.18 1.86,-0.37 2.79,-0.55 3.77,-7.89 7.17,-15.69 12.43,-22.76 1.18,0.12 2.37,0.24 3.55,0.36 0.39,11.18 -3.15,21.76 -2.86,32.88 -1.58,-0.1 -3.15,-0.25 -4.72,-0.45 -0.12,-1.32 -0.15,-2.65 -0.11,-3.99 2.43,-6.29 4.28,-12.17 1.93,-18.85 -5.2,7.45 -8.13,16.04 -13.79,23.24 -4.03,-7.49 -2.84,-15.19 -5.61,-23.03 -4.08,6.7 -4.54,13.79 -6.78,21.73 -1.07,0.12 -2.13,0.24 -3.2,0.37 1.53,-8.04 3.88,-15.76 5.78,-23.72 0.61,-2.35 1.1,-4.89 2.18,-7.07 1.22,-0.96 3.11,-1.12 4.58,-1.51 z"
         fill="#ffffff"
         id="path79" /><path
         d="m 319.31,702.47 c 3.08,-0.41 7.9,1.99 7.44,5.63 0.44,4.17 -2.98,6.87 -6.47,8.22 -1.73,0.34 -3.79,1.03 -4.81,-0.9 -1.76,-1.96 -0.57,-5.63 0.01,-7.9 0.58,-1.72 1.65,-4.94 3.83,-5.05 z"
         fill="#5c9bc0"
         id="path80" /><path
         d="m 524.9,701.95 c 2.13,1.11 5.88,2.61 6.55,5.15 1.33,5.71 -5.61,10.68 -10.83,9.42 -0.86,-1.11 -1.24,-2.11 -1.24,-3.52 0.04,-4.44 2.09,-8.28 5.52,-11.05 z"
         fill="#5c9bc0"
         id="path81" /><path
         d="m 324.73,705.54 c -0.15,1.75 -0.2,3.56 -0.57,5.28 -1.55,2.35 -3.44,3.61 -6.27,3.91 -1.14,-2.83 -0.39,-6.48 0.12,-9.4 2.24,-0.03 4.48,0.08 6.72,0.21 z"
         fill="#000000"
         id="path82" /><path
         d="m 529,706.31 c 1.32,2.33 0.31,5.38 -1.75,6.96 -1.78,0.84 -3.9,1.17 -5.8,1.59 0.2,-2.84 0.17,-6.37 1.52,-8.96 1.28,-2.15 4.85,-1.46 6.03,0.41 z"
         fill="#000000"
         id="path83" /><path
         d="m 661.84,704.42 c 2.8,-0.12 5.14,0.11 7.8,1.03 -0.29,2.73 0.7,5.6 -1.59,7.57 -1.49,2.32 -5.39,1.38 -7.76,1.66 0.16,-3.5 0.74,-6.86 1.55,-10.26 z"
         fill="#000000"
         id="path84" /><path
         d="m 716.9,704.47 c 2.3,-0.07 4.71,-0.15 6.99,0.24 3.28,3.19 1.68,9.03 -2.28,10.91 -1.84,1.18 -4.11,0.83 -6.29,1.07 -0.05,-4.24 0.53,-8.12 1.58,-12.22 z"
         fill="#000000"
         id="path85" /><path
         d="m 781.24,704.52 c 0.96,2.07 2.42,4.07 2.42,6.37 0.06,4.29 0.48,8.52 -1.7,12.35 -2.05,3.67 -5.37,7.13 -9.97,6.45 -3.04,0.23 -4.91,-1.15 -6.4,-3.67 -0.46,-3.33 -0.38,-6.75 -0.27,-10.11 -0.1,-3.42 2.08,-6.82 4.21,-9.36 2.58,-3.37 7.97,-1.88 11.71,-2.03 z"
         fill="#000000"
         id="path86" /><path
         d="m 844.74,705.7 c 1.65,-1.61 4.16,-1.29 6.29,-1.38 1.95,0.19 3.75,-0.24 4.96,1.62 2.5,2.36 1.59,7 1.7,10.15 0.15,4.67 -2.16,8.93 -5.65,11.91 -2.17,2.29 -6.11,1.66 -8.96,1.39 -1.91,-1.18 -3.72,-2.85 -3.64,-5.27 -0.18,-3.66 -0.29,-7.41 0.2,-11.05 1.09,-2.74 2.85,-5.42 5.1,-7.37 z"
         fill="#000000"
         id="path87" /><path
         d="m 797.56,728.69 c 0.03,1.1 0,2.2 -0.07,3.29 -1.07,1.13 -2.25,2.06 -3.44,3.05 -1.3,-0.94 -2.59,-1.84 -3.76,-2.94 0.26,-1.27 0.61,-2.52 1.07,-3.75 2.09,-0.02 4.13,-0.02 6.2,0.35 z"
         fill="#ffffff"
         id="path88" /><path
         d="m 247.43,728.39 c 2.05,0 4.1,0.01 6.15,0.01 0,1.73 0.01,3.46 0.02,5.2 -2.08,0.02 -4.16,0.03 -6.24,0.04 0.03,-1.75 0.05,-3.5 0.07,-5.25 z"
         fill="#ffffff"
         id="path89" /></g></g></svg>
