<svg width="211" height="211" viewBox="0 0 211 211" fill="none" xmlns="http://www.w3.org/2000/svg">
<g filter="url(#filter0_b_441_3224)">
<rect width="100.131" height="100.119" rx="50.0595" transform="matrix(0.954092 -0.299514 0.299524 0.954089 43.0142 72.8921)" fill="url(#paint0_linear_441_3224)" fill-opacity="0.1"/>
<rect x="0.626808" y="0.327287" width="99.1311" height="99.1191" rx="49.5595" transform="matrix(0.954092 -0.299514 0.299524 0.954089 42.9449 73.0949)" stroke="url(#paint1_linear_441_3224)"/>
<g clip-path="url(#clip0_441_3224)">
<path d="M118.879 104.491C118.783 104.186 118.57 103.932 118.287 103.784C118.004 103.636 117.673 103.606 117.369 103.702L112.771 105.146C112.466 105.242 112.211 105.454 112.063 105.738C111.916 106.021 111.886 106.351 111.982 106.656L115.23 117.002L112.931 117.724L105.112 92.8175C104.761 91.7017 104.531 90.9793 104.294 90.4711C104.07 89.9941 103.912 89.872 103.798 89.812C103.683 89.7521 103.492 89.6924 102.973 89.7813C102.419 89.8778 101.696 90.1014 100.58 90.4517C99.4645 90.802 98.7421 91.0322 98.2339 91.2692C97.757 91.493 97.6348 91.6509 97.5749 91.7657C97.5149 91.8805 97.4552 92.071 97.5441 92.5903C97.6406 93.1442 97.8642 93.8671 98.2145 94.9829L106.034 119.889L103.735 120.611L98.0808 102.602C97.9851 102.297 97.7722 102.043 97.489 101.895C97.2057 101.747 96.8753 101.717 96.5704 101.813L91.9724 103.257C91.6675 103.352 91.4132 103.565 91.2653 103.849C91.1174 104.132 91.0881 104.462 91.1838 104.767L96.8378 122.776L94.1556 123.618C93.8508 123.714 93.5964 123.927 93.4485 124.21C93.3006 124.493 93.2713 124.824 93.367 125.129C93.4627 125.434 93.6756 125.688 93.9589 125.836C94.2421 125.984 94.5725 126.013 94.8774 125.917L125.531 116.293C125.836 116.198 126.09 115.985 126.238 115.701C126.386 115.418 126.415 115.088 126.32 114.783C126.224 114.478 126.011 114.224 125.728 114.076C125.445 113.928 125.114 113.899 124.809 113.994L122.127 114.836L118.879 104.491Z" fill="#F2F0E4"/>
</g>
</g>
<g filter="url(#filter1_b_441_3224)">
<rect x="0.626808" y="0.327287" width="131.886" height="131.87" rx="65.935" transform="matrix(0.954092 -0.299514 0.299524 0.954089 22.4144 62.3761)" stroke="url(#paint2_linear_441_3224)"/>
<g clip-path="url(#clip1_441_3224)">
<path d="M118.879 104.49C118.783 104.185 118.57 103.931 118.287 103.783C118.004 103.635 117.673 103.606 117.368 103.701L112.77 105.145C112.465 105.241 112.211 105.453 112.063 105.737C111.915 106.02 111.886 106.35 111.982 106.655L115.23 117.001L112.931 117.723L105.111 92.8165C104.761 91.7007 104.531 90.9783 104.294 90.4701C104.07 89.9932 103.912 89.871 103.797 89.8111C103.683 89.7511 103.492 89.6914 102.973 89.7803C102.419 89.8768 101.696 90.1004 100.58 90.4507C99.4643 90.801 98.7418 91.0312 98.2337 91.2682C97.7567 91.492 97.6345 91.6499 97.5746 91.7647C97.5147 91.8795 97.4549 92.07 97.5439 92.5893C97.6404 93.1433 97.8639 93.8661 98.2142 94.9819L106.034 119.888L103.735 120.61L98.0806 102.601C97.9849 102.296 97.772 102.042 97.4887 101.894C97.2055 101.746 96.8751 101.716 96.5702 101.812L91.9721 103.256C91.6673 103.351 91.4129 103.564 91.265 103.848C91.1171 104.131 91.0878 104.461 91.1835 104.766L96.8376 122.775L94.1554 123.617C93.8505 123.713 93.5961 123.926 93.4483 124.209C93.3004 124.492 93.271 124.823 93.3668 125.128C93.4625 125.433 93.6754 125.687 93.9586 125.835C94.2419 125.983 94.5723 126.012 94.8772 125.916L125.531 116.292C125.836 116.197 126.09 115.984 126.238 115.701C126.386 115.417 126.415 115.087 126.319 114.782C126.224 114.477 126.011 114.223 125.728 114.075C125.444 113.927 125.114 113.898 124.809 113.993L122.127 114.835L118.879 104.49Z" fill="#F2F0E4"/>
</g>
</g>
<g filter="url(#filter2_b_441_3224)">
<rect x="0.626808" y="0.327287" width="166.543" height="166.523" rx="83.2614" transform="matrix(0.954092 -0.299514 0.299524 0.954089 0.691854 51.0353)" stroke="url(#paint3_linear_441_3224)"/>
<g clip-path="url(#clip2_441_3224)">
<path d="M118.879 104.49C118.783 104.185 118.57 103.931 118.287 103.783C118.004 103.635 117.673 103.606 117.368 103.701L112.77 105.145C112.466 105.241 112.211 105.453 112.063 105.737C111.915 106.02 111.886 106.35 111.982 106.655L115.23 117.001L112.931 117.723L105.111 92.8165C104.761 91.7007 104.531 90.9783 104.294 90.4701C104.07 89.9932 103.912 89.871 103.797 89.8111C103.683 89.7511 103.492 89.6914 102.973 89.7803C102.419 89.8768 101.696 90.1004 100.58 90.4507C99.4644 90.801 98.742 91.0312 98.2338 91.2682C97.7568 91.492 97.6347 91.6499 97.5747 91.7647C97.5148 91.8795 97.4551 92.07 97.544 92.5893C97.6405 93.1433 97.8641 93.8661 98.2144 94.9819L106.034 119.888L103.735 120.61L98.0807 102.601C97.985 102.296 97.7721 102.042 97.4888 101.894C97.2056 101.746 96.8752 101.716 96.5703 101.812L91.9723 103.256C91.6674 103.351 91.413 103.564 91.2651 103.848C91.1173 104.131 91.0879 104.461 91.1837 104.766L96.8377 122.775L94.1555 123.617C93.8506 123.713 93.5963 123.926 93.4484 124.209C93.3005 124.492 93.2712 124.823 93.3669 125.128C93.4626 125.433 93.6755 125.687 93.9588 125.835C94.242 125.983 94.5724 126.012 94.8773 125.916L125.531 116.292C125.836 116.197 126.09 115.984 126.238 115.701C126.386 115.417 126.415 115.087 126.32 114.782C126.224 114.477 126.011 114.223 125.728 114.075C125.444 113.927 125.114 113.898 124.809 113.993L122.127 114.835L118.879 104.49Z" fill="#F2F0E4"/>
</g>
</g>
<defs>
<filter id="filter0_b_441_3224" x="31.8142" y="31.7014" width="147.922" height="147.913" filterUnits="userSpaceOnUse" color-interpolation-filters="sRGB">
<feFlood flood-opacity="0" result="BackgroundImageFix"/>
<feGaussianBlur in="BackgroundImageFix" stdDeviation="5.6"/>
<feComposite in2="SourceAlpha" operator="in" result="effect1_backgroundBlur_441_3224"/>
<feBlend mode="normal" in="SourceGraphic" in2="effect1_backgroundBlur_441_3224" result="shape"/>
</filter>
<filter id="filter1_b_441_3224" x="11.2836" y="11.1721" width="188.983" height="188.971" filterUnits="userSpaceOnUse" color-interpolation-filters="sRGB">
<feFlood flood-opacity="0" result="BackgroundImageFix"/>
<feGaussianBlur in="BackgroundImageFix" stdDeviation="5.6"/>
<feComposite in2="SourceAlpha" operator="in" result="effect1_backgroundBlur_441_3224"/>
<feBlend mode="normal" in="SourceGraphic" in2="effect1_backgroundBlur_441_3224" result="shape"/>
</filter>
<filter id="filter2_b_441_3224" x="-10.4389" y="-10.5491" width="232.428" height="232.413" filterUnits="userSpaceOnUse" color-interpolation-filters="sRGB">
<feFlood flood-opacity="0" result="BackgroundImageFix"/>
<feGaussianBlur in="BackgroundImageFix" stdDeviation="5.6"/>
<feComposite in2="SourceAlpha" operator="in" result="effect1_backgroundBlur_441_3224"/>
<feBlend mode="normal" in="SourceGraphic" in2="effect1_backgroundBlur_441_3224" result="shape"/>
</filter>
<linearGradient id="paint0_linear_441_3224" x1="-16.5395" y1="-94.7556" x2="73.2918" y2="126.05" gradientUnits="userSpaceOnUse">
<stop stop-color="white"/>
<stop offset="1" stop-color="#0E0E0F"/>
</linearGradient>
<linearGradient id="paint1_linear_441_3224" x1="60.0709" y1="-27.2285" x2="19.915" y2="176.917" gradientUnits="userSpaceOnUse">
<stop stop-color="#F2F0E4"/>
<stop offset="1" stop-color="#F2F0E4" stop-opacity="0"/>
</linearGradient>
<linearGradient id="paint2_linear_441_3224" x1="79.7212" y1="-36.1355" x2="26.4296" y2="234.79" gradientUnits="userSpaceOnUse">
<stop stop-color="#F2F0E4"/>
<stop offset="1" stop-color="#F2F0E4" stop-opacity="0"/>
</linearGradient>
<linearGradient id="paint3_linear_441_3224" x1="100.513" y1="-45.5597" x2="33.3225" y2="296.024" gradientUnits="userSpaceOnUse">
<stop stop-color="#F2F0E4"/>
<stop offset="1" stop-color="#F2F0E4" stop-opacity="0"/>
</linearGradient>
<clipPath id="clip0_441_3224">
<rect width="38.5547" height="38.5547" fill="white" transform="translate(81.6089 93.0405) rotate(-17.43)"/>
</clipPath>
<clipPath id="clip1_441_3224">
<rect width="38.5547" height="38.5547" fill="white" transform="translate(81.6086 93.0396) rotate(-17.43)"/>
</clipPath>
<clipPath id="clip2_441_3224">
<rect width="38.5547" height="38.5547" fill="white" transform="translate(81.6088 93.0396) rotate(-17.43)"/>
</clipPath>
</defs>
</svg>
