<svg width="250" height="64" viewBox="0 0 250 64" fill="none" xmlns="http://www.w3.org/2000/svg">
<g clip-path="url(#clip0_441_3504)">
<rect width="64" height="64" rx="32" fill="#0E0E0F"/>
<path fill-rule="evenodd" clip-rule="evenodd" d="M-57.3658 -20.6218V84.5285H-57.1658V84.4419H-51.2546V84.5285H-51.0546V84.4419H-45.0968V84.5285H-44.8968V84.4419H-38.9389V84.5285H-38.7389V84.4419H-32.781V84.5285H-32.581V84.4419H-26.6231V84.5285H-26.4231V84.4419H-20.4653V84.5285H-20.2653V84.4419H-14.3074V84.5285H-14.1074V84.4419H-8.14955V84.5285H-7.94955V84.4419H-1.99169V84.5285H-1.79169V84.4419H4.1662V84.5285H4.3662V84.4419H10.3241V84.5285H10.524V84.4419H16.4819V84.5285H16.6819V84.4419H22.6398V84.5285H22.8398V84.4419H28.7977V84.5285H28.9977V84.4419H34.9555V84.5285H35.1555V84.4419H41.1134V84.5285H41.3134V84.4419H47.2713V84.5285H47.4713V84.4419H53.4291V84.5285H53.6291V84.4419H59.587V84.5285H59.787V84.4419H65.7449V84.5285H65.9449V84.4419H71.9027V84.5285H72.1028V84.4419H78.0606V84.5285H78.2606V84.4419H84.2185V84.5285H84.4185V84.4419H90.3764V84.5285H90.5764V84.4419H96.5342V84.5285H96.7342V84.4419H102.692V84.5285H102.892V84.4419H108.85V84.5285H109.05V84.4419H115.008V84.5285H115.208V84.4419H121.166V84.5285H121.366V-20.6218H121.166V-20.4419L115.208 -20.4419V-20.6218H115.008V-20.4419L109.05 -20.4419V-20.6218H108.85V-20.4419L102.892 -20.4419V-20.6218H102.692V-20.4419L96.7342 -20.4419V-20.6218H96.5342V-20.4419L90.5764 -20.4419V-20.6218H90.3764V-20.4419L84.4185 -20.4419V-20.6218H84.2185V-20.4419L78.2606 -20.4419V-20.6218H78.0606V-20.4419L72.1028 -20.4419V-20.6218H71.9027V-20.4419L65.9449 -20.4419V-20.6218H65.7449V-20.4419L59.787 -20.4419V-20.6218H59.587V-20.4419L53.6291 -20.4419V-20.6218H53.4291V-20.4419L47.4713 -20.4419V-20.6218H47.2713V-20.4419L41.3134 -20.4419V-20.6218H41.1134V-20.4419L35.1555 -20.4419V-20.6218H34.9555V-20.4419L28.9977 -20.4419V-20.6218H28.7977V-20.4419L22.8398 -20.4419V-20.6218H22.6398V-20.4419L16.6819 -20.4419V-20.6218H16.4819V-20.4419L10.524 -20.4419V-20.6218H10.3241V-20.4419L4.3662 -20.4419V-20.6218H4.1662V-20.4419L-1.79169 -20.4419V-20.6218H-1.99169V-20.4419L-7.94955 -20.4419V-20.6218H-8.14955V-20.4419L-14.1074 -20.4419V-20.6218H-14.3074V-20.4419L-20.2653 -20.4419V-20.6218H-20.4653V-20.4419L-26.4231 -20.4419V-20.6218H-26.6231V-20.4419L-32.581 -20.4419V-20.6218H-32.781V-20.4419L-38.7389 -20.4419V-20.6218H-38.9389V-20.4419L-44.8968 -20.4419V-20.6218H-45.0968V-20.4419L-51.0546 -20.4419V-20.6218H-51.2546V-20.4419L-57.1658 -20.4419V-20.6218H-57.3658ZM-57.1658 -20.2419V-14.284H-51.2546V-20.2419L-57.1658 -20.2419ZM-51.0546 -20.2419V-14.284L-45.0968 -14.284V-20.2419L-51.0546 -20.2419ZM-44.8968 -20.2419V-14.284H-38.9389V-20.2419L-44.8968 -20.2419ZM-38.7389 -20.2419V-14.284H-32.781V-20.2419L-38.7389 -20.2419ZM-32.581 -20.2419V-14.284L-26.6231 -14.284V-20.2419L-32.581 -20.2419ZM-26.4231 -20.2419V-14.284H-20.4653V-20.2419L-26.4231 -20.2419ZM-20.2653 -20.2419V-14.284H-14.3074V-20.2419L-20.2653 -20.2419ZM-14.1074 -20.2419V-14.284L-8.14955 -14.284V-20.2419L-14.1074 -20.2419ZM-7.94955 -20.2419V-14.284H-1.99169V-20.2419L-7.94955 -20.2419ZM-1.79169 -20.2419V-14.284H4.1662V-20.2419L-1.79169 -20.2419ZM4.3662 -20.2419V-14.284L10.3241 -14.284V-20.2419L4.3662 -20.2419ZM10.524 -20.2419V-14.284H16.4819V-20.2419L10.524 -20.2419ZM16.6819 -20.2419V-14.284H22.6398V-20.2419L16.6819 -20.2419ZM22.8398 -20.2419V-14.284L28.7977 -14.284V-20.2419L22.8398 -20.2419ZM28.9977 -20.2419V-14.284H34.9555V-20.2419L28.9977 -20.2419ZM35.1555 -20.2419V-14.284L41.1134 -14.284V-20.2419L35.1555 -20.2419ZM41.3134 -20.2419V-14.284H47.2713V-20.2419L41.3134 -20.2419ZM47.4713 -20.2419V-14.284H53.4291V-20.2419L47.4713 -20.2419ZM53.6291 -20.2419V-14.284L59.587 -14.284V-20.2419L53.6291 -20.2419ZM59.787 -20.2419V-14.284H65.7449V-20.2419L59.787 -20.2419ZM65.9449 -20.2419V-14.284H71.9027V-20.2419L65.9449 -20.2419ZM72.1028 -20.2419V-14.284L78.0606 -14.284V-20.2419L72.1028 -20.2419ZM78.2606 -20.2419V-14.284H84.2185V-20.2419L78.2606 -20.2419ZM84.4185 -20.2419V-14.284H90.3764V-20.2419L84.4185 -20.2419ZM90.5764 -20.2419V-14.284L96.5342 -14.284V-20.2419L90.5764 -20.2419ZM96.7342 -20.2419V-14.284H102.692V-20.2419L96.7342 -20.2419ZM102.892 -20.2419V-14.284H108.85V-20.2419L102.892 -20.2419ZM109.05 -20.2419V-14.284L115.008 -14.284V-20.2419L109.05 -20.2419ZM115.208 -20.2419V-14.284H121.166V-20.2419L115.208 -20.2419ZM115.208 -14.084H121.166V-8.12612H115.208V-14.084ZM115.208 -7.92612H121.166V-1.96824H115.208V-7.92612ZM115.008 -14.084V-8.12612H109.05V-14.084L115.008 -14.084ZM115.008 -7.92612H109.05V-1.96824H115.008V-7.92612ZM108.85 -14.084V-8.12612H102.892V-14.084H108.85ZM108.85 -7.92612L102.892 -7.92612V-1.96824H108.85V-7.92612ZM102.692 -14.084V-8.12612L96.7342 -8.12612V-14.084H102.692ZM102.692 -7.92612H96.7342V-1.96824H102.692V-7.92612ZM96.5342 -14.084V-8.12612H90.5764V-14.084L96.5342 -14.084ZM96.5342 -7.92612H90.5764V-1.96824H96.5342V-7.92612ZM90.3764 -14.084V-8.12612H84.4185V-14.084H90.3764ZM90.3764 -7.92612H84.4185V-1.96824H90.3764V-7.92612ZM84.2185 -14.084V-8.12612H78.2606V-14.084H84.2185ZM84.2185 -7.92612H78.2606V-1.96824H84.2185V-7.92612ZM78.0606 -14.084V-8.12612H72.1028V-14.084H78.0606ZM78.0606 -7.92612H72.1028V-1.96824L78.0606 -1.96824V-7.92612ZM71.9027 -14.084V-8.12612H65.9449V-14.084L71.9027 -14.084ZM71.9027 -7.92612L65.9449 -7.92612V-1.96824H71.9027V-7.92612ZM65.7449 -14.084V-8.12612H59.787V-14.084H65.7449ZM65.7449 -7.92612H59.787V-1.96824H65.7449V-7.92612ZM59.587 -14.084V-8.12612L53.6291 -8.12612V-14.084H59.587ZM59.587 -7.92612H53.6291V-1.96824H59.587V-7.92612ZM53.4291 -14.084V-8.12612H47.4713V-14.084L53.4291 -14.084ZM53.4291 -7.92612H47.4713V-1.96824H53.4291V-7.92612ZM47.2713 -14.084V-8.12612H41.3134V-14.084H47.2713ZM47.2713 -7.92612H41.3134V-1.96824H47.2713V-7.92612ZM41.1134 -14.084V-8.12612H35.1555V-14.084H41.1134ZM41.1134 -7.92612H35.1555V-1.96824H41.1134V-7.92612ZM34.9555 -14.084V-8.12612H28.9977V-14.084L34.9555 -14.084ZM34.9555 -7.92612L28.9977 -7.92612V-1.96824H34.9555V-7.92612ZM28.7977 -14.084V-8.12612H22.8398V-14.084H28.7977ZM28.7977 -7.92612H22.8398V-1.96824H28.7977V-7.92612ZM22.6398 -14.084V-8.12612H16.6819V-14.084H22.6398ZM22.6398 -7.92612H16.6819V-1.96824H22.6398V-7.92612ZM16.4819 -14.084V-8.12612H10.524V-14.084L16.4819 -14.084ZM16.4819 -7.92612H10.524V-1.96824H16.4819V-7.92612ZM10.3241 -14.084V-8.12612L4.3662 -8.12612V-14.084H10.3241ZM10.3241 -7.92612H4.3662V-1.96824H10.3241V-7.92612ZM4.1662 -14.084V-8.12612H-1.79169V-14.084H4.1662ZM4.1662 -7.92612H-1.79169V-1.96824H4.1662V-7.92612ZM-1.99169 -14.084V-8.12612H-7.94955V-14.084L-1.99169 -14.084ZM-1.99169 -7.92612L-7.94955 -7.92612V-1.96824H-1.99169V-7.92612ZM-8.14955 -14.084V-8.12612H-14.1074V-14.084H-8.14955ZM-8.14955 -7.92612H-14.1074V-1.96824L-8.14955 -1.96824V-7.92612ZM-14.3074 -14.084V-8.12612H-20.2653V-14.084H-14.3074ZM-14.3074 -7.92612H-20.2653V-1.96824H-14.3074V-7.92612ZM-20.4653 -14.084V-8.12612H-26.4231V-14.084H-20.4653ZM-20.4653 -7.92612H-26.4231V-1.96824H-20.4653V-7.92612ZM-26.6231 -14.084V-8.12612H-32.581V-14.084L-26.6231 -14.084ZM-26.6231 -7.92612H-32.581V-1.96824H-26.6231V-7.92612ZM-32.781 -14.084V-8.12612L-38.7389 -8.12612V-14.084H-32.781ZM-32.781 -7.92612H-38.7389V-1.96824H-32.781V-7.92612ZM-38.9389 -14.084V-8.12612H-44.8968V-14.084H-38.9389ZM-38.9389 -7.92612L-44.8968 -7.92612V-1.96824H-38.9389V-7.92612ZM-45.0968 -14.084V-8.12612H-51.0546V-14.084L-45.0968 -14.084ZM-45.0968 -7.92612H-51.0546V-1.96824H-45.0968V-7.92612ZM-51.2546 -14.084V-8.12612H-57.1658V-14.084H-51.2546ZM-51.2546 -7.92612H-57.1658V-1.96824H-51.2546V-7.92612ZM-57.1658 4.38962V10.3475H-51.2546V4.38962H-57.1658ZM-57.1658 4.18962H-51.2546V-1.76824H-57.1658V4.18962ZM-51.0546 4.38962V10.3475H-45.0968V4.38962H-51.0546ZM-45.0968 4.18962H-51.0546V-1.76824H-45.0968V4.18962ZM-44.8968 4.38962V10.3475H-38.9389V4.38962H-44.8968ZM-38.9389 4.18962H-44.8968V-1.76824H-38.9389V4.18962ZM-38.7389 4.38962V10.3475H-32.781V4.38962H-38.7389ZM-32.781 4.18962H-38.7389V-1.76824H-32.781V4.18962ZM-32.581 4.38962V10.3475H-26.6231V4.38962L-32.581 4.38962ZM-26.6231 4.18962H-32.581V-1.76824L-26.6231 -1.76824V4.18962ZM-26.4231 4.38962V10.3475H-20.4653V4.38962H-26.4231ZM-20.4653 4.18962H-26.4231V-1.76824H-20.4653V4.18962ZM-20.2653 4.38962V10.3475H-14.3074V4.38962H-20.2653ZM-14.3074 4.18962H-20.2653V-1.76824H-14.3074V4.18962ZM-14.1074 4.38962V10.3475L-8.14955 10.3475V4.38962H-14.1074ZM-8.14955 4.18962L-14.1074 4.18962V-1.76824H-8.14955V4.18962ZM-7.94955 4.38962V10.3475H-1.99169V4.38962H-7.94955ZM-1.99169 4.18962H-7.94955V-1.76824H-1.99169V4.18962ZM-1.79169 4.38962V10.3475H4.1662V4.38962H-1.79169ZM4.1662 4.18962H-1.79169V-1.76824H4.1662V4.18962ZM4.3662 4.38962V10.3475H10.3241V4.38962H4.3662ZM10.3241 4.18962H4.3662V-1.76824H10.3241V4.18962ZM10.524 4.38962V10.3475H16.4819V4.38962H10.524ZM16.4819 4.18962H10.524V-1.76824H16.4819V4.18962ZM16.6819 4.38962V10.3475H22.6398V4.38962H16.6819ZM22.6398 4.18962H16.6819V-1.76824H22.6398V4.18962ZM22.8398 4.38962V10.3475H28.7977V4.38962H22.8398ZM28.7977 4.18962H22.8398V-1.76824H28.7977V4.18962ZM28.9977 4.38962V10.3475H34.9555V4.38961L28.9977 4.38962ZM34.9555 4.18962H28.9977V-1.76824L34.9555 -1.76824V4.18962ZM35.1555 4.38961V10.3475H41.1134V4.38961H35.1555ZM41.1134 4.18962H35.1555V-1.76824H41.1134V4.18962ZM41.3134 4.38961V10.3475H47.2713V4.38961H41.3134ZM47.2713 4.18962H41.3134V-1.76824H47.2713V4.18962ZM47.4713 4.38961V10.3475H53.4291V4.38961H47.4713ZM53.4291 4.18962H47.4713V-1.76824H53.4291V4.18962ZM53.6291 4.38961V10.3475H59.587V4.38961H53.6291ZM59.587 4.18962H53.6291V-1.76824H59.587V4.18962ZM59.787 4.38961V10.3475H65.7449V4.38961H59.787ZM65.7449 4.18962H59.787V-1.76824H65.7449V4.18962ZM65.9449 4.38961V10.3475H71.9027V4.38961H65.9449ZM71.9027 4.18962H65.9449V-1.76824H71.9027V4.18962ZM72.1028 4.38961V10.3475L78.0606 10.3475V4.38961H72.1028ZM78.0606 4.18961L72.1028 4.18962V-1.76824H78.0606V4.18961ZM78.2606 4.38961V10.3475H84.2185V4.38961H78.2606ZM84.2185 4.18961H78.2606V-1.76824H84.2185V4.18961ZM84.4185 4.38961V10.3475H90.3764V4.38961H84.4185ZM90.3764 4.18961H84.4185V-1.76824H90.3764V4.18961ZM90.5764 4.38961V10.3475H96.5342V4.38961L90.5764 4.38961ZM96.5342 4.18961H90.5764V-1.76824L96.5342 -1.76825V4.18961ZM96.7342 4.38961V10.3475H102.692V4.38961H96.7342ZM102.692 4.18961H96.7342V-1.76825H102.692V4.18961ZM102.892 4.38961V10.3475H108.85V4.38961H102.892ZM108.85 4.18961H102.892V-1.76825H108.85V4.18961ZM109.05 4.38961V10.3475H115.008V4.38961H109.05ZM115.008 4.18961H109.05V-1.76825H115.008V4.18961ZM115.208 4.38961V10.3475H121.166V4.38961H115.208ZM121.166 4.18961H115.208V-1.76825H121.166V4.18961ZM115.208 10.5475H121.166V16.5053H115.208V10.5475ZM115.008 16.5053V10.5475H109.05V16.5053H115.008ZM109.05 16.7053H115.008V22.6632H109.05V16.7053ZM108.85 16.5053V10.5475H102.892V16.5053H108.85ZM102.892 16.7053H108.85V22.6632H102.892V16.7053ZM102.692 16.5053V10.5475H96.7342V16.5053H102.692ZM96.7342 16.7053H102.692V22.6632H96.7342V16.7053ZM96.5342 16.5053V10.5475L90.5764 10.5475V16.5053H96.5342ZM90.5764 16.7053H96.5342V22.6632H90.5764V16.7053ZM90.3764 16.5053V10.5475H84.4185V16.5053H90.3764ZM84.4185 16.7053H90.3764V22.6632H84.4185V16.7053ZM84.2185 16.5053V10.5475H78.2606V16.5053H84.2185ZM78.2606 16.7053H84.2185V22.6632H78.2606V16.7053ZM78.0606 16.5053V10.5475H72.1028V16.5053L78.0606 16.5053ZM72.1028 16.7053H78.0606V22.6632L72.1028 22.6632V16.7053ZM71.9027 16.5053V10.5475H65.9449V16.5053H71.9027ZM65.9449 16.7053H71.9027V22.6632H65.9449V16.7053ZM65.7449 16.5053V10.5475H59.787V16.5053H65.7449ZM59.787 16.7053H65.7449V22.6632H59.787V16.7053ZM59.587 16.5053V10.5475H53.6291V16.5053H59.587ZM53.6291 16.7053H59.587V22.6632H53.6291V16.7053ZM53.4291 16.5053V10.5475H47.4713V16.5053H53.4291ZM47.4713 16.7053H53.4291V22.6632H47.4713V16.7053ZM47.2713 16.5053V10.5475H41.3134V16.5053H47.2713ZM41.3134 16.7053H47.2713V22.6632H41.3134V16.7053ZM41.1134 16.5053V10.5475H35.1555V16.5053H41.1134ZM35.1555 16.7053H41.1134V22.6632H35.1555V16.7053ZM34.9555 16.5053V10.5475L28.9977 10.5475V16.5053H34.9555ZM28.9977 16.7053L34.9555 16.7053V22.6632H28.9977V16.7053ZM28.7977 16.5053V10.5475H22.8398V16.5053H28.7977ZM22.8398 16.7053H28.7977V22.6632H22.8398V16.7053ZM22.6398 16.5053V10.5475H16.6819V16.5053H22.6398ZM16.6819 16.7053H22.6398V22.6632H16.6819V16.7053ZM16.4819 16.5053V10.5475H10.524V16.5053H16.4819ZM10.524 16.7053H16.4819V22.6632H10.524V16.7053ZM10.3241 16.5053V10.5475H4.3662V16.5053H10.3241ZM4.3662 16.7053H10.3241V22.6632H4.3662V16.7053ZM4.1662 16.5053V10.5475H-1.79169V16.5053H4.1662ZM-1.79169 16.7053H4.1662V22.6632H-1.79169V16.7053ZM-1.99169 16.5053V10.5475H-7.94955V16.5053H-1.99169ZM-7.94955 16.7053H-1.99169V22.6632H-7.94955V16.7053ZM-8.14955 16.5053V10.5475H-14.1074V16.5054L-8.14955 16.5053ZM-14.1074 16.7053H-8.14955V22.6632L-14.1074 22.6632V16.7053ZM-14.3074 16.5054V10.5475H-20.2653V16.5054H-14.3074ZM-20.2653 16.7053H-14.3074V22.6632H-20.2653V16.7053ZM-20.4653 16.5054V10.5475H-26.4231V16.5054H-20.4653ZM-26.4231 16.7053H-20.4653V22.6632H-26.4231V16.7053ZM-26.6231 16.5054V10.5475L-32.581 10.5475V16.5054H-26.6231ZM-32.581 16.7053H-26.6231V22.6632H-32.581V16.7053ZM-32.781 16.5054V10.5475H-38.7389V16.5054H-32.781ZM-38.7389 16.7053H-32.781V22.6632H-38.7389V16.7053ZM-38.9389 16.5054V10.5475H-44.8968V16.5054H-38.9389ZM-44.8968 16.7053H-38.9389V22.6632H-44.8968V16.7053ZM-45.0968 16.5054V10.5475H-51.0546V16.5054H-45.0968ZM-51.0546 16.7053H-45.0968V22.6632H-51.0546V16.7053ZM-51.2546 16.5054V10.5475H-57.1658V16.5054H-51.2546ZM-57.1658 16.7053H-51.2546V22.6632H-57.1658V16.7053ZM115.208 16.7053H121.166V22.6632H115.208V16.7053ZM115.208 22.8632H121.166V28.8211H115.208V22.8632ZM115.208 29.0211H121.166V34.979H115.208V29.0211ZM115.008 22.8632V28.8211H109.05V22.8632H115.008ZM115.008 29.0211H109.05V34.979H115.008V29.0211ZM108.85 22.8632V28.8211H102.892V22.8632H108.85ZM108.85 29.0211H102.892V34.979H108.85V29.0211ZM102.692 22.8632V28.8211H96.7342V22.8632H102.692ZM102.692 29.0211H96.7342V34.979H102.692V29.0211ZM96.5342 22.8632V28.8211H90.5764V22.8632H96.5342ZM96.5342 29.0211H90.5764V34.979H96.5342V29.0211ZM90.3764 22.8632V28.8211H84.4185V22.8632H90.3764ZM90.3764 29.0211H84.4185V34.979H90.3764V29.0211ZM84.2185 22.8632V28.8211H78.2606V22.8632H84.2185ZM84.2185 29.0211H78.2606V34.979H84.2185V29.0211ZM78.0606 22.8632V28.8211L72.1028 28.8211V22.8632H78.0606ZM78.0606 29.0211H72.1028V34.979L78.0606 34.979V29.0211ZM71.9027 22.8632V28.8211H65.9449V22.8632H71.9027ZM71.9027 29.0211H65.9449V34.979H71.9027V29.0211ZM65.7449 22.8632V28.8211H59.787V22.8632H65.7449ZM65.7449 29.0211H59.787V34.979H65.7449V29.0211ZM59.587 22.8632V28.8211H53.6291V22.8632H59.587ZM59.587 29.0211H53.6291V34.979H59.587V29.0211ZM53.4291 22.8632V28.8211H47.4713V22.8632H53.4291ZM53.4291 29.0211H47.4713V34.979H53.4291V29.0211ZM47.2713 22.8632V28.8211H41.3134V22.8632H47.2713ZM47.2713 29.0211H41.3134V34.979H47.2713V29.0211ZM41.1134 22.8632V28.8211H35.1555V22.8632H41.1134ZM41.1134 29.0211H35.1555V34.979H41.1134V29.0211ZM34.9555 22.8632V28.8211H28.9977V22.8632L34.9555 22.8632ZM34.9555 29.0211L28.9977 29.0211V34.979H34.9555V29.0211ZM28.7977 22.8632V28.8211H22.8398V22.8632H28.7977ZM28.7977 29.0211H22.8398V34.979H28.7977V29.0211ZM22.6398 22.8632V28.8211H16.6819V22.8632H22.6398ZM22.6398 29.0211H16.6819V34.979H22.6398V29.0211ZM16.4819 22.8632V28.8211H10.524V22.8632H16.4819ZM16.4819 29.0211H10.524V34.979H16.4819V29.0211ZM10.3241 22.8632V28.8211H4.3662V22.8632H10.3241ZM10.3241 29.0211H4.3662V34.979H10.3241V29.0211ZM4.1662 22.8632V28.8211H-1.79169V22.8632H4.1662ZM4.1662 29.0211H-1.79169V34.979H4.1662V29.0211ZM-1.99169 22.8632V28.8211H-7.94955V22.8632H-1.99169ZM-1.99169 29.0211H-7.94955V34.979H-1.99169V29.0211ZM-8.14955 22.8632V28.8211L-14.1074 28.8211V22.8632H-8.14955ZM-8.14955 29.0211H-14.1074V34.979L-8.14955 34.979V29.0211ZM-14.3074 22.8632V28.8211H-20.2653V22.8632H-14.3074ZM-14.3074 29.0211H-20.2653V34.979H-14.3074V29.0211ZM-20.4653 22.8632V28.8211H-26.4231V22.8632H-20.4653ZM-20.4653 29.0211H-26.4231V34.979H-20.4653V29.0211ZM-26.6231 22.8632V28.8211H-32.581V22.8632H-26.6231ZM-26.6231 29.0211H-32.581V34.979H-26.6231V29.0211ZM-32.781 22.8632V28.8211H-38.7389V22.8632H-32.781ZM-32.781 29.0211H-38.7389V34.979H-32.781V29.0211ZM-38.9389 22.8632V28.8211H-44.8968V22.8632H-38.9389ZM-38.9389 29.0211H-44.8968V34.979H-38.9389V29.0211ZM-45.0968 22.8632V28.8211H-51.0546V22.8632H-45.0968ZM-45.0968 29.0211H-51.0546V34.979H-45.0968V29.0211ZM-51.2546 22.8632V28.8211H-57.1658V22.8632H-51.2546ZM-51.2546 29.0211H-57.1658V34.979H-51.2546V29.0211ZM109.05 35.179H115.008V41.1368H109.05V35.179ZM108.85 41.1368V35.179H102.892V41.1368H108.85ZM102.892 41.3368H108.85V47.2947H102.892V41.3368ZM102.692 41.1368V35.179H96.7342V41.1368H102.692ZM96.7342 41.3368H102.692V47.2947H96.7342V41.3368ZM96.5342 41.1368V35.179H90.5764V41.1368H96.5342ZM90.5764 41.3368H96.5342V47.2947H90.5764V41.3368ZM90.3764 41.1368V35.179H84.4185V41.1368H90.3764ZM84.4185 41.3368H90.3764V47.2947H84.4185V41.3368ZM84.2185 41.1368V35.179H78.2606V41.1368H84.2185ZM78.2606 41.3368H84.2185V47.2947H78.2606V41.3368ZM78.0606 41.1368V35.179H72.1028V41.1368L78.0606 41.1368ZM72.1028 41.3368H78.0606V47.2947H72.1028V41.3368ZM71.9027 41.1368V35.179H65.9449V41.1368H71.9027ZM65.9449 41.3368H71.9027V47.2947H65.9449V41.3368ZM65.7449 41.1368V35.179H59.787V41.1368H65.7449ZM59.787 41.3368H65.7449V47.2947H59.787V41.3368ZM59.587 41.1368V35.179H53.6291V41.1368H59.587ZM53.6291 41.3368H59.587V47.2947H53.6291V41.3368ZM53.4291 41.1368V35.179H47.4713V41.1368H53.4291ZM47.4713 41.3368H53.4291V47.2947H47.4713V41.3368ZM47.2713 41.1368V35.179H41.3134V41.1368H47.2713ZM41.3134 41.3368H47.2713V47.2947H41.3134V41.3368ZM41.1134 41.1368V35.179H35.1555V41.1368H41.1134ZM35.1555 41.3368H41.1134V47.2947H35.1555V41.3368ZM34.9555 41.1368V35.179L28.9977 35.179V41.1368H34.9555ZM28.9977 41.3368L34.9555 41.3368V47.2947L28.9977 47.2947V41.3368ZM28.7977 41.1368V35.179H22.8398V41.1368H28.7977ZM22.8398 41.3368H28.7977V47.2947H22.8398V41.3368ZM22.6398 41.1368V35.179H16.6819V41.1368H22.6398ZM16.6819 41.3368H22.6398V47.2947H16.6819V41.3368ZM16.4819 41.1368V35.179H10.524V41.1368H16.4819ZM10.524 41.3368H16.4819V47.2947H10.524V41.3368ZM10.3241 41.1368V35.179H4.3662V41.1368H10.3241ZM4.3662 41.3368H10.3241V47.2947H4.3662V41.3368ZM4.1662 41.1368V35.179H-1.79169V41.1368H4.1662ZM-1.79169 41.3368H4.1662V47.2947H-1.79169V41.3368ZM-1.99169 41.1368V35.179H-7.94955V41.1368H-1.99169ZM-7.94955 41.3368H-1.99169V47.2947H-7.94955V41.3368ZM-8.14955 41.1368V35.179H-14.1074V41.1368L-8.14955 41.1368ZM-14.1074 41.3368H-8.14955V47.2947H-14.1074V41.3368ZM-14.3074 41.1368V35.179H-20.2653V41.1368H-14.3074ZM-20.2653 41.3368H-14.3074V47.2947H-20.2653V41.3368ZM-20.4653 41.1368V35.179H-26.4231V41.1368H-20.4653ZM-26.4231 41.3368H-20.4653V47.2947H-26.4231V41.3368ZM-26.6231 41.1368V35.179H-32.581V41.1368H-26.6231ZM-32.581 41.3368H-26.6231V47.2947H-32.581V41.3368ZM-32.781 41.1368V35.179H-38.7389V41.1368H-32.781ZM-38.7389 41.3368H-32.781V47.2947H-38.7389V41.3368ZM-38.9389 41.1368V35.179H-44.8968V41.1368H-38.9389ZM-44.8968 41.3368H-38.9389V47.2947H-44.8968V41.3368ZM-45.0968 41.1368V35.179H-51.0546V41.1368H-45.0968ZM-51.0546 41.3368H-45.0968V47.2947H-51.0546V41.3368ZM-51.2546 41.1368V35.179H-57.1658V41.1368H-51.2546ZM-57.1658 41.3368H-51.2546V47.2947H-57.1658V41.3368ZM109.05 41.3368H115.008V47.2947H109.05V41.3368ZM115.208 41.3368V47.2947H121.166V41.3368H115.208ZM121.166 41.1368V35.179H115.208V41.1368H121.166ZM121.166 84.2419V78.284H115.208V84.2419H121.166ZM121.166 72.1262V78.084H115.208V72.1262H121.166ZM115.008 72.1262V78.084H109.05V72.1262H115.008ZM109.05 84.2419V78.284H115.008V84.2419H109.05ZM108.85 84.2419V78.284H102.892V84.2419H108.85ZM108.85 72.1262V78.084H102.892V72.1262H108.85ZM102.692 72.1262V78.084H96.7342V72.1262H102.692ZM96.7342 84.2419V78.284H102.692V84.2419H96.7342ZM96.5342 84.2419V78.284H90.5764V84.2419H96.5342ZM96.5342 72.1262V78.084H90.5764V72.1262H96.5342ZM90.3764 72.1262V78.084H84.4185V72.1262H90.3764ZM84.4185 84.2419V78.284H90.3764V84.2419H84.4185ZM84.2185 84.2419V78.284H78.2606V84.2419H84.2185ZM84.2185 72.1262V78.084H78.2606V72.1262H84.2185ZM78.0606 72.1262V78.084H72.1028V72.1262H78.0606ZM72.1028 84.2419V78.284H78.0606V84.2419H72.1028ZM71.9027 84.2419V78.284H65.9449V84.2419H71.9027ZM71.9027 72.1262V78.084H65.9449V72.1262H71.9027ZM65.7449 72.1262V78.084H59.787V72.1262H65.7449ZM59.787 84.2419V78.284H65.7449V84.2419H59.787ZM59.587 84.2419V78.284H53.6291V84.2419H59.587ZM59.587 72.1262V78.084H53.6291V72.1262H59.587ZM53.4291 72.1262V78.084H47.4713V72.1262H53.4291ZM47.4713 84.2419V78.284H53.4291V84.2419H47.4713ZM47.2713 84.2419V78.284H41.3134V84.2419H47.2713ZM47.2713 72.1262V78.084H41.3134V72.1262H47.2713ZM41.1134 72.1262V78.084H35.1555V72.1262H41.1134ZM35.1555 84.2419V78.284H41.1134V84.2419H35.1555ZM34.9555 84.2419V78.284H28.9977V84.2419L34.9555 84.2419ZM34.9555 72.1262V78.084L28.9977 78.084V72.1262H34.9555ZM28.7977 72.1262V78.084H22.8398V72.1262H28.7977ZM22.8398 84.2419V78.284H28.7977V84.2419H22.8398ZM22.6398 84.2419V78.284H16.6819V84.2419H22.6398ZM22.6398 72.1262V78.084H16.6819V72.1262H22.6398ZM16.4819 72.1262V78.084H10.524V72.1262H16.4819ZM10.524 84.2419V78.284H16.4819V84.2419H10.524ZM10.3241 84.2419V78.284H4.3662V84.2419H10.3241ZM10.3241 72.1262V78.084H4.3662V72.1262H10.3241ZM4.1662 72.1262V78.084H-1.79169V72.1262H4.1662ZM-1.79169 84.2419V78.284H4.1662V84.2419H-1.79169ZM-1.99169 84.2419V78.284H-7.94955V84.2419H-1.99169ZM-1.99169 72.1262V78.084H-7.94955V72.1262H-1.99169ZM-8.14955 72.1262V78.084H-14.1074V72.1262H-8.14955ZM-14.1074 84.2419V78.284H-8.14955V84.2419H-14.1074ZM-14.3074 84.2419V78.284H-20.2653V84.2419H-14.3074ZM-14.3074 72.1262V78.084H-20.2653V72.1262H-14.3074ZM-20.4653 72.1262V78.084H-26.4231V72.1262H-20.4653ZM-26.4231 84.2419V78.284H-20.4653V84.2419H-26.4231ZM-26.6231 84.2419V78.284H-32.581V84.2419H-26.6231ZM-26.6231 72.1262V78.084H-32.581V72.1262H-26.6231ZM-32.781 72.1262V78.084H-38.7389V72.1262H-32.781ZM-38.7389 84.2419V78.284H-32.781V84.2419H-38.7389ZM-38.9389 84.2419V78.284H-44.8968V84.2419H-38.9389ZM-38.9389 72.1262V78.084H-44.8968V72.1262H-38.9389ZM-45.0968 72.1262V78.084H-51.0546V72.1262H-45.0968ZM-51.0546 84.2419V78.284H-45.0968V84.2419H-51.0546ZM-51.2546 84.2419V78.284H-57.1658V84.2419H-51.2546ZM-51.2546 72.1262V78.084H-57.1658V72.1262H-51.2546ZM121.166 65.9683V71.9262H115.208V65.9683H121.166ZM121.166 65.7683V59.8104H115.208V65.7683H121.166ZM115.008 65.7683V59.8104H109.05V65.7683H115.008ZM109.05 65.9683V71.9262H115.008V65.9683H109.05ZM108.85 65.9683V71.9262H102.892V65.9683H108.85ZM108.85 65.7683V59.8104H102.892V65.7683H108.85ZM102.692 65.7683V59.8104H96.7342V65.7683H102.692ZM96.7342 65.9683V71.9262H102.692V65.9683H96.7342ZM96.5342 65.9683V71.9262H90.5764V65.9683H96.5342ZM96.5342 65.7683V59.8104H90.5764V65.7683H96.5342ZM90.3764 65.7683V59.8104H84.4185V65.7683H90.3764ZM84.4185 65.9683V71.9262H90.3764V65.9683H84.4185ZM84.2185 65.9683V71.9262H78.2606V65.9683H84.2185ZM84.2185 65.7683V59.8104H78.2606V65.7683H84.2185ZM78.0606 65.7683V59.8104H72.1028V65.7683H78.0606ZM72.1028 65.9683V71.9262H78.0606V65.9683H72.1028ZM71.9027 65.9683V71.9262H65.9449V65.9683H71.9027ZM71.9027 65.7683V59.8104H65.9449V65.7683H71.9027ZM65.7449 65.7683V59.8104H59.787V65.7683H65.7449ZM59.787 65.9683V71.9262H65.7449V65.9683H59.787ZM59.587 65.9683V71.9262H53.6291V65.9683H59.587ZM59.587 65.7683V59.8104H53.6291V65.7683H59.587ZM53.4291 65.7683V59.8104H47.4713V65.7683H53.4291ZM47.4713 65.9683V71.9262H53.4291V65.9683H47.4713ZM47.2713 65.9683V71.9262H41.3134V65.9683H47.2713ZM47.2713 65.7683V59.8104H41.3134V65.7683H47.2713ZM41.1134 65.7683V59.8104H35.1555V65.7683H41.1134ZM35.1555 65.9683V71.9262H41.1134V65.9683H35.1555ZM34.9555 65.9683V71.9262L28.9977 71.9262V65.9683H34.9555ZM34.9555 65.7683V59.8104H28.9977V65.7683L34.9555 65.7683ZM28.7977 65.7683V59.8104H22.8398V65.7683H28.7977ZM22.8398 65.9683V71.9262H28.7977V65.9683H22.8398ZM22.6398 65.9683V71.9262H16.6819V65.9683H22.6398ZM22.6398 65.7683V59.8104H16.6819V65.7683H22.6398ZM16.4819 65.7683V59.8104H10.524V65.7683H16.4819ZM10.524 65.9683V71.9262H16.4819V65.9683H10.524ZM10.3241 65.9683V71.9262H4.3662V65.9683H10.3241ZM10.3241 65.7683V59.8104H4.3662V65.7683H10.3241ZM4.1662 65.7683V59.8104H-1.79169V65.7683H4.1662ZM-1.79169 65.9683V71.9262H4.1662V65.9683H-1.79169ZM-1.99169 65.9683V71.9262H-7.94955V65.9683H-1.99169ZM-1.99169 65.7683V59.8104H-7.94955V65.7683H-1.99169ZM-8.14955 65.7683V59.8104H-14.1074V65.7683H-8.14955ZM-14.1074 65.9683V71.9262H-8.14955V65.9683H-14.1074ZM-14.3074 65.9683V71.9262H-20.2653V65.9683H-14.3074ZM-14.3074 65.7683V59.8104H-20.2653V65.7683H-14.3074ZM-20.4653 65.7683V59.8104H-26.4231V65.7683H-20.4653ZM-26.4231 65.9683V71.9262H-20.4653V65.9683H-26.4231ZM-26.6231 65.9683V71.9262H-32.581V65.9683H-26.6231ZM-26.6231 65.7683V59.8104H-32.581V65.7683H-26.6231ZM-32.781 65.7683V59.8104H-38.7389V65.7683H-32.781ZM-38.7389 65.9683V71.9262H-32.781V65.9683H-38.7389ZM-38.9389 65.9683V71.9262H-44.8968V65.9683H-38.9389ZM-38.9389 65.7683V59.8104H-44.8968V65.7683H-38.9389ZM-45.0968 65.7683V59.8104H-51.0546V65.7683H-45.0968ZM-51.0546 65.9683V71.9262H-45.0968V65.9683H-51.0546ZM-51.2546 65.9683V71.9262H-57.1658V65.9683H-51.2546ZM-51.2546 65.7683V59.8104H-57.1658V65.7683H-51.2546ZM121.166 59.6104V53.6526H115.208V59.6104H121.166ZM121.166 47.4947V53.4526H115.208V47.4947H121.166ZM115.008 47.4947V53.4526H109.05V47.4947H115.008ZM109.05 59.6104V53.6526H115.008V59.6104H109.05ZM108.85 59.6104V53.6526H102.892V59.6104H108.85ZM108.85 47.4947V53.4526H102.892V47.4947H108.85ZM102.692 47.4947V53.4526H96.7342V47.4947H102.692ZM96.7342 59.6104V53.6526H102.692V59.6104H96.7342ZM96.5342 59.6104V53.6526H90.5764V59.6104H96.5342ZM96.5342 47.4947V53.4526H90.5764V47.4947H96.5342ZM90.3764 47.4947V53.4526H84.4185V47.4947H90.3764ZM84.4185 59.6104V53.6526H90.3764V59.6104H84.4185ZM84.2185 59.6104V53.6526H78.2606V59.6104H84.2185ZM84.2185 47.4947V53.4526H78.2606V47.4947H84.2185ZM78.0606 47.4947V53.4526H72.1028V47.4947H78.0606ZM72.1028 59.6104V53.6526H78.0606V59.6104H72.1028ZM71.9027 59.6104V53.6526H65.9449V59.6104H71.9027ZM71.9027 47.4947V53.4526H65.9449V47.4947H71.9027ZM65.7449 47.4947V53.4526H59.787V47.4947H65.7449ZM59.787 59.6104V53.6526H65.7449V59.6104H59.787ZM59.587 59.6104V53.6526H53.6291V59.6104H59.587ZM59.587 47.4947V53.4526H53.6291V47.4947H59.587ZM53.4291 47.4947V53.4526H47.4713V47.4947H53.4291ZM47.4713 59.6104V53.6526H53.4291V59.6104H47.4713ZM47.2713 59.6104V53.6526H41.3134V59.6104H47.2713ZM47.2713 47.4947V53.4526H41.3134V47.4947H47.2713ZM41.1134 47.4947V53.4526H35.1555V47.4947H41.1134ZM35.1555 59.6104V53.6526H41.1134V59.6104H35.1555ZM34.9555 59.6104V53.6526H28.9977V59.6104L34.9555 59.6104ZM34.9555 47.4947V53.4526L28.9977 53.4526V47.4947H34.9555ZM28.7977 47.4947V53.4526H22.8398V47.4947H28.7977ZM22.8398 59.6104V53.6526H28.7977V59.6104H22.8398ZM22.6398 59.6104V53.6526H16.6819V59.6104H22.6398ZM22.6398 47.4947V53.4526H16.6819V47.4947H22.6398ZM16.4819 47.4947V53.4526H10.524V47.4947H16.4819ZM10.524 59.6104V53.6526H16.4819V59.6104H10.524ZM10.3241 59.6104V53.6526H4.3662V59.6104H10.3241ZM10.3241 47.4947V53.4526H4.3662V47.4947H10.3241ZM4.1662 47.4947V53.4526H-1.79169V47.4947H4.1662ZM-1.79169 59.6104V53.6526H4.1662V59.6104H-1.79169ZM-1.99169 59.6104V53.6526H-7.94955V59.6104H-1.99169ZM-1.99169 47.4947V53.4526H-7.94955V47.4947H-1.99169ZM-8.14955 47.4947V53.4526H-14.1074V47.4947H-8.14955ZM-14.1074 59.6104V53.6526H-8.14955V59.6104H-14.1074ZM-14.3074 59.6104V53.6526H-20.2653V59.6104H-14.3074ZM-14.3074 47.4947V53.4526H-20.2653V47.4947H-14.3074ZM-20.4653 47.4947V53.4526H-26.4231V47.4947H-20.4653ZM-26.4231 59.6104V53.6526H-20.4653V59.6104H-26.4231ZM-26.6231 59.6104V53.6526H-32.581V59.6104H-26.6231ZM-26.6231 47.4947V53.4526H-32.581V47.4947H-26.6231ZM-32.781 47.4947V53.4526H-38.7389V47.4947H-32.781ZM-38.7389 59.6104V53.6526H-32.781V59.6104H-38.7389ZM-38.9389 59.6104V53.6526H-44.8968V59.6104H-38.9389ZM-38.9389 47.4947V53.4526H-44.8968V47.4947H-38.9389ZM-45.0968 47.4947V53.4526H-51.0546V47.4947H-45.0968ZM-51.0546 59.6104V53.6526H-45.0968V59.6104H-51.0546ZM-51.2546 59.6104V53.6526H-57.1658V59.6104H-51.2546ZM-51.2546 47.4947V53.4526H-57.1658V47.4947H-51.2546Z" fill="url(#paint0_radial_441_3504)" fill-opacity="0.6"/>
<rect y="1.5498" width="62.8731" height="61.5574" fill="url(#paint1_radial_441_3504)" fill-opacity="0.54"/>
<g filter="url(#filter0_d_441_3504)">
<path fill-rule="evenodd" clip-rule="evenodd" d="M31.1605 18.9963C31.1605 18.4237 31.6247 17.9595 32.1973 17.9595C32.7699 17.9595 33.2341 18.4237 33.2341 18.9963V20.8151H36.4566L37.8515 22.7351H42.9264C46.6862 22.7351 49.7342 25.783 49.7342 29.5429V39.5543C49.7342 43.3142 46.6862 46.3621 42.9264 46.3621H21.4681C17.7083 46.3621 14.6603 43.3142 14.6603 39.5543V29.5429C14.6603 25.783 17.7083 22.7351 21.4681 22.7351H26.5431L27.938 20.8151H31.1605V18.9963ZM12.9103 32.1608C12.3377 32.1608 11.8735 32.625 11.8735 33.1976V35.8996C11.8735 36.4722 12.3377 36.9364 12.9103 36.9364C13.4829 36.9364 13.9471 36.4722 13.9471 35.8996V33.1976C13.9471 32.625 13.4829 32.1608 12.9103 32.1608ZM51.168 32.1608C50.5954 32.1608 50.1313 32.625 50.1313 33.1976V35.8996C50.1313 36.4722 50.5954 36.9364 51.168 36.9364C51.7406 36.9364 52.2048 36.4722 52.2048 35.8996V33.1976C52.2048 32.625 51.7406 32.1608 51.168 32.1608ZM41.9886 30.7281C41.9886 32.4703 40.5762 33.8827 38.8339 33.8827C37.0917 33.8827 35.6793 32.4703 35.6793 30.7281C35.6793 28.9858 37.0917 27.5735 38.8339 27.5735C40.5762 27.5735 41.9886 28.9858 41.9886 30.7281ZM36.8958 30.7281C36.8958 30.214 37.1 29.7211 37.4635 29.3576C37.827 28.9941 38.32 28.7899 38.834 28.7899C39.348 28.7899 39.841 28.9941 40.2045 29.3576C40.5679 29.7211 40.7721 30.214 40.7721 30.7281H38.834H36.8958ZM32.8482 37.6035C32.2898 37.6035 31.8372 38.0562 31.8372 38.6146C31.8372 39.173 32.2898 39.6257 32.8482 39.6257H36.8926C37.451 39.6257 37.9037 39.173 37.9037 38.6146C37.9037 38.0562 37.451 37.6035 36.8926 37.6035H32.8482ZM25.3598 33.8827C27.1021 33.8827 28.5144 32.4704 28.5144 30.7281C28.5144 28.9858 27.1021 27.5735 25.3598 27.5735C23.6175 27.5735 22.2052 28.9858 22.2052 30.7281C22.2052 32.4704 23.6175 33.8827 25.3598 33.8827ZM23.9894 29.3576C23.6259 29.7211 23.4217 30.2141 23.4217 30.7281H25.3598H27.298C27.298 30.2141 27.0938 29.7211 26.7303 29.3576C26.3668 28.9941 25.8739 28.7899 25.3598 28.7899C24.8458 28.7899 24.3528 28.9941 23.9894 29.3576Z" fill="url(#paint2_linear_441_3504)"/>
<g style="mix-blend-mode:soft-light" opacity="0.24">
<mask id="mask0_441_3504" style="mask-type:alpha" maskUnits="userSpaceOnUse" x="11" y="17" width="42" height="30">
<path fill-rule="evenodd" clip-rule="evenodd" d="M31.1605 18.9963C31.1605 18.4237 31.6247 17.9595 32.1973 17.9595C32.7699 17.9595 33.2341 18.4237 33.2341 18.9963V20.8151H36.4566L37.8515 22.7351H42.9264C46.6862 22.7351 49.7342 25.783 49.7342 29.5429V39.5543C49.7342 43.3142 46.6862 46.3621 42.9264 46.3621H21.4681C17.7083 46.3621 14.6603 43.3142 14.6603 39.5543V29.5429C14.6603 25.783 17.7083 22.7351 21.4681 22.7351H26.5431L27.938 20.8151H31.1605V18.9963ZM12.9103 32.1608C12.3377 32.1608 11.8735 32.625 11.8735 33.1976V35.8996C11.8735 36.4722 12.3377 36.9364 12.9103 36.9364C13.4829 36.9364 13.9471 36.4722 13.9471 35.8996V33.1976C13.9471 32.625 13.4829 32.1608 12.9103 32.1608ZM51.168 32.1608C50.5954 32.1608 50.1313 32.625 50.1313 33.1976V35.8996C50.1313 36.4722 50.5954 36.9364 51.168 36.9364C51.7406 36.9364 52.2048 36.4722 52.2048 35.8996V33.1976C52.2048 32.625 51.7406 32.1608 51.168 32.1608ZM41.9886 30.7281C41.9886 32.4703 40.5762 33.8827 38.8339 33.8827C37.0917 33.8827 35.6793 32.4703 35.6793 30.7281C35.6793 28.9858 37.0917 27.5735 38.8339 27.5735C40.5762 27.5735 41.9886 28.9858 41.9886 30.7281ZM36.8958 30.7281C36.8958 30.214 37.1 29.7211 37.4635 29.3576C37.827 28.9941 38.32 28.7899 38.834 28.7899C39.348 28.7899 39.841 28.9941 40.2045 29.3576C40.5679 29.7211 40.7721 30.214 40.7721 30.7281H38.834H36.8958ZM32.8482 37.6035C32.2898 37.6035 31.8372 38.0562 31.8372 38.6146C31.8372 39.173 32.2898 39.6257 32.8482 39.6257H36.8926C37.451 39.6257 37.9037 39.173 37.9037 38.6146C37.9037 38.0562 37.451 37.6035 36.8926 37.6035H32.8482ZM25.3598 33.8827C27.1021 33.8827 28.5144 32.4704 28.5144 30.7281C28.5144 28.9858 27.1021 27.5735 25.3598 27.5735C23.6175 27.5735 22.2052 28.9858 22.2052 30.7281C22.2052 32.4704 23.6175 33.8827 25.3598 33.8827ZM23.9894 29.3576C23.6259 29.7211 23.4217 30.2141 23.4217 30.7281H25.3598H27.298C27.298 30.2141 27.0938 29.7211 26.7303 29.3576C26.3668 28.9941 25.8739 28.7899 25.3598 28.7899C24.8458 28.7899 24.3528 28.9941 23.9894 29.3576Z" fill="url(#paint3_linear_441_3504)"/>
</mask>
<g mask="url(#mask0_441_3504)">
<path d="M52.9713 18.9864L8.74951 29.1357V33.3403L54.1312 21.5962L52.9713 18.9864Z" fill="white"/>
<path d="M55.581 25.076L8.74951 38.125V50.884L55.581 38.125V25.076Z" fill="white"/>
</g>
</g>
<mask id="mask1_441_3504" style="mask-type:alpha" maskUnits="userSpaceOnUse" x="11" y="17" width="42" height="30">
<path fill-rule="evenodd" clip-rule="evenodd" d="M31.1605 18.9963C31.1605 18.4237 31.6247 17.9595 32.1973 17.9595C32.7699 17.9595 33.2341 18.4237 33.2341 18.9963V20.8151H36.4566L37.8515 22.7351H42.9264C46.6862 22.7351 49.7342 25.783 49.7342 29.5429V39.5543C49.7342 43.3142 46.6862 46.3621 42.9264 46.3621H21.4681C17.7083 46.3621 14.6603 43.3142 14.6603 39.5543V29.5429C14.6603 25.783 17.7083 22.7351 21.4681 22.7351H26.5431L27.938 20.8151H31.1605V18.9963ZM12.9103 32.1608C12.3377 32.1608 11.8735 32.625 11.8735 33.1976V35.8996C11.8735 36.4722 12.3377 36.9364 12.9103 36.9364C13.4829 36.9364 13.9471 36.4722 13.9471 35.8996V33.1976C13.9471 32.625 13.4829 32.1608 12.9103 32.1608ZM51.168 32.1608C50.5954 32.1608 50.1313 32.625 50.1313 33.1976V35.8996C50.1313 36.4722 50.5954 36.9364 51.168 36.9364C51.7406 36.9364 52.2048 36.4722 52.2048 35.8996V33.1976C52.2048 32.625 51.7406 32.1608 51.168 32.1608ZM41.9886 30.7281C41.9886 32.4703 40.5762 33.8827 38.8339 33.8827C37.0917 33.8827 35.6793 32.4703 35.6793 30.7281C35.6793 28.9858 37.0917 27.5735 38.8339 27.5735C40.5762 27.5735 41.9886 28.9858 41.9886 30.7281ZM36.8958 30.7281C36.8958 30.214 37.1 29.7211 37.4635 29.3576C37.827 28.9941 38.32 28.7899 38.834 28.7899C39.348 28.7899 39.841 28.9941 40.2045 29.3576C40.5679 29.7211 40.7721 30.214 40.7721 30.7281H38.834H36.8958ZM32.8482 37.6035C32.2898 37.6035 31.8372 38.0562 31.8372 38.6146C31.8372 39.173 32.2898 39.6257 32.8482 39.6257H36.8926C37.451 39.6257 37.9037 39.173 37.9037 38.6146C37.9037 38.0562 37.451 37.6035 36.8926 37.6035H32.8482ZM25.3598 33.8827C27.1021 33.8827 28.5144 32.4704 28.5144 30.7281C28.5144 28.9858 27.1021 27.5735 25.3598 27.5735C23.6175 27.5735 22.2052 28.9858 22.2052 30.7281C22.2052 32.4704 23.6175 33.8827 25.3598 33.8827ZM23.9894 29.3576C23.6259 29.7211 23.4217 30.2141 23.4217 30.7281H25.3598H27.298C27.298 30.2141 27.0938 29.7211 26.7303 29.3576C26.3668 28.9941 25.8739 28.7899 25.3598 28.7899C24.8458 28.7899 24.3528 28.9941 23.9894 29.3576Z" fill="url(#paint4_linear_441_3504)"/>
</mask>
<g mask="url(#mask1_441_3504)">
<path opacity="0.56" d="M60.0361 36.8401L13.1605 49.7299L13.1171 62.4889L59.9917 49.8891L60.0361 36.8401Z" fill="#F25005"/>
</g>
</g>
</g>
<rect x="1" y="1" width="62" height="62" rx="31" stroke="url(#paint5_linear_441_3504)" stroke-width="2"/>
<mask id="path-10-outside-1_441_3504" maskUnits="userSpaceOnUse" x="74" y="9" width="176" height="40" fill="black">
<rect fill="white" x="74" y="9" width="176" height="40"/>
<path d="M88.235 10.265H93.656C93.539 11.708 93.422 13.112 93.383 14.828C99.818 15.491 101.573 17.675 101.573 22.238C101.573 22.862 101.534 23.525 101.495 24.227C99.935 24.071 97.322 23.954 95.216 23.954C93.89 23.954 92.681 23.954 91.901 24.032C91.94 23.72 91.94 23.447 91.94 23.252C91.94 21.614 91.238 20.951 89.093 20.951C87.182 20.951 86.558 21.614 86.558 22.706C86.558 24.227 87.143 25.241 91.94 25.982C99.623 27.23 102.002 29.57 102.002 35.459C102.002 40.334 99.779 43.064 93.344 43.844C93.383 45.56 93.5 46.964 93.617 48.368H88.157H82.775C82.892 46.964 83.009 45.56 83.048 43.844C76.808 43.142 75.014 40.841 75.014 36.512C75.014 35.771 75.053 34.991 75.131 34.172C76.925 34.289 79.499 34.484 81.917 34.484C83.048 34.484 84.101 34.445 84.842 34.406C84.803 34.679 84.803 34.952 84.803 35.186C84.803 36.941 85.466 37.682 87.611 37.682C89.678 37.682 90.341 37.019 90.341 35.771C90.341 34.094 89.561 33.158 85.271 32.534C76.652 31.364 74.975 28.478 74.975 23.213C74.975 18.377 77.393 15.803 83.126 14.945C83.048 13.151 82.97 11.747 82.814 10.265H88.235ZM103.185 14.75H126.585C126.507 16.115 126.507 18.26 126.507 20.171C126.507 22.043 126.507 24.344 126.585 25.826C124.791 25.787 123.036 25.787 121.32 25.748C121.359 34.211 121.398 42.128 121.476 44.039C119.76 43.922 116.913 43.922 114.885 43.922C112.857 43.922 110.088 43.922 108.294 44.039C108.372 42.128 108.45 34.211 108.489 25.748C106.773 25.748 104.979 25.787 103.185 25.826C103.224 24.344 103.224 22.043 103.224 20.171C103.224 18.26 103.224 16.115 103.185 14.75ZM143.083 28.634C144.916 28.634 145.696 27.659 145.696 25.124C145.696 22.316 144.76 21.653 142.732 21.692C142.225 21.653 141.211 21.692 140.236 21.731C140.236 24.032 140.236 26.372 140.275 28.595C141.055 28.634 141.991 28.634 143.083 28.634ZM150.259 31.754V32.027C154.51 32.612 156.265 33.86 157.006 38.033C157.357 39.944 157.747 42.596 158.059 44H147.88C146.164 44 145.696 43.376 145.345 40.88C144.76 35.732 144.37 34.718 142.459 34.718C141.679 34.718 141.172 34.718 140.353 34.757C140.431 38.462 140.587 41.699 140.821 44H128.731C128.77 39.788 128.887 35.615 128.887 29.375C128.887 23.174 128.848 18.962 128.731 14.75H146.047C153.223 14.75 157.24 16.973 157.24 23.291C157.24 28.868 155.329 31.091 150.259 31.754ZM160.113 14.75H183.981C183.942 15.686 183.903 17.324 183.903 18.65C183.903 20.054 183.942 21.809 183.981 22.784C179.886 22.706 175.557 22.706 172.164 22.706V25.592C176.142 25.592 180.315 25.553 183.669 25.436C183.63 27.074 183.591 30.545 183.63 32.339C180.354 32.261 176.103 32.183 172.164 32.183V35.186C175.674 35.186 180.237 35.147 183.981 35.108C183.942 36.239 183.942 38.072 183.942 39.632C183.942 41.075 183.942 42.83 183.981 44H160.113C160.23 39.905 160.269 35.615 160.269 29.375C160.269 23.174 160.23 18.767 160.113 14.75ZM205.761 14.75H216.096C215.979 17.285 215.94 23.135 215.94 29.336C215.94 35.849 215.94 40.295 216.018 44H203.811C202.836 41.621 200.925 38.111 199.209 34.991C198.351 33.002 197.688 31.013 197.142 28.985L197.025 29.024C197.22 31.481 197.298 33.665 197.376 35.966C197.454 40.022 197.454 42.791 197.532 44H187.002C187.041 40.022 187.08 35.615 187.08 29.375C187.08 23.174 187.119 18.767 187.002 14.75H200.106C200.613 16.388 203.031 21.146 204.591 24.734C205.176 26.216 205.722 27.893 206.19 29.648H206.307C206.151 27.542 206.073 25.631 206.034 24.032C205.995 20.6 205.878 16.934 205.761 14.75ZM233.297 35.303C235.832 35.303 236.885 34.445 236.885 28.79C236.885 23.213 235.832 22.472 233.336 22.472C232.673 22.472 231.971 22.511 231.308 22.511C231.23 24.695 231.23 26.957 231.23 29.258C231.23 31.754 231.23 33.665 231.269 35.264C231.932 35.303 232.595 35.303 233.297 35.303ZM219.374 14.75H234.857C244.49 14.75 248.819 17.051 248.819 28.205C248.819 41.036 245.075 44 234.701 44H219.374C219.452 39.866 219.491 35.615 219.491 29.414C219.491 23.213 219.452 18.728 219.374 14.75Z"/>
</mask>
<path d="M88.235 10.265H93.656C93.539 11.708 93.422 13.112 93.383 14.828C99.818 15.491 101.573 17.675 101.573 22.238C101.573 22.862 101.534 23.525 101.495 24.227C99.935 24.071 97.322 23.954 95.216 23.954C93.89 23.954 92.681 23.954 91.901 24.032C91.94 23.72 91.94 23.447 91.94 23.252C91.94 21.614 91.238 20.951 89.093 20.951C87.182 20.951 86.558 21.614 86.558 22.706C86.558 24.227 87.143 25.241 91.94 25.982C99.623 27.23 102.002 29.57 102.002 35.459C102.002 40.334 99.779 43.064 93.344 43.844C93.383 45.56 93.5 46.964 93.617 48.368H88.157H82.775C82.892 46.964 83.009 45.56 83.048 43.844C76.808 43.142 75.014 40.841 75.014 36.512C75.014 35.771 75.053 34.991 75.131 34.172C76.925 34.289 79.499 34.484 81.917 34.484C83.048 34.484 84.101 34.445 84.842 34.406C84.803 34.679 84.803 34.952 84.803 35.186C84.803 36.941 85.466 37.682 87.611 37.682C89.678 37.682 90.341 37.019 90.341 35.771C90.341 34.094 89.561 33.158 85.271 32.534C76.652 31.364 74.975 28.478 74.975 23.213C74.975 18.377 77.393 15.803 83.126 14.945C83.048 13.151 82.97 11.747 82.814 10.265H88.235ZM103.185 14.75H126.585C126.507 16.115 126.507 18.26 126.507 20.171C126.507 22.043 126.507 24.344 126.585 25.826C124.791 25.787 123.036 25.787 121.32 25.748C121.359 34.211 121.398 42.128 121.476 44.039C119.76 43.922 116.913 43.922 114.885 43.922C112.857 43.922 110.088 43.922 108.294 44.039C108.372 42.128 108.45 34.211 108.489 25.748C106.773 25.748 104.979 25.787 103.185 25.826C103.224 24.344 103.224 22.043 103.224 20.171C103.224 18.26 103.224 16.115 103.185 14.75ZM143.083 28.634C144.916 28.634 145.696 27.659 145.696 25.124C145.696 22.316 144.76 21.653 142.732 21.692C142.225 21.653 141.211 21.692 140.236 21.731C140.236 24.032 140.236 26.372 140.275 28.595C141.055 28.634 141.991 28.634 143.083 28.634ZM150.259 31.754V32.027C154.51 32.612 156.265 33.86 157.006 38.033C157.357 39.944 157.747 42.596 158.059 44H147.88C146.164 44 145.696 43.376 145.345 40.88C144.76 35.732 144.37 34.718 142.459 34.718C141.679 34.718 141.172 34.718 140.353 34.757C140.431 38.462 140.587 41.699 140.821 44H128.731C128.77 39.788 128.887 35.615 128.887 29.375C128.887 23.174 128.848 18.962 128.731 14.75H146.047C153.223 14.75 157.24 16.973 157.24 23.291C157.24 28.868 155.329 31.091 150.259 31.754ZM160.113 14.75H183.981C183.942 15.686 183.903 17.324 183.903 18.65C183.903 20.054 183.942 21.809 183.981 22.784C179.886 22.706 175.557 22.706 172.164 22.706V25.592C176.142 25.592 180.315 25.553 183.669 25.436C183.63 27.074 183.591 30.545 183.63 32.339C180.354 32.261 176.103 32.183 172.164 32.183V35.186C175.674 35.186 180.237 35.147 183.981 35.108C183.942 36.239 183.942 38.072 183.942 39.632C183.942 41.075 183.942 42.83 183.981 44H160.113C160.23 39.905 160.269 35.615 160.269 29.375C160.269 23.174 160.23 18.767 160.113 14.75ZM205.761 14.75H216.096C215.979 17.285 215.94 23.135 215.94 29.336C215.94 35.849 215.94 40.295 216.018 44H203.811C202.836 41.621 200.925 38.111 199.209 34.991C198.351 33.002 197.688 31.013 197.142 28.985L197.025 29.024C197.22 31.481 197.298 33.665 197.376 35.966C197.454 40.022 197.454 42.791 197.532 44H187.002C187.041 40.022 187.08 35.615 187.08 29.375C187.08 23.174 187.119 18.767 187.002 14.75H200.106C200.613 16.388 203.031 21.146 204.591 24.734C205.176 26.216 205.722 27.893 206.19 29.648H206.307C206.151 27.542 206.073 25.631 206.034 24.032C205.995 20.6 205.878 16.934 205.761 14.75ZM233.297 35.303C235.832 35.303 236.885 34.445 236.885 28.79C236.885 23.213 235.832 22.472 233.336 22.472C232.673 22.472 231.971 22.511 231.308 22.511C231.23 24.695 231.23 26.957 231.23 29.258C231.23 31.754 231.23 33.665 231.269 35.264C231.932 35.303 232.595 35.303 233.297 35.303ZM219.374 14.75H234.857C244.49 14.75 248.819 17.051 248.819 28.205C248.819 41.036 245.075 44 234.701 44H219.374C219.452 39.866 219.491 35.615 219.491 29.414C219.491 23.213 219.452 18.728 219.374 14.75Z" fill="url(#paint6_linear_441_3504)"/>
<path d="M93.656 10.265L94.1544 10.3054L94.1982 9.765H93.656V10.265ZM93.383 14.828L92.8831 14.8166L92.8726 15.2781L93.3318 15.3254L93.383 14.828ZM101.495 24.227L101.445 24.7245L101.965 24.7765L101.994 24.2547L101.495 24.227ZM91.901 24.032L91.4049 23.97L91.3271 24.5919L91.9508 24.5295L91.901 24.032ZM91.94 25.982L92.0202 25.4885L92.0163 25.4879L91.94 25.982ZM93.344 43.844L93.2838 43.3476L92.8338 43.4022L92.8441 43.8554L93.344 43.844ZM93.617 48.368V48.868H94.1604L94.1153 48.3265L93.617 48.368ZM82.775 48.368L82.2767 48.3265L82.2316 48.868H82.775V48.368ZM83.048 43.844L83.5479 43.8554L83.5583 43.3983L83.1039 43.3471L83.048 43.844ZM75.131 34.172L75.1635 33.6731L74.6793 33.6415L74.6333 34.1246L75.131 34.172ZM84.842 34.406L85.337 34.4767L85.423 33.8747L84.8157 33.9067L84.842 34.406ZM85.271 32.534L85.343 32.0392L85.3383 32.0385L85.271 32.534ZM83.126 14.945L83.2 15.4395L83.6451 15.3729L83.6255 14.9233L83.126 14.945ZM82.814 10.265V9.765H82.2586L82.3167 10.3173L82.814 10.265ZM88.235 10.765H93.656V9.765H88.235V10.765ZM93.1576 10.2246C93.0407 11.6662 92.9225 13.084 92.8831 14.8166L93.8829 14.8394C93.9215 13.1399 94.0373 11.7498 94.1544 10.3054L93.1576 10.2246ZM93.3318 15.3254C96.5205 15.6539 98.4256 16.3514 99.544 17.4303C100.643 18.4905 101.073 20.0099 101.073 22.238H102.073C102.073 19.9031 101.626 18.049 100.238 16.7107C98.8704 15.3911 96.6805 14.6651 93.4342 14.3306L93.3318 15.3254ZM101.073 22.238C101.073 22.8451 101.035 23.4924 100.996 24.1993L101.994 24.2547C102.033 23.5576 102.073 22.8789 102.073 22.238H101.073ZM101.545 23.7295C99.9645 23.5715 97.3344 23.454 95.216 23.454V24.454C97.3096 24.454 99.9055 24.5705 101.445 24.7245L101.545 23.7295ZM95.216 23.454C93.9022 23.454 92.6624 23.4534 91.8512 23.5345L91.9508 24.5295C92.6996 24.4546 93.8778 24.454 95.216 24.454V23.454ZM92.3971 24.094C92.4404 23.7481 92.44 23.4475 92.44 23.252H91.44C91.44 23.4465 91.4396 23.6919 91.4049 23.97L92.3971 24.094ZM92.44 23.252C92.44 22.3752 92.2535 21.6147 91.6414 21.1035C91.0559 20.6145 90.1898 20.451 89.093 20.451V21.451C90.1412 21.451 90.6986 21.619 91.0004 21.871C91.2755 22.1008 91.44 22.4908 91.44 23.252H92.44ZM89.093 20.451C88.0985 20.451 87.3303 20.6199 86.805 21.022C86.2481 21.4482 86.058 22.06 86.058 22.706H87.058C87.058 22.26 87.1799 21.9943 87.4128 21.816C87.6772 21.6136 88.1765 21.451 89.093 21.451V20.451ZM86.058 22.706C86.058 23.1138 86.0962 23.5363 86.2609 23.943C86.4296 24.3597 86.7166 24.7249 87.1583 25.0425C88.0092 25.6543 89.4612 26.105 91.8637 26.4761L92.0163 25.4879C89.6218 25.118 88.3828 24.6912 87.742 24.2305C87.4378 24.0118 87.2787 23.7921 87.1878 23.5677C87.0929 23.3334 87.058 23.0587 87.058 22.706H86.058ZM91.8598 26.4755C95.6846 27.0968 98.0688 27.9759 99.5078 29.3427C100.919 30.6834 101.502 32.5756 101.502 35.459H102.502C102.502 32.4534 101.895 30.2311 100.196 28.6176C98.5252 27.0301 95.8784 26.1152 92.0202 25.4885L91.8598 26.4755ZM101.502 35.459C101.502 37.8239 100.964 39.576 99.7288 40.8374C98.4834 42.1095 96.4514 42.9637 93.2838 43.3476L93.4042 44.3404C96.6716 43.9443 98.9686 43.0435 100.443 41.5369C101.929 40.0195 102.502 37.9691 102.502 35.459H101.502ZM92.8441 43.8554C92.8835 45.5881 93.0017 47.0058 93.1187 48.4095L94.1153 48.3265C93.9983 46.9222 93.8825 45.5319 93.8439 43.8326L92.8441 43.8554ZM93.617 47.868H88.157V48.868H93.617V47.868ZM88.157 47.868H82.775V48.868H88.157V47.868ZM83.2733 48.4095C83.3903 47.0058 83.5085 45.5881 83.5479 43.8554L82.5481 43.8326C82.5095 45.5319 82.3937 46.9222 82.2767 48.3265L83.2733 48.4095ZM83.1039 43.3471C80.0206 43.0003 78.1492 42.2673 77.041 41.181C75.9498 40.1115 75.514 38.6139 75.514 36.512H74.514C74.514 38.7391 74.9752 40.5565 76.341 41.8952C77.6898 43.2172 79.8354 43.9857 82.9921 44.3409L83.1039 43.3471ZM75.514 36.512C75.514 35.7884 75.5521 35.0243 75.6287 34.2194L74.6333 34.1246C74.5539 34.9577 74.514 35.7536 74.514 36.512H75.514ZM75.0985 34.6709C76.8842 34.7874 79.4785 34.984 81.917 34.984V33.984C79.5195 33.984 76.9658 33.7906 75.1635 33.6731L75.0985 34.6709ZM81.917 34.984C83.0587 34.984 84.1207 34.9447 84.8683 34.9053L84.8157 33.9067C84.0813 33.9453 83.0373 33.984 81.917 33.984V34.984ZM84.347 34.3353C84.3022 34.6488 84.303 34.9564 84.303 35.186H85.303C85.303 34.9476 85.3038 34.7092 85.337 34.4767L84.347 34.3353ZM84.303 35.186C84.303 36.1064 84.4729 36.9087 85.0616 37.4578C85.6394 37.9966 86.5061 38.182 87.611 38.182V37.182C86.5709 37.182 86.0336 36.9969 85.7436 36.7265C85.4646 36.4663 85.303 36.0206 85.303 35.186H84.303ZM87.611 38.182C88.6756 38.182 89.4958 38.0158 90.0533 37.5928C90.6469 37.1425 90.841 36.4849 90.841 35.771H89.841C89.841 36.3051 89.7036 36.603 89.4489 36.7962C89.1582 37.0167 88.6134 37.182 87.611 37.182V38.182ZM90.841 35.771C90.841 35.3165 90.7888 34.8698 90.613 34.4517C90.4337 34.0252 90.1392 33.6602 89.7051 33.3506C88.8675 32.753 87.4923 32.3518 85.343 32.0392L85.199 33.0288C87.3397 33.3402 88.4995 33.719 89.1244 34.1647C89.4215 34.3766 89.5902 34.5991 89.6912 34.8393C89.7957 35.0878 89.841 35.387 89.841 35.771H90.841ZM85.3383 32.0385C81.0555 31.4572 78.6234 30.4614 77.2478 29.059C75.8913 27.676 75.475 25.8057 75.475 23.213H74.475C74.475 25.8853 74.8972 28.0905 76.5339 29.7592C78.1516 31.4086 80.8675 32.4408 85.2037 33.0295L85.3383 32.0385ZM75.475 23.213C75.475 20.879 76.0565 19.1695 77.2587 17.9363C78.4717 16.6919 80.3856 15.8607 83.2 15.4395L83.052 14.4505C80.1334 14.8873 77.9718 15.7721 76.5426 17.2382C75.1025 18.7155 74.475 20.711 74.475 23.213H75.475ZM83.6255 14.9233C83.5474 13.1269 83.4689 11.7105 83.3113 10.2127L82.3167 10.3173C82.4711 11.7835 82.5486 13.1751 82.6265 14.9667L83.6255 14.9233ZM82.814 10.765H88.235V9.765H82.814V10.765ZM103.185 14.75V14.25H102.67L102.685 14.7643L103.185 14.75ZM126.585 14.75L127.084 14.7785L127.114 14.25H126.585V14.75ZM126.585 25.826L126.574 26.3259L127.112 26.3376L127.084 25.7997L126.585 25.826ZM121.32 25.748L121.331 25.2481L120.817 25.2365L120.82 25.7503L121.32 25.748ZM121.476 44.039L121.442 44.5378L121.998 44.5758L121.975 44.0186L121.476 44.039ZM108.294 44.039L107.794 44.0186L107.772 44.5741L108.326 44.5379L108.294 44.039ZM108.489 25.748L108.989 25.7503L108.991 25.248H108.489V25.748ZM103.185 25.826L102.685 25.8128L102.671 26.3373L103.196 26.3259L103.185 25.826ZM103.185 15.25H126.585V14.25H103.185V15.25ZM126.086 14.7215C126.007 16.1042 126.007 18.2665 126.007 20.171H127.007C127.007 18.2535 127.007 16.1258 127.084 14.7785L126.086 14.7215ZM126.007 20.171C126.007 22.0373 126.007 24.354 126.085 25.8523L127.084 25.7997C127.007 24.334 127.007 22.0487 127.007 20.171H126.007ZM126.596 25.3261C125.696 25.3065 124.806 25.2968 123.929 25.287C123.051 25.2773 122.186 25.2676 121.331 25.2481L121.308 26.2479C122.17 26.2674 123.04 26.2772 123.917 26.287C124.795 26.2967 125.68 26.3064 126.574 26.3259L126.596 25.3261ZM120.82 25.7503C120.859 34.2049 120.898 42.1365 120.976 44.0594L121.975 44.0186C121.898 42.1195 121.859 34.2171 121.82 25.7457L120.82 25.7503ZM121.51 43.5402C119.773 43.4217 116.905 43.422 114.885 43.422V44.422C116.92 44.422 119.747 44.4223 121.442 44.5378L121.51 43.5402ZM114.885 43.422C112.863 43.422 110.075 43.4217 108.261 43.5401L108.326 44.5379C110.1 44.4222 112.85 44.422 114.885 44.422V43.422ZM108.793 44.0594C108.872 42.137 108.95 34.2084 108.989 25.7503L107.989 25.7457C107.95 34.2136 107.872 42.119 107.794 44.0186L108.793 44.0594ZM108.489 25.248C106.766 25.248 104.967 25.2871 103.174 25.3261L103.196 26.3259C104.991 26.2869 106.779 26.248 108.489 26.248V25.248ZM103.685 25.8392C103.724 24.349 103.724 22.0402 103.724 20.171H102.724C102.724 22.0458 102.724 24.339 102.685 25.8128L103.685 25.8392ZM103.724 20.171C103.724 18.2633 103.724 16.1096 103.685 14.7357L102.685 14.7643C102.724 16.1204 102.724 18.2567 102.724 20.171H103.724ZM142.732 21.692L142.693 22.1905L142.717 22.1924L142.741 22.1919L142.732 21.692ZM140.236 21.731L140.216 21.2314L139.736 21.2506V21.731H140.236ZM140.275 28.595L139.775 28.6038L139.783 29.071L140.25 29.0944L140.275 28.595ZM150.259 31.754L150.194 31.2582L149.759 31.3151V31.754H150.259ZM150.259 32.027H149.759V32.4629L150.191 32.5223L150.259 32.027ZM157.006 38.033L156.513 38.1204L156.514 38.1233L157.006 38.033ZM158.059 44V44.5H158.682L158.547 43.8915L158.059 44ZM145.345 40.88L144.848 40.9365L144.85 40.9496L145.345 40.88ZM140.353 34.757L140.329 34.2576L139.843 34.2807L139.853 34.7675L140.353 34.757ZM140.821 44V44.5H141.374L141.318 43.9494L140.821 44ZM128.731 44L128.231 43.9954L128.226 44.5H128.731V44ZM128.731 14.75V14.25H128.217L128.231 14.7639L128.731 14.75ZM143.083 29.134C144.088 29.134 144.922 28.8627 145.475 28.1313C146.001 27.436 146.196 26.4193 146.196 25.124H145.196C145.196 26.3636 145 27.102 144.678 27.528C144.383 27.9178 143.911 28.134 143.083 28.134V29.134ZM146.196 25.124C146.196 23.6947 145.964 22.6549 145.336 21.9955C144.696 21.3232 143.766 21.172 142.722 21.1921L142.741 22.1919C143.725 22.173 144.277 22.3338 144.612 22.6852C144.959 23.0496 145.196 23.7453 145.196 25.124H146.196ZM142.77 21.1935C142.226 21.1516 141.174 21.1931 140.216 21.2314L140.256 22.2306C141.248 22.1909 142.223 22.1544 142.693 22.1905L142.77 21.1935ZM139.736 21.731C139.736 24.0311 139.736 26.3756 139.775 28.6038L140.775 28.5862C140.736 26.3684 140.736 24.0329 140.736 21.731H139.736ZM140.25 29.0944C141.045 29.1341 141.995 29.134 143.083 29.134V28.134C141.986 28.134 141.064 28.1339 140.3 28.0956L140.25 29.0944ZM149.759 31.754V32.027H150.759V31.754H149.759ZM150.191 32.5223C152.295 32.8119 153.675 33.2551 154.624 34.0649C155.56 34.8635 156.152 36.0856 156.513 38.1204L157.498 37.9456C157.118 35.8074 156.462 34.319 155.273 33.3041C154.097 32.3004 152.474 31.8271 150.327 31.5317L150.191 32.5223ZM156.514 38.1233C156.858 39.9971 157.257 42.6968 157.571 44.1085L158.547 43.8915C158.237 42.4952 157.855 39.8909 157.497 37.9427L156.514 38.1233ZM158.059 43.5H147.88V44.5H158.059V43.5ZM147.88 43.5C147.07 43.5 146.721 43.3508 146.49 43.0632C146.212 42.7166 146.017 42.0718 145.84 40.8104L144.85 40.9496C145.023 42.1842 145.238 43.0994 145.71 43.6888C146.23 44.3372 146.973 44.5 147.88 44.5V43.5ZM145.842 40.8235C145.695 39.5349 145.56 38.4924 145.408 37.6561C145.257 36.8242 145.085 36.1663 144.854 35.6609C144.619 35.1457 144.31 34.7618 143.877 34.5203C143.455 34.2847 142.973 34.218 142.459 34.218V35.218C142.9 35.218 143.183 35.2781 143.39 35.3935C143.586 35.503 143.77 35.6943 143.944 36.0761C144.123 36.4677 144.277 37.0285 144.424 37.8347C144.569 38.6364 144.702 39.6511 144.848 40.9365L145.842 40.8235ZM142.459 34.218C141.678 34.218 141.161 34.218 140.329 34.2576L140.376 35.2564C141.183 35.218 141.68 35.218 142.459 35.218V34.218ZM139.853 34.7675C139.931 38.4774 140.087 41.7299 140.323 44.0506L141.318 43.9494C141.086 41.6681 140.93 38.4466 140.853 34.7465L139.853 34.7675ZM140.821 43.5H128.731V44.5H140.821V43.5ZM129.231 44.0046C129.27 39.8047 129.387 35.6161 129.387 29.375H128.387C128.387 35.6139 128.27 39.7713 128.231 43.9954L129.231 44.0046ZM129.387 29.375C129.387 23.172 129.348 18.9548 129.231 14.7361L128.231 14.7639C128.348 18.9692 128.387 23.176 128.387 29.375H129.387ZM128.731 15.25H146.047V14.25H128.731V15.25ZM146.047 15.25C149.603 15.25 152.273 15.8048 154.045 17.0594C155.78 18.2873 156.74 20.248 156.74 23.291H157.74C157.74 20.016 156.69 17.7062 154.623 16.2431C152.593 14.8067 149.667 14.25 146.047 14.25V15.25ZM156.74 23.291C156.74 26.0386 156.266 27.8444 155.266 29.0454C154.272 30.2396 152.677 30.9335 150.194 31.2582L150.324 32.2498C152.91 31.9115 154.805 31.1624 156.035 29.6851C157.258 28.2146 157.74 26.1204 157.74 23.291H156.74ZM160.113 14.75V14.25H159.598L159.613 14.7646L160.113 14.75ZM183.981 14.75L184.48 14.7708L184.502 14.25H183.981V14.75ZM183.981 22.784L183.971 23.2839L184.501 23.294L184.48 22.764L183.981 22.784ZM172.164 22.706V22.206H171.664V22.706H172.164ZM172.164 25.592H171.664V26.092H172.164V25.592ZM183.669 25.436L184.168 25.4479L184.181 24.9178L183.651 24.9363L183.669 25.436ZM183.63 32.339L183.618 32.8389L184.141 32.8513L184.129 32.3281L183.63 32.339ZM172.164 32.183V31.683H171.664V32.183H172.164ZM172.164 35.186H171.664V35.686H172.164V35.186ZM183.981 35.108L184.48 35.1252L184.498 34.6026L183.975 34.608L183.981 35.108ZM183.981 44V44.5H184.498L184.48 43.9833L183.981 44ZM160.113 44L159.613 43.9857L159.598 44.5H160.113V44ZM160.113 15.25H183.981V14.25H160.113V15.25ZM183.481 14.7292C183.442 15.6719 183.403 17.3169 183.403 18.65H184.403C184.403 17.3311 184.441 15.7001 184.48 14.7708L183.481 14.7292ZM183.403 18.65C183.403 20.0606 183.442 21.8222 183.481 22.804L184.48 22.764C184.441 21.7958 184.403 20.0474 184.403 18.65H183.403ZM183.99 22.2841C179.89 22.206 175.556 22.206 172.164 22.206V23.206C175.557 23.206 179.882 23.206 183.971 23.2839L183.99 22.2841ZM171.664 22.706V25.592H172.664V22.706H171.664ZM172.164 26.092C176.144 26.092 180.323 26.053 183.686 25.9357L183.651 24.9363C180.306 25.053 176.14 25.092 172.164 25.092V26.092ZM183.169 25.4241C183.13 27.0647 183.09 30.5446 183.13 32.3499L184.129 32.3281C184.091 30.5454 184.13 27.0833 184.168 25.4479L183.169 25.4241ZM183.642 31.8391C180.364 31.7611 176.108 31.683 172.164 31.683V32.683C176.097 32.683 180.343 32.7609 183.618 32.8389L183.642 31.8391ZM171.664 32.183V35.186H172.664V32.183H171.664ZM172.164 35.686C175.676 35.686 180.242 35.647 183.986 35.608L183.975 34.608C180.232 34.647 175.671 34.686 172.164 34.686V35.686ZM183.481 35.0908C183.442 36.2325 183.442 38.076 183.442 39.632H184.442C184.442 38.068 184.442 36.2455 184.48 35.1252L183.481 35.0908ZM183.442 39.632C183.442 41.0716 183.442 42.8364 183.481 44.0167L184.48 43.9833C184.442 42.8236 184.442 41.0784 184.442 39.632H183.442ZM183.981 43.5H160.113V44.5H183.981V43.5ZM160.612 44.0143C160.73 39.9122 160.769 35.6167 160.769 29.375H159.769C159.769 35.6133 159.73 39.8978 159.613 43.9857L160.612 44.0143ZM160.769 29.375C160.769 23.1724 160.73 18.7597 160.612 14.7354L159.613 14.7646C159.73 18.7743 159.769 23.1756 159.769 29.375H160.769ZM205.761 14.75V14.25H205.234L205.262 14.7767L205.761 14.75ZM216.096 14.75L216.596 14.7731L216.62 14.25H216.096V14.75ZM216.018 44V44.5H216.529L216.518 43.9895L216.018 44ZM203.811 44L203.349 44.1896L203.476 44.5H203.811V44ZM199.209 34.991L198.75 35.189L198.76 35.211L198.771 35.232L199.209 34.991ZM197.142 28.985L197.625 28.855L197.487 28.343L196.984 28.5107L197.142 28.985ZM197.025 29.024L196.867 28.5497L196.496 28.6734L196.527 29.0636L197.025 29.024ZM197.376 35.966L197.876 35.9564L197.876 35.9491L197.376 35.966ZM197.532 44V44.5H198.065L198.031 43.9678L197.532 44ZM187.002 44L186.502 43.9951L186.497 44.5H187.002V44ZM187.002 14.75V14.25H186.487L186.502 14.7646L187.002 14.75ZM200.106 14.75L200.584 14.6022L200.475 14.25H200.106V14.75ZM204.591 24.734L205.056 24.5504L205.053 24.5425L205.05 24.5346L204.591 24.734ZM206.19 29.648L205.707 29.7768L205.806 30.148H206.19V29.648ZM206.307 29.648V30.148H206.846L206.806 29.6111L206.307 29.648ZM206.034 24.032L205.534 24.0377L205.534 24.0442L206.034 24.032ZM205.761 15.25H216.096V14.25H205.761V15.25ZM215.597 14.7269C215.479 17.276 215.44 23.139 215.44 29.336H216.44C216.44 23.131 216.479 17.294 216.596 14.7731L215.597 14.7269ZM215.44 29.336C215.44 35.8469 215.44 40.299 215.518 44.0105L216.518 43.9895C216.44 40.291 216.44 35.8511 216.44 29.336H215.44ZM216.018 43.5H203.811V44.5H216.018V43.5ZM204.274 43.8104C203.286 41.3991 201.358 37.861 199.647 34.75L198.771 35.232C200.492 38.361 202.387 41.8429 203.349 44.1896L204.274 43.8104ZM199.668 34.793C198.821 32.8296 198.166 30.8639 197.625 28.855L196.659 29.115C197.211 31.1621 197.881 33.1744 198.75 35.189L199.668 34.793ZM196.984 28.5107L196.867 28.5497L197.183 29.4983L197.3 29.4593L196.984 28.5107ZM196.527 29.0636C196.721 31.508 196.798 33.6818 196.876 35.9829L197.876 35.9491C197.798 33.6482 197.72 31.454 197.524 28.9844L196.527 29.0636ZM196.876 35.9756C196.954 40.0098 196.954 42.8085 197.033 44.0322L198.031 43.9678C197.954 42.7735 197.955 40.0342 197.876 35.9564L196.876 35.9756ZM197.532 43.5H187.002V44.5H197.532V43.5ZM187.502 44.0049C187.541 40.0262 187.58 35.6174 187.58 29.375H186.58C186.58 35.6126 186.541 40.0178 186.502 43.9951L187.502 44.0049ZM187.58 29.375C187.58 23.1811 187.619 18.762 187.502 14.7354L186.502 14.7646C186.619 18.7719 186.58 23.1669 186.58 29.375H187.58ZM187.002 15.25H200.106V14.25H187.002V15.25ZM199.629 14.8978C199.895 15.7583 200.646 17.3959 201.501 19.2228C202.366 21.0709 203.356 23.1477 204.133 24.9334L205.05 24.5346C204.266 22.7323 203.267 20.6361 202.407 18.7987C201.536 16.9401 200.825 15.3797 200.584 14.6022L199.629 14.8978ZM204.126 24.9176C204.703 26.3795 205.243 28.038 205.707 29.7768L206.673 29.5192C206.201 27.748 205.649 26.0525 205.056 24.5504L204.126 24.9176ZM206.19 30.148H206.307V29.148H206.19V30.148ZM206.806 29.6111C206.651 27.5149 206.573 25.6123 206.534 24.0198L205.534 24.0442C205.574 25.6497 205.652 27.5691 205.809 29.6849L206.806 29.6111ZM206.534 24.0263C206.495 20.5889 206.378 16.9157 206.26 14.7233L205.262 14.7767C205.378 16.9523 205.495 20.6111 205.534 24.0377L206.534 24.0263ZM231.308 22.511V22.011H230.826L230.809 22.4932L231.308 22.511ZM231.269 35.264L230.769 35.2762L230.781 35.7361L231.24 35.7631L231.269 35.264ZM219.374 14.75V14.25H218.864L218.874 14.7598L219.374 14.75ZM219.374 44L218.874 43.9906L218.865 44.5H219.374V44ZM233.297 35.803C234.608 35.803 235.741 35.5832 236.465 34.4335C236.806 33.8926 237.031 33.1808 237.175 32.2714C237.319 31.359 237.385 30.2159 237.385 28.79H236.385C236.385 30.1916 236.32 31.2763 236.187 32.1153C236.054 32.9573 235.858 33.5203 235.619 33.9007C235.182 34.5938 234.522 34.803 233.297 34.803V35.803ZM237.385 28.79C237.385 27.3835 237.319 26.2616 237.175 25.3704C237.032 24.4821 236.807 23.7898 236.466 23.2666C235.742 22.1558 234.613 21.972 233.336 21.972V22.972C234.555 22.972 235.202 23.1587 235.628 23.8127C235.862 24.1719 236.056 24.7105 236.188 25.5296C236.32 26.3459 236.385 27.408 236.385 28.79H237.385ZM233.336 21.972C232.996 21.972 232.648 21.982 232.308 21.9917C231.965 22.0015 231.631 22.011 231.308 22.011V23.011C231.648 23.011 231.997 23.001 232.337 22.9913C232.679 22.9815 233.013 22.972 233.336 22.972V21.972ZM230.809 22.4932C230.73 24.6876 230.73 26.9588 230.73 29.258H231.73C231.73 26.9552 231.73 24.7024 231.808 22.5288L230.809 22.4932ZM230.73 29.258C230.73 31.7518 230.73 33.6697 230.769 35.2762L231.769 35.2518C231.73 33.6603 231.73 31.7562 231.73 29.258H230.73ZM231.24 35.7631C231.92 35.8031 232.598 35.803 233.297 35.803V34.803C232.593 34.803 231.945 34.8029 231.299 34.7649L231.24 35.7631ZM219.374 15.25H234.857V14.25H219.374V15.25ZM234.857 15.25C239.67 15.25 242.989 15.8341 245.124 17.6736C247.24 19.4957 248.319 22.6672 248.319 28.205H249.319C249.319 22.5888 248.235 19.0328 245.777 16.9159C243.34 14.8164 239.678 14.25 234.857 14.25V15.25ZM248.319 28.205C248.319 34.6088 247.376 38.3769 245.288 40.5693C243.211 42.7515 239.876 43.5 234.701 43.5V44.5C239.901 44.5 243.625 43.7665 246.013 41.2589C248.391 38.7616 249.319 34.6322 249.319 28.205H248.319ZM234.701 43.5H219.374V44.5H234.701V43.5ZM219.874 44.0094C219.952 39.8716 219.991 35.6173 219.991 29.414H218.991C218.991 35.6127 218.952 39.8604 218.874 43.9906L219.874 44.0094ZM219.991 29.414C219.991 23.2109 219.952 18.7225 219.874 14.7402L218.874 14.7598C218.952 18.7335 218.991 23.2151 218.991 29.414H219.991Z" fill="url(#paint7_linear_441_3504)" mask="url(#path-10-outside-1_441_3504)"/>
<g style="mix-blend-mode:soft-light" opacity="0.4">
<mask id="mask2_441_3504" style="mask-type:alpha" maskUnits="userSpaceOnUse" x="74" y="10" width="175" height="39">
<path d="M88.235 10.265H93.656C93.539 11.708 93.422 13.112 93.383 14.828C99.818 15.491 101.573 17.675 101.573 22.238C101.573 22.862 101.534 23.525 101.495 24.227C99.935 24.071 97.322 23.954 95.216 23.954C93.89 23.954 92.681 23.954 91.901 24.032C91.94 23.72 91.94 23.447 91.94 23.252C91.94 21.614 91.238 20.951 89.093 20.951C87.182 20.951 86.558 21.614 86.558 22.706C86.558 24.227 87.143 25.241 91.94 25.982C99.623 27.23 102.002 29.57 102.002 35.459C102.002 40.334 99.779 43.064 93.344 43.844C93.383 45.56 93.5 46.964 93.617 48.368H88.157H82.775C82.892 46.964 83.009 45.56 83.048 43.844C76.808 43.142 75.014 40.841 75.014 36.512C75.014 35.771 75.053 34.991 75.131 34.172C76.925 34.289 79.499 34.484 81.917 34.484C83.048 34.484 84.101 34.445 84.842 34.406C84.803 34.679 84.803 34.952 84.803 35.186C84.803 36.941 85.466 37.682 87.611 37.682C89.678 37.682 90.341 37.019 90.341 35.771C90.341 34.094 89.561 33.158 85.271 32.534C76.652 31.364 74.975 28.478 74.975 23.213C74.975 18.377 77.393 15.803 83.126 14.945C83.048 13.151 82.97 11.747 82.814 10.265H88.235ZM103.185 14.75H126.585C126.507 16.115 126.507 18.26 126.507 20.171C126.507 22.043 126.507 24.344 126.585 25.826C124.791 25.787 123.036 25.787 121.32 25.748C121.359 34.211 121.398 42.128 121.476 44.039C119.76 43.922 116.913 43.922 114.885 43.922C112.857 43.922 110.088 43.922 108.294 44.039C108.372 42.128 108.45 34.211 108.489 25.748C106.773 25.748 104.979 25.787 103.185 25.826C103.224 24.344 103.224 22.043 103.224 20.171C103.224 18.26 103.224 16.115 103.185 14.75ZM143.083 28.634C144.916 28.634 145.696 27.659 145.696 25.124C145.696 22.316 144.76 21.653 142.732 21.692C142.225 21.653 141.211 21.692 140.236 21.731C140.236 24.032 140.236 26.372 140.275 28.595C141.055 28.634 141.991 28.634 143.083 28.634ZM150.259 31.754V32.027C154.51 32.612 156.265 33.86 157.006 38.033C157.357 39.944 157.747 42.596 158.059 44H147.88C146.164 44 145.696 43.376 145.345 40.88C144.76 35.732 144.37 34.718 142.459 34.718C141.679 34.718 141.172 34.718 140.353 34.757C140.431 38.462 140.587 41.699 140.821 44H128.731C128.77 39.788 128.887 35.615 128.887 29.375C128.887 23.174 128.848 18.962 128.731 14.75H146.047C153.223 14.75 157.24 16.973 157.24 23.291C157.24 28.868 155.329 31.091 150.259 31.754ZM160.113 14.75H183.981C183.942 15.686 183.903 17.324 183.903 18.65C183.903 20.054 183.942 21.809 183.981 22.784C179.886 22.706 175.557 22.706 172.164 22.706V25.592C176.142 25.592 180.315 25.553 183.669 25.436C183.63 27.074 183.591 30.545 183.63 32.339C180.354 32.261 176.103 32.183 172.164 32.183V35.186C175.674 35.186 180.237 35.147 183.981 35.108C183.942 36.239 183.942 38.072 183.942 39.632C183.942 41.075 183.942 42.83 183.981 44H160.113C160.23 39.905 160.269 35.615 160.269 29.375C160.269 23.174 160.23 18.767 160.113 14.75ZM205.761 14.75H216.096C215.979 17.285 215.94 23.135 215.94 29.336C215.94 35.849 215.94 40.295 216.018 44H203.811C202.836 41.621 200.925 38.111 199.209 34.991C198.351 33.002 197.688 31.013 197.142 28.985L197.025 29.024C197.22 31.481 197.298 33.665 197.376 35.966C197.454 40.022 197.454 42.791 197.532 44H187.002C187.041 40.022 187.08 35.615 187.08 29.375C187.08 23.174 187.119 18.767 187.002 14.75H200.106C200.613 16.388 203.031 21.146 204.591 24.734C205.176 26.216 205.722 27.893 206.19 29.648H206.307C206.151 27.542 206.073 25.631 206.034 24.032C205.995 20.6 205.878 16.934 205.761 14.75ZM233.297 35.303C235.832 35.303 236.885 34.445 236.885 28.79C236.885 23.213 235.832 22.472 233.336 22.472C232.673 22.472 231.971 22.511 231.308 22.511C231.23 24.695 231.23 26.957 231.23 29.258C231.23 31.754 231.23 33.665 231.269 35.264C231.932 35.303 232.595 35.303 233.297 35.303ZM219.374 14.75H234.857C244.49 14.75 248.819 17.051 248.819 28.205C248.819 41.036 245.075 44 234.701 44H219.374C219.452 39.866 219.491 35.615 219.491 29.414C219.491 23.213 219.452 18.728 219.374 14.75Z" fill="#F2F0E4"/>
</mask>
<g mask="url(#mask2_441_3504)">
<path d="M130.283 0.126038L90.0249 57.9508L106.128 61.2446L142.36 0.126038H130.283Z" fill="white"/>
<path d="M156.999 0.126038L125.159 61.2446L161.025 64.9044L200.551 0.126038H156.999Z" fill="white"/>
<path d="M206.04 0.126038L174.566 57.9508L191.592 61.2446L224.53 0.126038H206.04Z" fill="white"/>
</g>
</g>
<defs>
<filter id="filter0_d_441_3504" x="-5.92646" y="0.159546" width="75.9313" height="64.0026" filterUnits="userSpaceOnUse" color-interpolation-filters="sRGB">
<feFlood flood-opacity="0" result="BackgroundImageFix"/>
<feColorMatrix in="SourceAlpha" type="matrix" values="0 0 0 0 0 0 0 0 0 0 0 0 0 0 0 0 0 0 127 0" result="hardAlpha"/>
<feOffset/>
<feGaussianBlur stdDeviation="8.9"/>
<feComposite in2="hardAlpha" operator="out"/>
<feColorMatrix type="matrix" values="0 0 0 0 0.94902 0 0 0 0 0.360784 0 0 0 0 0.0196078 0 0 0 0.2 0"/>
<feBlend mode="normal" in2="BackgroundImageFix" result="effect1_dropShadow_441_3504"/>
<feBlend mode="normal" in="SourceGraphic" in2="effect1_dropShadow_441_3504" result="shape"/>
</filter>
<radialGradient id="paint0_radial_441_3504" cx="0" cy="0" r="1" gradientUnits="userSpaceOnUse" gradientTransform="translate(31.9999 32.9255) rotate(90) scale(56.4472 58.7304)">
<stop offset="0.21865" stop-color="#0E0E0F"/>
<stop offset="1" stop-color="white"/>
</radialGradient>
<radialGradient id="paint1_radial_441_3504" cx="0" cy="0" r="1" gradientUnits="userSpaceOnUse" gradientTransform="translate(37.8578 14.548) rotate(102.598) scale(43.8517 42.1891)">
<stop offset="0.116738" stop-opacity="0"/>
<stop offset="1"/>
</radialGradient>
<linearGradient id="paint2_linear_441_3504" x1="32.0392" y1="17.9595" x2="27.1592" y2="43.2887" gradientUnits="userSpaceOnUse">
<stop stop-color="#FD8902"/>
<stop offset="1" stop-color="#D64000"/>
</linearGradient>
<linearGradient id="paint3_linear_441_3504" x1="32.0392" y1="17.9595" x2="26.5549" y2="46.3621" gradientUnits="userSpaceOnUse">
<stop stop-color="#FD8902"/>
<stop offset="1" stop-color="#D64000"/>
</linearGradient>
<linearGradient id="paint4_linear_441_3504" x1="32.0392" y1="17.9595" x2="26.5549" y2="46.3621" gradientUnits="userSpaceOnUse">
<stop stop-color="#FD8902"/>
<stop offset="1" stop-color="#D64000"/>
</linearGradient>
<linearGradient id="paint5_linear_441_3504" x1="49.5842" y1="4.39603" x2="14.3478" y2="60.8316" gradientUnits="userSpaceOnUse">
<stop stop-color="#F6851B"/>
<stop offset="1" stop-color="#F25C05"/>
</linearGradient>
<linearGradient id="paint6_linear_441_3504" x1="162" y1="0" x2="153.614" y2="69.6138" gradientUnits="userSpaceOnUse">
<stop offset="0.025" stop-color="#FEB271"/>
<stop offset="0.3" stop-color="#F07002"/>
<stop offset="0.73" stop-color="#D64000"/>
</linearGradient>
<linearGradient id="paint7_linear_441_3504" x1="167.248" y1="6.02849" x2="162" y2="47" gradientUnits="userSpaceOnUse">
<stop stop-color="#F2F0E4"/>
<stop offset="0.943137" stop-color="#F2F0E4" stop-opacity="0"/>
</linearGradient>
<clipPath id="clip0_441_3504">
<rect width="64" height="64" rx="32" fill="white"/>
</clipPath>
</defs>
</svg>
